G04 #@! TF.GenerationSoftware,KiCad,Pcbnew,(5.0.2)-1*
G04 #@! TF.CreationDate,2018-12-24T13:58:37+01:00*
G04 #@! TF.ProjectId,NeuralRobot,4e657572-616c-4526-9f62-6f742e6b6963,rev?*
G04 #@! TF.SameCoordinates,Original*
G04 #@! TF.FileFunction,Paste,Top*
G04 #@! TF.FilePolarity,Positive*
%FSLAX46Y46*%
G04 Gerber Fmt 4.6, Leading zero omitted, Abs format (unit mm)*
G04 Created by KiCad (PCBNEW (5.0.2)-1) date 24. 12. 2018 13:58:37*
%MOMM*%
%LPD*%
G01*
G04 APERTURE LIST*
%ADD10O,1.500000X0.500000*%
%ADD11O,2.000000X3.000000*%
%ADD12R,0.800000X0.800000*%
%ADD13O,1.000000X1.700000*%
%ADD14O,1.700000X1.000000*%
%ADD15R,0.800000X0.750000*%
%ADD16R,0.750000X0.800000*%
%ADD17R,1.250000X1.000000*%
%ADD18R,1.000000X1.250000*%
%ADD19R,0.960000X0.720000*%
%ADD20R,0.600000X1.550000*%
%ADD21R,1.550000X1.300000*%
%ADD22R,0.300000X0.700000*%
%ADD23R,1.060000X0.650000*%
%ADD24R,0.250000X1.000000*%
%ADD25R,1.000000X0.250000*%
%ADD26R,0.500000X0.900000*%
%ADD27R,0.900000X0.500000*%
%ADD28R,0.700000X0.510000*%
%ADD29R,0.650000X1.060000*%
%ADD30R,2.040000X3.000000*%
%ADD31R,1.050000X0.450000*%
%ADD32R,2.400000X2.000000*%
G04 APERTURE END LIST*
D10*
G04 #@! TO.C,microSD1*
X185000000Y-104350000D03*
X185000000Y-103250000D03*
X185000000Y-102150000D03*
X185000000Y-101050000D03*
X185000000Y-99950000D03*
X185000000Y-96650000D03*
X185000000Y-97750000D03*
X185000000Y-105450000D03*
X185000000Y-98850000D03*
D11*
X186200000Y-107550000D03*
X195700000Y-106850000D03*
X195700000Y-90900000D03*
X186200000Y-91500000D03*
G04 #@! TD*
D12*
G04 #@! TO.C,BLUETOOTH1*
X153675001Y-148475001D03*
X152075001Y-148475001D03*
G04 #@! TD*
D13*
G04 #@! TO.C,BT1*
X162100000Y-132500000D03*
X163600000Y-132500000D03*
X160600000Y-132500000D03*
X159100000Y-132500000D03*
X157600000Y-132500000D03*
X156100000Y-132500000D03*
X154600000Y-132500000D03*
X153100000Y-132500000D03*
X163600000Y-117500000D03*
X162100000Y-117500000D03*
X160600000Y-117500000D03*
X159100000Y-117500000D03*
X157600000Y-117500000D03*
X156100000Y-117500000D03*
X154600000Y-117500000D03*
X153100000Y-117500000D03*
D14*
X165100000Y-130300000D03*
X165100000Y-128800000D03*
X165100000Y-127300000D03*
X165100000Y-125800000D03*
X165100000Y-124300000D03*
X165100000Y-122800000D03*
X165100000Y-121300000D03*
X165100000Y-119800000D03*
G04 #@! TD*
D15*
G04 #@! TO.C,C1*
X168300000Y-90150000D03*
X166800000Y-90150000D03*
G04 #@! TD*
G04 #@! TO.C,C2*
X167700000Y-105350000D03*
X169200000Y-105350000D03*
G04 #@! TD*
D16*
G04 #@! TO.C,C3*
X175850000Y-105050000D03*
X175850000Y-106550000D03*
G04 #@! TD*
D15*
G04 #@! TO.C,C4*
X180400000Y-93400000D03*
X178900000Y-93400000D03*
G04 #@! TD*
G04 #@! TO.C,C37*
X158450000Y-93350000D03*
X156950000Y-93350000D03*
G04 #@! TD*
G04 #@! TO.C,C38*
X157000000Y-97050000D03*
X158500000Y-97050000D03*
G04 #@! TD*
D17*
G04 #@! TO.C,C39*
X161000000Y-99200000D03*
X161000000Y-101200000D03*
G04 #@! TD*
D16*
G04 #@! TO.C,C40*
X162800000Y-100900000D03*
X162800000Y-99400000D03*
G04 #@! TD*
D18*
G04 #@! TO.C,C41*
X153100000Y-136750000D03*
X155100000Y-136750000D03*
G04 #@! TD*
D15*
G04 #@! TO.C,C42*
X154600000Y-134700000D03*
X153100000Y-134700000D03*
G04 #@! TD*
D17*
G04 #@! TO.C,C43*
X150100000Y-85250000D03*
X150100000Y-87250000D03*
G04 #@! TD*
D18*
G04 #@! TO.C,C44*
X168800000Y-88400000D03*
X166800000Y-88400000D03*
G04 #@! TD*
G04 #@! TO.C,C45*
X169250000Y-107100000D03*
X167250000Y-107100000D03*
G04 #@! TD*
D16*
G04 #@! TO.C,C46*
X151950000Y-85250000D03*
X151950000Y-86750000D03*
G04 #@! TD*
D15*
G04 #@! TO.C,C47*
X153100000Y-142550000D03*
X154600000Y-142550000D03*
G04 #@! TD*
D18*
G04 #@! TO.C,C48*
X153100000Y-144350000D03*
X155100000Y-144350000D03*
G04 #@! TD*
D16*
G04 #@! TO.C,C49*
X157600000Y-86750000D03*
X157600000Y-85250000D03*
G04 #@! TD*
D17*
G04 #@! TO.C,C50*
X177550000Y-107150000D03*
X177550000Y-105150000D03*
G04 #@! TD*
G04 #@! TO.C,C51*
X159400000Y-87250000D03*
X159400000Y-85250000D03*
G04 #@! TD*
D18*
G04 #@! TO.C,C52*
X179000000Y-91600000D03*
X181000000Y-91600000D03*
G04 #@! TD*
D17*
G04 #@! TO.C,C53*
X176000000Y-136700000D03*
X176000000Y-134700000D03*
G04 #@! TD*
D18*
G04 #@! TO.C,C54*
X197200000Y-142700000D03*
X199200000Y-142700000D03*
G04 #@! TD*
D15*
G04 #@! TO.C,C55*
X199750000Y-146950000D03*
X201250000Y-146950000D03*
G04 #@! TD*
D18*
G04 #@! TO.C,C56*
X205800000Y-112800000D03*
X203800000Y-112800000D03*
G04 #@! TD*
G04 #@! TO.C,C57*
X203000000Y-145150000D03*
X201000000Y-145150000D03*
G04 #@! TD*
D16*
G04 #@! TO.C,C58*
X201200000Y-149850000D03*
X201200000Y-148350000D03*
G04 #@! TD*
D15*
G04 #@! TO.C,C59*
X183150000Y-99900000D03*
X181650000Y-99900000D03*
G04 #@! TD*
D18*
G04 #@! TO.C,C60*
X201800000Y-126700000D03*
X203800000Y-126700000D03*
G04 #@! TD*
D16*
G04 #@! TO.C,C61*
X201800000Y-115950000D03*
X201800000Y-114450000D03*
G04 #@! TD*
D17*
G04 #@! TO.C,C62*
X199900000Y-114400000D03*
X199900000Y-116400000D03*
G04 #@! TD*
D18*
G04 #@! TO.C,C63*
X176400000Y-141200000D03*
X174400000Y-141200000D03*
G04 #@! TD*
D19*
G04 #@! TO.C,CHARGER1*
X168600000Y-138000000D03*
X170200000Y-138000000D03*
X168600000Y-136800000D03*
X170200000Y-136800000D03*
D20*
X167495000Y-134700000D03*
X168765000Y-134700000D03*
X170035000Y-134700000D03*
X171305000Y-134700000D03*
X171305000Y-140100000D03*
X170035000Y-140100000D03*
X168765000Y-140100000D03*
X167495000Y-140100000D03*
G04 #@! TD*
D21*
G04 #@! TO.C,DOWN1*
X194480000Y-136150000D03*
X194480000Y-131650000D03*
X186520000Y-131650000D03*
X186520000Y-136150000D03*
G04 #@! TD*
D22*
G04 #@! TO.C,J3*
X169800000Y-145830000D03*
X170300000Y-145830000D03*
X170800000Y-145830000D03*
X171300000Y-145830000D03*
X171800000Y-145830000D03*
X172300000Y-145830000D03*
X172800000Y-145830000D03*
X173300000Y-145830000D03*
X173800000Y-145830000D03*
X174300000Y-145830000D03*
X174800000Y-145830000D03*
X175300000Y-145830000D03*
X175050000Y-144130000D03*
X173550000Y-144130000D03*
X174050000Y-144130000D03*
X174550000Y-144130000D03*
X175550000Y-144130000D03*
X173050000Y-144130000D03*
X172550000Y-144130000D03*
X172050000Y-144130000D03*
X171550000Y-144130000D03*
X171050000Y-144130000D03*
X170550000Y-144130000D03*
X170050000Y-144130000D03*
G04 #@! TD*
D23*
G04 #@! TO.C,LDO1*
X155950000Y-85250000D03*
X155950000Y-87150000D03*
X153750000Y-87150000D03*
X153750000Y-86200000D03*
X153750000Y-85250000D03*
G04 #@! TD*
D12*
G04 #@! TO.C,LEARN1*
X207500000Y-138900000D03*
X205900000Y-138900000D03*
G04 #@! TD*
D24*
G04 #@! TO.C,MCU1*
X167800000Y-92100000D03*
X168300000Y-92100000D03*
X168800000Y-92100000D03*
X169300000Y-92100000D03*
X169800000Y-92100000D03*
X170300000Y-92100000D03*
X170800000Y-92100000D03*
X171300000Y-92100000D03*
X171800000Y-92100000D03*
X172300000Y-92100000D03*
X172800000Y-92100000D03*
X173300000Y-92100000D03*
X173800000Y-92100000D03*
X174300000Y-92100000D03*
X174800000Y-92100000D03*
X175300000Y-92100000D03*
D25*
X177250000Y-94050000D03*
X177250000Y-94550000D03*
X177250000Y-95050000D03*
X177250000Y-95550000D03*
X177250000Y-96050000D03*
X177250000Y-96550000D03*
X177250000Y-97050000D03*
X177250000Y-97550000D03*
X177250000Y-98050000D03*
X177250000Y-98550000D03*
X177250000Y-99050000D03*
X177250000Y-99550000D03*
X177250000Y-100050000D03*
X177250000Y-100550000D03*
X177250000Y-101050000D03*
X177250000Y-101550000D03*
D24*
X175300000Y-103500000D03*
X174800000Y-103500000D03*
X174300000Y-103500000D03*
X173800000Y-103500000D03*
X173300000Y-103500000D03*
X172800000Y-103500000D03*
X172300000Y-103500000D03*
X171800000Y-103500000D03*
X171300000Y-103500000D03*
X170800000Y-103500000D03*
X170300000Y-103500000D03*
X169800000Y-103500000D03*
X169300000Y-103500000D03*
X168800000Y-103500000D03*
X168300000Y-103500000D03*
X167800000Y-103500000D03*
D25*
X165850000Y-101550000D03*
X165850000Y-101050000D03*
X165850000Y-100550000D03*
X165850000Y-100050000D03*
X165850000Y-99550000D03*
X165850000Y-99050000D03*
X165850000Y-98550000D03*
X165850000Y-98050000D03*
X165850000Y-97550000D03*
X165850000Y-97050000D03*
X165850000Y-96550000D03*
X165850000Y-96050000D03*
X165850000Y-95550000D03*
X165850000Y-95050000D03*
X165850000Y-94550000D03*
X165850000Y-94050000D03*
G04 #@! TD*
D21*
G04 #@! TO.C,OK1*
X194480000Y-126250000D03*
X194480000Y-121750000D03*
X186520000Y-121750000D03*
X186520000Y-126250000D03*
G04 #@! TD*
G04 #@! TO.C,POWER1*
X154180000Y-109050000D03*
X154180000Y-113550000D03*
X146220000Y-113550000D03*
X146220000Y-109050000D03*
G04 #@! TD*
D26*
G04 #@! TO.C,R1*
X170250000Y-142100000D03*
X168750000Y-142100000D03*
G04 #@! TD*
G04 #@! TO.C,R2*
X198450000Y-123900000D03*
X199950000Y-123900000D03*
G04 #@! TD*
G04 #@! TO.C,R3*
X203650000Y-130400000D03*
X202150000Y-130400000D03*
G04 #@! TD*
G04 #@! TO.C,R4*
X203650000Y-128600000D03*
X202150000Y-128600000D03*
G04 #@! TD*
D27*
G04 #@! TO.C,R5*
X178900000Y-97050000D03*
X178900000Y-95550000D03*
G04 #@! TD*
D26*
G04 #@! TO.C,R6*
X155150000Y-148500000D03*
X156650000Y-148500000D03*
G04 #@! TD*
G04 #@! TO.C,R7*
X203050000Y-134400000D03*
X204550000Y-134400000D03*
G04 #@! TD*
G04 #@! TO.C,R8*
X204550000Y-138900000D03*
X203050000Y-138900000D03*
G04 #@! TD*
D27*
G04 #@! TO.C,R9*
X181000000Y-73250000D03*
X181000000Y-71750000D03*
G04 #@! TD*
G04 #@! TO.C,R10*
X150020622Y-71789797D03*
X150020622Y-73289797D03*
G04 #@! TD*
D21*
G04 #@! TO.C,RESET1*
X201380000Y-85550000D03*
X201380000Y-81050000D03*
X193420000Y-81050000D03*
X193420000Y-85550000D03*
G04 #@! TD*
D12*
G04 #@! TO.C,RUN1*
X207500000Y-134400000D03*
X205900000Y-134400000D03*
G04 #@! TD*
D28*
G04 #@! TO.C,U1*
X186160000Y-71050000D03*
X186160000Y-72000000D03*
X186160000Y-72950000D03*
X183840000Y-72950000D03*
X183840000Y-72000000D03*
X183840000Y-71050000D03*
G04 #@! TD*
G04 #@! TO.C,U2*
X155080622Y-71089797D03*
X155080622Y-72039797D03*
X155080622Y-72989797D03*
X152760622Y-72989797D03*
X152760622Y-72039797D03*
X152760622Y-71089797D03*
G04 #@! TD*
D29*
G04 #@! TO.C,U9*
X153100000Y-140800000D03*
X154050000Y-140800000D03*
X155000000Y-140800000D03*
X155000000Y-138600000D03*
X153100000Y-138600000D03*
G04 #@! TD*
D30*
G04 #@! TO.C,U10*
X194850000Y-146850000D03*
D31*
X197625000Y-144575000D03*
X197625000Y-145225000D03*
X197625000Y-145875000D03*
X197625000Y-146525000D03*
X197625000Y-147175000D03*
X197625000Y-147825000D03*
X197625000Y-148475000D03*
X197625000Y-149125000D03*
X192075000Y-149125000D03*
X192075000Y-148475000D03*
X192075000Y-147825000D03*
X192075000Y-147175000D03*
X192075000Y-146525000D03*
X192075000Y-145875000D03*
X192075000Y-145225000D03*
X192075000Y-144575000D03*
G04 #@! TD*
D23*
G04 #@! TO.C,U11*
X205800000Y-114950000D03*
X205800000Y-116850000D03*
X203600000Y-116850000D03*
X203600000Y-115900000D03*
X203600000Y-114950000D03*
G04 #@! TD*
D28*
G04 #@! TO.C,U12*
X197640000Y-125750000D03*
X197640000Y-126700000D03*
X197640000Y-127650000D03*
X199960000Y-127650000D03*
X199960000Y-126700000D03*
X199960000Y-125750000D03*
G04 #@! TD*
D21*
G04 #@! TO.C,UP1*
X186520000Y-116450000D03*
X186520000Y-111950000D03*
X194480000Y-111950000D03*
X194480000Y-116450000D03*
G04 #@! TD*
D32*
G04 #@! TO.C,Y1*
X161400000Y-93350000D03*
X161400000Y-97050000D03*
G04 #@! TD*
M02*
