G04 #@! TF.GenerationSoftware,KiCad,Pcbnew,(5.0.2)-1*
G04 #@! TF.CreationDate,2018-12-24T13:58:37+01:00*
G04 #@! TF.ProjectId,NeuralRobot,4e657572-616c-4526-9f62-6f742e6b6963,rev?*
G04 #@! TF.SameCoordinates,Original*
G04 #@! TF.FileFunction,Soldermask,Top*
G04 #@! TF.FilePolarity,Negative*
%FSLAX46Y46*%
G04 Gerber Fmt 4.6, Leading zero omitted, Abs format (unit mm)*
G04 Created by KiCad (PCBNEW (5.0.2)-1) date 24. 12. 2018 13:58:37*
%MOMM*%
%LPD*%
G01*
G04 APERTURE LIST*
%ADD10C,0.050000*%
G04 APERTURE END LIST*
D10*
G36*
X208510473Y-152417193D02*
X208828963Y-152549116D01*
X209115601Y-152740641D01*
X209359359Y-152984399D01*
X209550884Y-153271037D01*
X209682807Y-153589527D01*
X209750060Y-153927633D01*
X209750060Y-154272367D01*
X209682807Y-154610473D01*
X209550884Y-154928963D01*
X209359359Y-155215601D01*
X209115601Y-155459359D01*
X208828963Y-155650884D01*
X208510473Y-155782807D01*
X208172367Y-155850060D01*
X207827633Y-155850060D01*
X207489527Y-155782807D01*
X207171037Y-155650884D01*
X206884399Y-155459359D01*
X206640641Y-155215601D01*
X206449116Y-154928963D01*
X206317193Y-154610473D01*
X206249940Y-154272367D01*
X206249940Y-153927633D01*
X206317193Y-153589527D01*
X206449116Y-153271037D01*
X206640641Y-152984399D01*
X206884399Y-152740641D01*
X207171037Y-152549116D01*
X207489527Y-152417193D01*
X207827633Y-152349940D01*
X208172367Y-152349940D01*
X208510473Y-152417193D01*
X208510473Y-152417193D01*
G37*
G36*
X144510473Y-152417193D02*
X144828963Y-152549116D01*
X145115601Y-152740641D01*
X145359359Y-152984399D01*
X145550884Y-153271037D01*
X145682807Y-153589527D01*
X145750060Y-153927633D01*
X145750060Y-154272367D01*
X145682807Y-154610473D01*
X145550884Y-154928963D01*
X145359359Y-155215601D01*
X145115601Y-155459359D01*
X144828963Y-155650884D01*
X144510473Y-155782807D01*
X144172367Y-155850060D01*
X143827633Y-155850060D01*
X143489527Y-155782807D01*
X143171037Y-155650884D01*
X142884399Y-155459359D01*
X142640641Y-155215601D01*
X142449116Y-154928963D01*
X142317193Y-154610473D01*
X142249940Y-154272367D01*
X142249940Y-153927633D01*
X142317193Y-153589527D01*
X142449116Y-153271037D01*
X142640641Y-152984399D01*
X142884399Y-152740641D01*
X143171037Y-152549116D01*
X143489527Y-152417193D01*
X143827633Y-152349940D01*
X144172367Y-152349940D01*
X144510473Y-152417193D01*
X144510473Y-152417193D01*
G37*
G36*
X168388413Y-151295788D02*
X168463813Y-151318660D01*
X168463816Y-151318662D01*
X168463817Y-151318662D01*
X168533304Y-151355803D01*
X168594211Y-151405789D01*
X168644197Y-151466697D01*
X168681340Y-151536186D01*
X168704212Y-151611586D01*
X168710000Y-151670353D01*
X168710000Y-152309647D01*
X168704212Y-152368414D01*
X168681340Y-152443814D01*
X168644197Y-152513303D01*
X168594211Y-152574211D01*
X168533303Y-152624197D01*
X168463814Y-152661340D01*
X168388414Y-152684212D01*
X168310000Y-152691935D01*
X168231587Y-152684212D01*
X168156187Y-152661340D01*
X168086698Y-152624197D01*
X168025790Y-152574211D01*
X167975804Y-152513303D01*
X167938661Y-152443814D01*
X167915789Y-152368414D01*
X167913969Y-152349940D01*
X167910000Y-152309645D01*
X167910000Y-151670354D01*
X167915788Y-151611589D01*
X167915788Y-151611587D01*
X167938660Y-151536187D01*
X167938662Y-151536183D01*
X167975803Y-151466696D01*
X168025789Y-151405789D01*
X168086695Y-151355805D01*
X168086697Y-151355803D01*
X168156186Y-151318660D01*
X168231586Y-151295788D01*
X168310000Y-151288065D01*
X168388413Y-151295788D01*
X168388413Y-151295788D01*
G37*
G36*
X177368413Y-151295788D02*
X177443813Y-151318660D01*
X177443816Y-151318662D01*
X177443817Y-151318662D01*
X177513304Y-151355803D01*
X177574211Y-151405789D01*
X177624197Y-151466697D01*
X177661340Y-151536186D01*
X177684212Y-151611586D01*
X177690000Y-151670353D01*
X177690000Y-152309647D01*
X177684212Y-152368414D01*
X177661340Y-152443814D01*
X177624197Y-152513303D01*
X177574211Y-152574211D01*
X177513303Y-152624197D01*
X177443814Y-152661340D01*
X177368414Y-152684212D01*
X177290000Y-152691935D01*
X177211587Y-152684212D01*
X177136187Y-152661340D01*
X177066698Y-152624197D01*
X177005790Y-152574211D01*
X176955804Y-152513303D01*
X176918661Y-152443814D01*
X176895789Y-152368414D01*
X176893969Y-152349940D01*
X176890000Y-152309645D01*
X176890000Y-151670354D01*
X176895788Y-151611589D01*
X176895788Y-151611587D01*
X176918660Y-151536187D01*
X176918662Y-151536183D01*
X176955803Y-151466696D01*
X177005789Y-151405789D01*
X177066695Y-151355805D01*
X177066697Y-151355803D01*
X177136186Y-151318660D01*
X177211586Y-151295788D01*
X177290000Y-151288065D01*
X177368413Y-151295788D01*
X177368413Y-151295788D01*
G37*
G36*
X186766630Y-149582299D02*
X186926855Y-149630903D01*
X187074520Y-149709831D01*
X187203949Y-149816051D01*
X187310169Y-149945480D01*
X187389097Y-150093145D01*
X187437701Y-150253370D01*
X187454112Y-150420000D01*
X187437701Y-150586630D01*
X187389097Y-150746855D01*
X187310169Y-150894520D01*
X187203949Y-151023949D01*
X187074520Y-151130169D01*
X186926855Y-151209097D01*
X186766630Y-151257701D01*
X186641752Y-151270000D01*
X186558248Y-151270000D01*
X186433370Y-151257701D01*
X186273145Y-151209097D01*
X186125480Y-151130169D01*
X185996051Y-151023949D01*
X185889831Y-150894520D01*
X185810903Y-150746855D01*
X185762299Y-150586630D01*
X185745888Y-150420000D01*
X185762299Y-150253370D01*
X185810903Y-150093145D01*
X185889831Y-149945480D01*
X185996051Y-149816051D01*
X186125480Y-149709831D01*
X186273145Y-149630903D01*
X186433370Y-149582299D01*
X186558248Y-149570000D01*
X186641752Y-149570000D01*
X186766630Y-149582299D01*
X186766630Y-149582299D01*
G37*
G36*
X201575000Y-150250000D02*
X200825000Y-150250000D01*
X200825000Y-149450000D01*
X201575000Y-149450000D01*
X201575000Y-150250000D01*
X201575000Y-150250000D01*
G37*
G36*
X192600000Y-149350000D02*
X191550000Y-149350000D01*
X191550000Y-144350000D01*
X192600000Y-144350000D01*
X192600000Y-149350000D01*
X192600000Y-149350000D01*
G37*
G36*
X198150000Y-149350000D02*
X197100000Y-149350000D01*
X197100000Y-144350000D01*
X198150000Y-144350000D01*
X198150000Y-149350000D01*
X198150000Y-149350000D01*
G37*
G36*
X196550000Y-149350000D02*
X193150000Y-149350000D01*
X193150000Y-144350000D01*
X196550000Y-144350000D01*
X196550000Y-149350000D01*
X196550000Y-149350000D01*
G37*
G36*
X155400000Y-148950000D02*
X154900000Y-148950000D01*
X154900000Y-148050000D01*
X155400000Y-148050000D01*
X155400000Y-148950000D01*
X155400000Y-148950000D01*
G37*
G36*
X156900000Y-148950000D02*
X156400000Y-148950000D01*
X156400000Y-148050000D01*
X156900000Y-148050000D01*
X156900000Y-148950000D01*
X156900000Y-148950000D01*
G37*
G36*
X154075001Y-148875001D02*
X153275001Y-148875001D01*
X153275001Y-148075001D01*
X154075001Y-148075001D01*
X154075001Y-148875001D01*
X154075001Y-148875001D01*
G37*
G36*
X152475001Y-148875001D02*
X151675001Y-148875001D01*
X151675001Y-148075001D01*
X152475001Y-148075001D01*
X152475001Y-148875001D01*
X152475001Y-148875001D01*
G37*
G36*
X201575000Y-148750000D02*
X200825000Y-148750000D01*
X200825000Y-147950000D01*
X201575000Y-147950000D01*
X201575000Y-148750000D01*
X201575000Y-148750000D01*
G37*
G36*
X186766630Y-147042299D02*
X186926855Y-147090903D01*
X187074520Y-147169831D01*
X187203949Y-147276051D01*
X187310169Y-147405480D01*
X187389097Y-147553145D01*
X187437701Y-147713370D01*
X187454112Y-147880000D01*
X187437701Y-148046630D01*
X187389097Y-148206855D01*
X187310169Y-148354520D01*
X187203949Y-148483949D01*
X187074520Y-148590169D01*
X186926855Y-148669097D01*
X186766630Y-148717701D01*
X186641752Y-148730000D01*
X186558248Y-148730000D01*
X186433370Y-148717701D01*
X186273145Y-148669097D01*
X186125480Y-148590169D01*
X185996051Y-148483949D01*
X185889831Y-148354520D01*
X185810903Y-148206855D01*
X185762299Y-148046630D01*
X185745888Y-147880000D01*
X185762299Y-147713370D01*
X185810903Y-147553145D01*
X185889831Y-147405480D01*
X185996051Y-147276051D01*
X186125480Y-147169831D01*
X186273145Y-147090903D01*
X186433370Y-147042299D01*
X186558248Y-147030000D01*
X186641752Y-147030000D01*
X186766630Y-147042299D01*
X186766630Y-147042299D01*
G37*
G36*
X201650000Y-147325000D02*
X200850000Y-147325000D01*
X200850000Y-146575000D01*
X201650000Y-146575000D01*
X201650000Y-147325000D01*
X201650000Y-147325000D01*
G37*
G36*
X200150000Y-147325000D02*
X199350000Y-147325000D01*
X199350000Y-146575000D01*
X200150000Y-146575000D01*
X200150000Y-147325000D01*
X200150000Y-147325000D01*
G37*
G36*
X177008413Y-145345788D02*
X177083813Y-145368660D01*
X177083816Y-145368662D01*
X177083817Y-145368662D01*
X177153304Y-145405803D01*
X177207157Y-145450000D01*
X177214211Y-145455789D01*
X177264197Y-145516697D01*
X177301340Y-145586186D01*
X177324212Y-145661586D01*
X177330000Y-145720353D01*
X177330000Y-146359647D01*
X177324212Y-146418414D01*
X177301340Y-146493814D01*
X177264197Y-146563303D01*
X177214211Y-146624211D01*
X177153303Y-146674197D01*
X177083814Y-146711340D01*
X177008414Y-146734212D01*
X176930000Y-146741935D01*
X176851587Y-146734212D01*
X176776187Y-146711340D01*
X176706698Y-146674197D01*
X176645790Y-146624211D01*
X176595804Y-146563303D01*
X176558661Y-146493814D01*
X176535789Y-146418414D01*
X176534649Y-146406836D01*
X176530000Y-146359645D01*
X176530000Y-145720354D01*
X176535788Y-145661589D01*
X176535788Y-145661587D01*
X176558660Y-145586187D01*
X176558662Y-145586183D01*
X176595803Y-145516696D01*
X176645789Y-145455789D01*
X176706695Y-145405805D01*
X176706697Y-145405803D01*
X176776186Y-145368660D01*
X176851586Y-145345788D01*
X176930000Y-145338065D01*
X177008413Y-145345788D01*
X177008413Y-145345788D01*
G37*
G36*
X168748413Y-145345788D02*
X168823813Y-145368660D01*
X168823816Y-145368662D01*
X168823817Y-145368662D01*
X168893304Y-145405803D01*
X168947157Y-145450000D01*
X168954211Y-145455789D01*
X169004197Y-145516697D01*
X169041340Y-145586186D01*
X169064212Y-145661586D01*
X169070000Y-145720353D01*
X169070000Y-146359647D01*
X169064212Y-146418414D01*
X169041340Y-146493814D01*
X169004197Y-146563303D01*
X168954211Y-146624211D01*
X168893303Y-146674197D01*
X168823814Y-146711340D01*
X168748414Y-146734212D01*
X168670000Y-146741935D01*
X168591587Y-146734212D01*
X168516187Y-146711340D01*
X168446698Y-146674197D01*
X168385790Y-146624211D01*
X168335804Y-146563303D01*
X168298661Y-146493814D01*
X168275789Y-146418414D01*
X168274649Y-146406836D01*
X168270000Y-146359645D01*
X168270000Y-145720354D01*
X168275788Y-145661589D01*
X168275788Y-145661587D01*
X168298660Y-145586187D01*
X168298662Y-145586183D01*
X168335803Y-145516696D01*
X168385789Y-145455789D01*
X168446695Y-145405805D01*
X168446697Y-145405803D01*
X168516186Y-145368660D01*
X168591586Y-145345788D01*
X168670000Y-145338065D01*
X168748413Y-145345788D01*
X168748413Y-145345788D01*
G37*
G36*
X186766630Y-144502299D02*
X186926855Y-144550903D01*
X187074520Y-144629831D01*
X187203949Y-144736051D01*
X187310169Y-144865480D01*
X187389097Y-145013145D01*
X187437701Y-145173370D01*
X187454112Y-145340000D01*
X187437701Y-145506630D01*
X187389097Y-145666855D01*
X187310169Y-145814520D01*
X187203949Y-145943949D01*
X187074520Y-146050169D01*
X186926855Y-146129097D01*
X186766630Y-146177701D01*
X186641752Y-146190000D01*
X186558248Y-146190000D01*
X186433370Y-146177701D01*
X186273145Y-146129097D01*
X186125480Y-146050169D01*
X185996051Y-145943949D01*
X185889831Y-145814520D01*
X185810903Y-145666855D01*
X185762299Y-145506630D01*
X185745888Y-145340000D01*
X185762299Y-145173370D01*
X185810903Y-145013145D01*
X185889831Y-144865480D01*
X185996051Y-144736051D01*
X186125480Y-144629831D01*
X186273145Y-144550903D01*
X186433370Y-144502299D01*
X186558248Y-144490000D01*
X186641752Y-144490000D01*
X186766630Y-144502299D01*
X186766630Y-144502299D01*
G37*
G36*
X175450000Y-146180000D02*
X169650000Y-146180000D01*
X169650000Y-145480000D01*
X175450000Y-145480000D01*
X175450000Y-146180000D01*
X175450000Y-146180000D01*
G37*
G36*
X203500000Y-145775000D02*
X202500000Y-145775000D01*
X202500000Y-144525000D01*
X203500000Y-144525000D01*
X203500000Y-145775000D01*
X203500000Y-145775000D01*
G37*
G36*
X201500000Y-145775000D02*
X200500000Y-145775000D01*
X200500000Y-144525000D01*
X201500000Y-144525000D01*
X201500000Y-145775000D01*
X201500000Y-145775000D01*
G37*
G36*
X176613712Y-144469702D02*
X176674972Y-144488285D01*
X176701191Y-144502300D01*
X176731434Y-144518465D01*
X176780921Y-144559079D01*
X176800409Y-144582824D01*
X176821534Y-144608565D01*
X176851715Y-144665028D01*
X176870298Y-144726288D01*
X176876572Y-144790000D01*
X176870298Y-144853712D01*
X176851715Y-144914972D01*
X176836230Y-144943941D01*
X176821535Y-144971434D01*
X176780921Y-145020921D01*
X176731434Y-145061535D01*
X176712614Y-145071594D01*
X176674972Y-145091715D01*
X176613712Y-145110298D01*
X176565965Y-145115000D01*
X176234035Y-145115000D01*
X176186288Y-145110298D01*
X176125028Y-145091715D01*
X176087386Y-145071594D01*
X176068566Y-145061535D01*
X176019079Y-145020921D01*
X175978465Y-144971434D01*
X175963770Y-144943941D01*
X175948285Y-144914972D01*
X175929702Y-144853712D01*
X175923428Y-144790000D01*
X175929702Y-144726288D01*
X175948285Y-144665028D01*
X175978466Y-144608565D01*
X175999592Y-144582824D01*
X176019079Y-144559079D01*
X176068566Y-144518465D01*
X176098809Y-144502300D01*
X176125028Y-144488285D01*
X176186288Y-144469702D01*
X176234035Y-144465000D01*
X176565965Y-144465000D01*
X176613712Y-144469702D01*
X176613712Y-144469702D01*
G37*
G36*
X169294799Y-144477489D02*
X169340543Y-144496437D01*
X169353941Y-144501986D01*
X169353942Y-144501987D01*
X169353945Y-144501988D01*
X169407176Y-144537556D01*
X169452444Y-144582824D01*
X169488012Y-144636055D01*
X169512511Y-144695201D01*
X169525000Y-144757990D01*
X169525000Y-144822010D01*
X169512511Y-144884799D01*
X169488012Y-144943945D01*
X169452444Y-144997176D01*
X169407176Y-145042444D01*
X169353945Y-145078012D01*
X169353942Y-145078013D01*
X169353941Y-145078014D01*
X169340543Y-145083563D01*
X169294799Y-145102511D01*
X169232010Y-145115000D01*
X169167990Y-145115000D01*
X169105201Y-145102511D01*
X169059457Y-145083563D01*
X169046059Y-145078014D01*
X169046058Y-145078013D01*
X169046055Y-145078012D01*
X168992824Y-145042444D01*
X168947556Y-144997176D01*
X168911988Y-144943945D01*
X168887489Y-144884799D01*
X168875000Y-144822010D01*
X168875000Y-144757990D01*
X168887489Y-144695201D01*
X168911988Y-144636055D01*
X168947556Y-144582824D01*
X168992824Y-144537556D01*
X169046055Y-144501988D01*
X169046058Y-144501987D01*
X169046059Y-144501986D01*
X169059457Y-144496437D01*
X169105201Y-144477489D01*
X169167990Y-144465000D01*
X169232010Y-144465000D01*
X169294799Y-144477489D01*
X169294799Y-144477489D01*
G37*
G36*
X153600000Y-144975000D02*
X152600000Y-144975000D01*
X152600000Y-143725000D01*
X153600000Y-143725000D01*
X153600000Y-144975000D01*
X153600000Y-144975000D01*
G37*
G36*
X155600000Y-144975000D02*
X154600000Y-144975000D01*
X154600000Y-143725000D01*
X155600000Y-143725000D01*
X155600000Y-144975000D01*
X155600000Y-144975000D01*
G37*
G36*
X175700000Y-144480000D02*
X169900000Y-144480000D01*
X169900000Y-143780000D01*
X175700000Y-143780000D01*
X175700000Y-144480000D01*
X175700000Y-144480000D01*
G37*
G36*
X187450000Y-143650000D02*
X185750000Y-143650000D01*
X185750000Y-141950000D01*
X187450000Y-141950000D01*
X187450000Y-143650000D01*
X187450000Y-143650000D01*
G37*
G36*
X199700000Y-143325000D02*
X198700000Y-143325000D01*
X198700000Y-142075000D01*
X199700000Y-142075000D01*
X199700000Y-143325000D01*
X199700000Y-143325000D01*
G37*
G36*
X197700000Y-143325000D02*
X196700000Y-143325000D01*
X196700000Y-142075000D01*
X197700000Y-142075000D01*
X197700000Y-143325000D01*
X197700000Y-143325000D01*
G37*
G36*
X153500000Y-142925000D02*
X152700000Y-142925000D01*
X152700000Y-142175000D01*
X153500000Y-142175000D01*
X153500000Y-142925000D01*
X153500000Y-142925000D01*
G37*
G36*
X155000000Y-142925000D02*
X154200000Y-142925000D01*
X154200000Y-142175000D01*
X155000000Y-142175000D01*
X155000000Y-142925000D01*
X155000000Y-142925000D01*
G37*
G36*
X181816630Y-141202299D02*
X181976855Y-141250903D01*
X182124520Y-141329831D01*
X182253949Y-141436051D01*
X182360169Y-141565480D01*
X182439097Y-141713145D01*
X182487701Y-141873370D01*
X182504112Y-142040000D01*
X182487701Y-142206630D01*
X182439097Y-142366855D01*
X182360169Y-142514520D01*
X182253949Y-142643949D01*
X182124520Y-142750169D01*
X181976855Y-142829097D01*
X181816630Y-142877701D01*
X181691752Y-142890000D01*
X181608248Y-142890000D01*
X181483370Y-142877701D01*
X181323145Y-142829097D01*
X181175480Y-142750169D01*
X181046051Y-142643949D01*
X180939831Y-142514520D01*
X180860903Y-142366855D01*
X180812299Y-142206630D01*
X180795888Y-142040000D01*
X180812299Y-141873370D01*
X180860903Y-141713145D01*
X180939831Y-141565480D01*
X181046051Y-141436051D01*
X181175480Y-141329831D01*
X181323145Y-141250903D01*
X181483370Y-141202299D01*
X181608248Y-141190000D01*
X181691752Y-141190000D01*
X181816630Y-141202299D01*
X181816630Y-141202299D01*
G37*
G36*
X169000000Y-142550000D02*
X168500000Y-142550000D01*
X168500000Y-141650000D01*
X169000000Y-141650000D01*
X169000000Y-142550000D01*
X169000000Y-142550000D01*
G37*
G36*
X170500000Y-142550000D02*
X170000000Y-142550000D01*
X170000000Y-141650000D01*
X170500000Y-141650000D01*
X170500000Y-142550000D01*
X170500000Y-142550000D01*
G37*
G36*
X176900000Y-141825000D02*
X175900000Y-141825000D01*
X175900000Y-140575000D01*
X176900000Y-140575000D01*
X176900000Y-141825000D01*
X176900000Y-141825000D01*
G37*
G36*
X174900000Y-141825000D02*
X173900000Y-141825000D01*
X173900000Y-140575000D01*
X174900000Y-140575000D01*
X174900000Y-141825000D01*
X174900000Y-141825000D01*
G37*
G36*
X153425000Y-141330000D02*
X152775000Y-141330000D01*
X152775000Y-140270000D01*
X153425000Y-140270000D01*
X153425000Y-141330000D01*
X153425000Y-141330000D01*
G37*
G36*
X155325000Y-141330000D02*
X154675000Y-141330000D01*
X154675000Y-140270000D01*
X155325000Y-140270000D01*
X155325000Y-141330000D01*
X155325000Y-141330000D01*
G37*
G36*
X154375000Y-141330000D02*
X153725000Y-141330000D01*
X153725000Y-140270000D01*
X154375000Y-140270000D01*
X154375000Y-141330000D01*
X154375000Y-141330000D01*
G37*
G36*
X167795000Y-140875000D02*
X167195000Y-140875000D01*
X167195000Y-139325000D01*
X167795000Y-139325000D01*
X167795000Y-140875000D01*
X167795000Y-140875000D01*
G37*
G36*
X171605000Y-140875000D02*
X171005000Y-140875000D01*
X171005000Y-139325000D01*
X171605000Y-139325000D01*
X171605000Y-140875000D01*
X171605000Y-140875000D01*
G37*
G36*
X170335000Y-140875000D02*
X169735000Y-140875000D01*
X169735000Y-139325000D01*
X170335000Y-139325000D01*
X170335000Y-140875000D01*
X170335000Y-140875000D01*
G37*
G36*
X169065000Y-140875000D02*
X168465000Y-140875000D01*
X168465000Y-139325000D01*
X169065000Y-139325000D01*
X169065000Y-140875000D01*
X169065000Y-140875000D01*
G37*
G36*
X182500000Y-140350000D02*
X180800000Y-140350000D01*
X180800000Y-138650000D01*
X182500000Y-138650000D01*
X182500000Y-140350000D01*
X182500000Y-140350000D01*
G37*
G36*
X204800000Y-139350000D02*
X204300000Y-139350000D01*
X204300000Y-138450000D01*
X204800000Y-138450000D01*
X204800000Y-139350000D01*
X204800000Y-139350000D01*
G37*
G36*
X203300000Y-139350000D02*
X202800000Y-139350000D01*
X202800000Y-138450000D01*
X203300000Y-138450000D01*
X203300000Y-139350000D01*
X203300000Y-139350000D01*
G37*
G36*
X207900000Y-139300000D02*
X207100000Y-139300000D01*
X207100000Y-138500000D01*
X207900000Y-138500000D01*
X207900000Y-139300000D01*
X207900000Y-139300000D01*
G37*
G36*
X206300000Y-139300000D02*
X205500000Y-139300000D01*
X205500000Y-138500000D01*
X206300000Y-138500000D01*
X206300000Y-139300000D01*
X206300000Y-139300000D01*
G37*
G36*
X155325000Y-139130000D02*
X154675000Y-139130000D01*
X154675000Y-138070000D01*
X155325000Y-138070000D01*
X155325000Y-139130000D01*
X155325000Y-139130000D01*
G37*
G36*
X153425000Y-139130000D02*
X152775000Y-139130000D01*
X152775000Y-138070000D01*
X153425000Y-138070000D01*
X153425000Y-139130000D01*
X153425000Y-139130000D01*
G37*
G36*
X171000000Y-138600000D02*
X167800000Y-138600000D01*
X167800000Y-136200000D01*
X171000000Y-136200000D01*
X171000000Y-138600000D01*
X171000000Y-138600000D01*
G37*
G36*
X155600000Y-137375000D02*
X154600000Y-137375000D01*
X154600000Y-136125000D01*
X155600000Y-136125000D01*
X155600000Y-137375000D01*
X155600000Y-137375000D01*
G37*
G36*
X153600000Y-137375000D02*
X152600000Y-137375000D01*
X152600000Y-136125000D01*
X153600000Y-136125000D01*
X153600000Y-137375000D01*
X153600000Y-137375000D01*
G37*
G36*
X176625000Y-137200000D02*
X175375000Y-137200000D01*
X175375000Y-136200000D01*
X176625000Y-136200000D01*
X176625000Y-137200000D01*
X176625000Y-137200000D01*
G37*
G36*
X195255000Y-136800000D02*
X193705000Y-136800000D01*
X193705000Y-135500000D01*
X195255000Y-135500000D01*
X195255000Y-136800000D01*
X195255000Y-136800000D01*
G37*
G36*
X187295000Y-136800000D02*
X185745000Y-136800000D01*
X185745000Y-135500000D01*
X187295000Y-135500000D01*
X187295000Y-136800000D01*
X187295000Y-136800000D01*
G37*
G36*
X171605000Y-135475000D02*
X171005000Y-135475000D01*
X171005000Y-133925000D01*
X171605000Y-133925000D01*
X171605000Y-135475000D01*
X171605000Y-135475000D01*
G37*
G36*
X170335000Y-135475000D02*
X169735000Y-135475000D01*
X169735000Y-133925000D01*
X170335000Y-133925000D01*
X170335000Y-135475000D01*
X170335000Y-135475000D01*
G37*
G36*
X169065000Y-135475000D02*
X168465000Y-135475000D01*
X168465000Y-133925000D01*
X169065000Y-133925000D01*
X169065000Y-135475000D01*
X169065000Y-135475000D01*
G37*
G36*
X167795000Y-135475000D02*
X167195000Y-135475000D01*
X167195000Y-133925000D01*
X167795000Y-133925000D01*
X167795000Y-135475000D01*
X167795000Y-135475000D01*
G37*
G36*
X176625000Y-135200000D02*
X175375000Y-135200000D01*
X175375000Y-134200000D01*
X176625000Y-134200000D01*
X176625000Y-135200000D01*
X176625000Y-135200000D01*
G37*
G36*
X153500000Y-135075000D02*
X152700000Y-135075000D01*
X152700000Y-134325000D01*
X153500000Y-134325000D01*
X153500000Y-135075000D01*
X153500000Y-135075000D01*
G37*
G36*
X155000000Y-135075000D02*
X154200000Y-135075000D01*
X154200000Y-134325000D01*
X155000000Y-134325000D01*
X155000000Y-135075000D01*
X155000000Y-135075000D01*
G37*
G36*
X204800000Y-134850000D02*
X204300000Y-134850000D01*
X204300000Y-133950000D01*
X204800000Y-133950000D01*
X204800000Y-134850000D01*
X204800000Y-134850000D01*
G37*
G36*
X203300000Y-134850000D02*
X202800000Y-134850000D01*
X202800000Y-133950000D01*
X203300000Y-133950000D01*
X203300000Y-134850000D01*
X203300000Y-134850000D01*
G37*
G36*
X207900000Y-134800000D02*
X207100000Y-134800000D01*
X207100000Y-134000000D01*
X207900000Y-134000000D01*
X207900000Y-134800000D01*
X207900000Y-134800000D01*
G37*
G36*
X206300000Y-134800000D02*
X205500000Y-134800000D01*
X205500000Y-134000000D01*
X206300000Y-134000000D01*
X206300000Y-134800000D01*
X206300000Y-134800000D01*
G37*
G36*
X154698014Y-131657234D02*
X154792267Y-131685825D01*
X154833063Y-131707631D01*
X154879129Y-131732254D01*
X154955264Y-131794736D01*
X154955265Y-131794738D01*
X154955267Y-131794739D01*
X155002125Y-131851837D01*
X155017746Y-131870871D01*
X155039357Y-131911303D01*
X155064175Y-131957732D01*
X155092766Y-132051985D01*
X155100000Y-132125436D01*
X155100000Y-132874564D01*
X155092766Y-132948015D01*
X155064175Y-133042268D01*
X155039357Y-133088697D01*
X155017746Y-133129129D01*
X154955264Y-133205264D01*
X154879129Y-133267746D01*
X154838697Y-133289357D01*
X154792268Y-133314175D01*
X154698015Y-133342766D01*
X154600000Y-133352419D01*
X154501986Y-133342766D01*
X154407733Y-133314175D01*
X154361304Y-133289357D01*
X154320872Y-133267746D01*
X154244737Y-133205264D01*
X154182255Y-133129129D01*
X154168389Y-133103188D01*
X154135824Y-133042265D01*
X154107234Y-132948015D01*
X154100000Y-132874564D01*
X154100000Y-132125437D01*
X154107234Y-132051986D01*
X154135825Y-131957733D01*
X154157631Y-131916937D01*
X154182254Y-131870871D01*
X154244736Y-131794736D01*
X154244738Y-131794735D01*
X154244739Y-131794733D01*
X154320870Y-131732255D01*
X154320869Y-131732255D01*
X154320871Y-131732254D01*
X154361303Y-131710643D01*
X154407732Y-131685825D01*
X154501985Y-131657234D01*
X154600000Y-131647581D01*
X154698014Y-131657234D01*
X154698014Y-131657234D01*
G37*
G36*
X153198014Y-131657234D02*
X153292267Y-131685825D01*
X153333063Y-131707631D01*
X153379129Y-131732254D01*
X153455264Y-131794736D01*
X153455265Y-131794738D01*
X153455267Y-131794739D01*
X153502125Y-131851837D01*
X153517746Y-131870871D01*
X153539357Y-131911303D01*
X153564175Y-131957732D01*
X153592766Y-132051985D01*
X153600000Y-132125436D01*
X153600000Y-132874564D01*
X153592766Y-132948015D01*
X153564175Y-133042268D01*
X153539357Y-133088697D01*
X153517746Y-133129129D01*
X153455264Y-133205264D01*
X153379129Y-133267746D01*
X153338697Y-133289357D01*
X153292268Y-133314175D01*
X153198015Y-133342766D01*
X153100000Y-133352419D01*
X153001986Y-133342766D01*
X152907733Y-133314175D01*
X152861304Y-133289357D01*
X152820872Y-133267746D01*
X152744737Y-133205264D01*
X152682255Y-133129129D01*
X152668389Y-133103188D01*
X152635824Y-133042265D01*
X152607234Y-132948015D01*
X152600000Y-132874564D01*
X152600000Y-132125437D01*
X152607234Y-132051986D01*
X152635825Y-131957733D01*
X152657631Y-131916937D01*
X152682254Y-131870871D01*
X152744736Y-131794736D01*
X152744738Y-131794735D01*
X152744739Y-131794733D01*
X152820870Y-131732255D01*
X152820869Y-131732255D01*
X152820871Y-131732254D01*
X152861303Y-131710643D01*
X152907732Y-131685825D01*
X153001985Y-131657234D01*
X153100000Y-131647581D01*
X153198014Y-131657234D01*
X153198014Y-131657234D01*
G37*
G36*
X157698014Y-131657234D02*
X157792267Y-131685825D01*
X157833063Y-131707631D01*
X157879129Y-131732254D01*
X157955264Y-131794736D01*
X157955265Y-131794738D01*
X157955267Y-131794739D01*
X158002125Y-131851837D01*
X158017746Y-131870871D01*
X158039357Y-131911303D01*
X158064175Y-131957732D01*
X158092766Y-132051985D01*
X158100000Y-132125436D01*
X158100000Y-132874564D01*
X158092766Y-132948015D01*
X158064175Y-133042268D01*
X158039357Y-133088697D01*
X158017746Y-133129129D01*
X157955264Y-133205264D01*
X157879129Y-133267746D01*
X157838697Y-133289357D01*
X157792268Y-133314175D01*
X157698015Y-133342766D01*
X157600000Y-133352419D01*
X157501986Y-133342766D01*
X157407733Y-133314175D01*
X157361304Y-133289357D01*
X157320872Y-133267746D01*
X157244737Y-133205264D01*
X157182255Y-133129129D01*
X157168389Y-133103188D01*
X157135824Y-133042265D01*
X157107234Y-132948015D01*
X157100000Y-132874564D01*
X157100000Y-132125437D01*
X157107234Y-132051986D01*
X157135825Y-131957733D01*
X157157631Y-131916937D01*
X157182254Y-131870871D01*
X157244736Y-131794736D01*
X157244738Y-131794735D01*
X157244739Y-131794733D01*
X157320870Y-131732255D01*
X157320869Y-131732255D01*
X157320871Y-131732254D01*
X157361303Y-131710643D01*
X157407732Y-131685825D01*
X157501985Y-131657234D01*
X157600000Y-131647581D01*
X157698014Y-131657234D01*
X157698014Y-131657234D01*
G37*
G36*
X159198014Y-131657234D02*
X159292267Y-131685825D01*
X159333063Y-131707631D01*
X159379129Y-131732254D01*
X159455264Y-131794736D01*
X159455265Y-131794738D01*
X159455267Y-131794739D01*
X159502125Y-131851837D01*
X159517746Y-131870871D01*
X159539357Y-131911303D01*
X159564175Y-131957732D01*
X159592766Y-132051985D01*
X159600000Y-132125436D01*
X159600000Y-132874564D01*
X159592766Y-132948015D01*
X159564175Y-133042268D01*
X159539357Y-133088697D01*
X159517746Y-133129129D01*
X159455264Y-133205264D01*
X159379129Y-133267746D01*
X159338697Y-133289357D01*
X159292268Y-133314175D01*
X159198015Y-133342766D01*
X159100000Y-133352419D01*
X159001986Y-133342766D01*
X158907733Y-133314175D01*
X158861304Y-133289357D01*
X158820872Y-133267746D01*
X158744737Y-133205264D01*
X158682255Y-133129129D01*
X158668389Y-133103188D01*
X158635824Y-133042265D01*
X158607234Y-132948015D01*
X158600000Y-132874564D01*
X158600000Y-132125437D01*
X158607234Y-132051986D01*
X158635825Y-131957733D01*
X158657631Y-131916937D01*
X158682254Y-131870871D01*
X158744736Y-131794736D01*
X158744738Y-131794735D01*
X158744739Y-131794733D01*
X158820870Y-131732255D01*
X158820869Y-131732255D01*
X158820871Y-131732254D01*
X158861303Y-131710643D01*
X158907732Y-131685825D01*
X159001985Y-131657234D01*
X159100000Y-131647581D01*
X159198014Y-131657234D01*
X159198014Y-131657234D01*
G37*
G36*
X163698014Y-131657234D02*
X163792267Y-131685825D01*
X163833063Y-131707631D01*
X163879129Y-131732254D01*
X163955264Y-131794736D01*
X163955265Y-131794738D01*
X163955267Y-131794739D01*
X164002125Y-131851837D01*
X164017746Y-131870871D01*
X164039357Y-131911303D01*
X164064175Y-131957732D01*
X164092766Y-132051985D01*
X164100000Y-132125436D01*
X164100000Y-132874564D01*
X164092766Y-132948015D01*
X164064175Y-133042268D01*
X164039357Y-133088697D01*
X164017746Y-133129129D01*
X163955264Y-133205264D01*
X163879129Y-133267746D01*
X163838697Y-133289357D01*
X163792268Y-133314175D01*
X163698015Y-133342766D01*
X163600000Y-133352419D01*
X163501986Y-133342766D01*
X163407733Y-133314175D01*
X163361304Y-133289357D01*
X163320872Y-133267746D01*
X163244737Y-133205264D01*
X163182255Y-133129129D01*
X163168389Y-133103188D01*
X163135824Y-133042265D01*
X163107234Y-132948015D01*
X163100000Y-132874564D01*
X163100000Y-132125437D01*
X163107234Y-132051986D01*
X163135825Y-131957733D01*
X163157631Y-131916937D01*
X163182254Y-131870871D01*
X163244736Y-131794736D01*
X163244738Y-131794735D01*
X163244739Y-131794733D01*
X163320870Y-131732255D01*
X163320869Y-131732255D01*
X163320871Y-131732254D01*
X163361303Y-131710643D01*
X163407732Y-131685825D01*
X163501985Y-131657234D01*
X163600000Y-131647581D01*
X163698014Y-131657234D01*
X163698014Y-131657234D01*
G37*
G36*
X162198014Y-131657234D02*
X162292267Y-131685825D01*
X162333063Y-131707631D01*
X162379129Y-131732254D01*
X162455264Y-131794736D01*
X162455265Y-131794738D01*
X162455267Y-131794739D01*
X162502125Y-131851837D01*
X162517746Y-131870871D01*
X162539357Y-131911303D01*
X162564175Y-131957732D01*
X162592766Y-132051985D01*
X162600000Y-132125436D01*
X162600000Y-132874564D01*
X162592766Y-132948015D01*
X162564175Y-133042268D01*
X162539357Y-133088697D01*
X162517746Y-133129129D01*
X162455264Y-133205264D01*
X162379129Y-133267746D01*
X162338697Y-133289357D01*
X162292268Y-133314175D01*
X162198015Y-133342766D01*
X162100000Y-133352419D01*
X162001986Y-133342766D01*
X161907733Y-133314175D01*
X161861304Y-133289357D01*
X161820872Y-133267746D01*
X161744737Y-133205264D01*
X161682255Y-133129129D01*
X161668389Y-133103188D01*
X161635824Y-133042265D01*
X161607234Y-132948015D01*
X161600000Y-132874564D01*
X161600000Y-132125437D01*
X161607234Y-132051986D01*
X161635825Y-131957733D01*
X161657631Y-131916937D01*
X161682254Y-131870871D01*
X161744736Y-131794736D01*
X161744738Y-131794735D01*
X161744739Y-131794733D01*
X161820870Y-131732255D01*
X161820869Y-131732255D01*
X161820871Y-131732254D01*
X161861303Y-131710643D01*
X161907732Y-131685825D01*
X162001985Y-131657234D01*
X162100000Y-131647581D01*
X162198014Y-131657234D01*
X162198014Y-131657234D01*
G37*
G36*
X156198014Y-131657234D02*
X156292267Y-131685825D01*
X156333063Y-131707631D01*
X156379129Y-131732254D01*
X156455264Y-131794736D01*
X156455265Y-131794738D01*
X156455267Y-131794739D01*
X156502125Y-131851837D01*
X156517746Y-131870871D01*
X156539357Y-131911303D01*
X156564175Y-131957732D01*
X156592766Y-132051985D01*
X156600000Y-132125436D01*
X156600000Y-132874564D01*
X156592766Y-132948015D01*
X156564175Y-133042268D01*
X156539357Y-133088697D01*
X156517746Y-133129129D01*
X156455264Y-133205264D01*
X156379129Y-133267746D01*
X156338697Y-133289357D01*
X156292268Y-133314175D01*
X156198015Y-133342766D01*
X156100000Y-133352419D01*
X156001986Y-133342766D01*
X155907733Y-133314175D01*
X155861304Y-133289357D01*
X155820872Y-133267746D01*
X155744737Y-133205264D01*
X155682255Y-133129129D01*
X155668389Y-133103188D01*
X155635824Y-133042265D01*
X155607234Y-132948015D01*
X155600000Y-132874564D01*
X155600000Y-132125437D01*
X155607234Y-132051986D01*
X155635825Y-131957733D01*
X155657631Y-131916937D01*
X155682254Y-131870871D01*
X155744736Y-131794736D01*
X155744738Y-131794735D01*
X155744739Y-131794733D01*
X155820870Y-131732255D01*
X155820869Y-131732255D01*
X155820871Y-131732254D01*
X155861303Y-131710643D01*
X155907732Y-131685825D01*
X156001985Y-131657234D01*
X156100000Y-131647581D01*
X156198014Y-131657234D01*
X156198014Y-131657234D01*
G37*
G36*
X160698014Y-131657234D02*
X160792267Y-131685825D01*
X160833063Y-131707631D01*
X160879129Y-131732254D01*
X160955264Y-131794736D01*
X160955265Y-131794738D01*
X160955267Y-131794739D01*
X161002125Y-131851837D01*
X161017746Y-131870871D01*
X161039357Y-131911303D01*
X161064175Y-131957732D01*
X161092766Y-132051985D01*
X161100000Y-132125436D01*
X161100000Y-132874564D01*
X161092766Y-132948015D01*
X161064175Y-133042268D01*
X161039357Y-133088697D01*
X161017746Y-133129129D01*
X160955264Y-133205264D01*
X160879129Y-133267746D01*
X160838697Y-133289357D01*
X160792268Y-133314175D01*
X160698015Y-133342766D01*
X160600000Y-133352419D01*
X160501986Y-133342766D01*
X160407733Y-133314175D01*
X160361304Y-133289357D01*
X160320872Y-133267746D01*
X160244737Y-133205264D01*
X160182255Y-133129129D01*
X160168389Y-133103188D01*
X160135824Y-133042265D01*
X160107234Y-132948015D01*
X160100000Y-132874564D01*
X160100000Y-132125437D01*
X160107234Y-132051986D01*
X160135825Y-131957733D01*
X160157631Y-131916937D01*
X160182254Y-131870871D01*
X160244736Y-131794736D01*
X160244738Y-131794735D01*
X160244739Y-131794733D01*
X160320870Y-131732255D01*
X160320869Y-131732255D01*
X160320871Y-131732254D01*
X160361303Y-131710643D01*
X160407732Y-131685825D01*
X160501985Y-131657234D01*
X160600000Y-131647581D01*
X160698014Y-131657234D01*
X160698014Y-131657234D01*
G37*
G36*
X187295000Y-132300000D02*
X185745000Y-132300000D01*
X185745000Y-131000000D01*
X187295000Y-131000000D01*
X187295000Y-132300000D01*
X187295000Y-132300000D01*
G37*
G36*
X195255000Y-132300000D02*
X193705000Y-132300000D01*
X193705000Y-131000000D01*
X195255000Y-131000000D01*
X195255000Y-132300000D01*
X195255000Y-132300000D01*
G37*
G36*
X202400000Y-130850000D02*
X201900000Y-130850000D01*
X201900000Y-129950000D01*
X202400000Y-129950000D01*
X202400000Y-130850000D01*
X202400000Y-130850000D01*
G37*
G36*
X203900000Y-130850000D02*
X203400000Y-130850000D01*
X203400000Y-129950000D01*
X203900000Y-129950000D01*
X203900000Y-130850000D01*
X203900000Y-130850000D01*
G37*
G36*
X165548015Y-129807234D02*
X165642268Y-129835825D01*
X165688697Y-129860643D01*
X165729129Y-129882254D01*
X165729131Y-129882255D01*
X165729130Y-129882255D01*
X165805264Y-129944736D01*
X165867745Y-130020870D01*
X165914175Y-130107732D01*
X165942766Y-130201985D01*
X165952419Y-130300000D01*
X165942766Y-130398015D01*
X165914175Y-130492268D01*
X165889357Y-130538697D01*
X165867746Y-130579129D01*
X165805264Y-130655264D01*
X165729129Y-130717746D01*
X165688697Y-130739357D01*
X165642268Y-130764175D01*
X165548015Y-130792766D01*
X165474564Y-130800000D01*
X164725436Y-130800000D01*
X164651985Y-130792766D01*
X164557732Y-130764175D01*
X164511303Y-130739357D01*
X164470871Y-130717746D01*
X164394736Y-130655264D01*
X164332254Y-130579129D01*
X164310643Y-130538697D01*
X164285825Y-130492268D01*
X164257234Y-130398015D01*
X164247581Y-130300000D01*
X164257234Y-130201985D01*
X164285825Y-130107732D01*
X164332255Y-130020870D01*
X164394736Y-129944736D01*
X164470870Y-129882255D01*
X164470869Y-129882255D01*
X164470871Y-129882254D01*
X164511303Y-129860643D01*
X164557732Y-129835825D01*
X164651985Y-129807234D01*
X164725436Y-129800000D01*
X165474564Y-129800000D01*
X165548015Y-129807234D01*
X165548015Y-129807234D01*
G37*
G36*
X165548015Y-128307234D02*
X165642268Y-128335825D01*
X165688697Y-128360643D01*
X165729129Y-128382254D01*
X165729131Y-128382255D01*
X165729130Y-128382255D01*
X165805264Y-128444736D01*
X165867745Y-128520870D01*
X165914175Y-128607732D01*
X165942766Y-128701985D01*
X165952419Y-128800000D01*
X165942766Y-128898015D01*
X165914175Y-128992268D01*
X165889357Y-129038697D01*
X165867746Y-129079129D01*
X165805264Y-129155264D01*
X165729129Y-129217746D01*
X165688697Y-129239357D01*
X165642268Y-129264175D01*
X165548015Y-129292766D01*
X165474564Y-129300000D01*
X164725436Y-129300000D01*
X164651985Y-129292766D01*
X164557732Y-129264175D01*
X164511303Y-129239357D01*
X164470871Y-129217746D01*
X164394736Y-129155264D01*
X164332254Y-129079129D01*
X164310643Y-129038697D01*
X164285825Y-128992268D01*
X164257234Y-128898015D01*
X164247581Y-128800000D01*
X164257234Y-128701985D01*
X164285825Y-128607732D01*
X164332255Y-128520870D01*
X164394736Y-128444736D01*
X164470870Y-128382255D01*
X164470869Y-128382255D01*
X164470871Y-128382254D01*
X164511303Y-128360643D01*
X164557732Y-128335825D01*
X164651985Y-128307234D01*
X164725436Y-128300000D01*
X165474564Y-128300000D01*
X165548015Y-128307234D01*
X165548015Y-128307234D01*
G37*
G36*
X203900000Y-129050000D02*
X203400000Y-129050000D01*
X203400000Y-128150000D01*
X203900000Y-128150000D01*
X203900000Y-129050000D01*
X203900000Y-129050000D01*
G37*
G36*
X202400000Y-129050000D02*
X201900000Y-129050000D01*
X201900000Y-128150000D01*
X202400000Y-128150000D01*
X202400000Y-129050000D01*
X202400000Y-129050000D01*
G37*
G36*
X197990000Y-127905000D02*
X197290000Y-127905000D01*
X197290000Y-127395000D01*
X197990000Y-127395000D01*
X197990000Y-127905000D01*
X197990000Y-127905000D01*
G37*
G36*
X200310000Y-127905000D02*
X199610000Y-127905000D01*
X199610000Y-127395000D01*
X200310000Y-127395000D01*
X200310000Y-127905000D01*
X200310000Y-127905000D01*
G37*
G36*
X165548015Y-126807234D02*
X165642268Y-126835825D01*
X165688697Y-126860643D01*
X165729129Y-126882254D01*
X165729131Y-126882255D01*
X165729130Y-126882255D01*
X165805264Y-126944736D01*
X165867745Y-127020870D01*
X165914175Y-127107732D01*
X165942766Y-127201985D01*
X165952419Y-127300000D01*
X165942766Y-127398015D01*
X165914175Y-127492268D01*
X165889357Y-127538697D01*
X165867746Y-127579129D01*
X165805264Y-127655264D01*
X165729129Y-127717746D01*
X165688697Y-127739357D01*
X165642268Y-127764175D01*
X165548015Y-127792766D01*
X165474564Y-127800000D01*
X164725436Y-127800000D01*
X164651985Y-127792766D01*
X164557732Y-127764175D01*
X164511303Y-127739357D01*
X164470871Y-127717746D01*
X164394736Y-127655264D01*
X164332254Y-127579129D01*
X164310643Y-127538697D01*
X164285825Y-127492268D01*
X164257234Y-127398015D01*
X164247581Y-127300000D01*
X164257234Y-127201985D01*
X164285825Y-127107732D01*
X164332255Y-127020870D01*
X164394736Y-126944736D01*
X164470870Y-126882255D01*
X164470869Y-126882255D01*
X164470871Y-126882254D01*
X164511303Y-126860643D01*
X164557732Y-126835825D01*
X164651985Y-126807234D01*
X164725436Y-126800000D01*
X165474564Y-126800000D01*
X165548015Y-126807234D01*
X165548015Y-126807234D01*
G37*
G36*
X204300000Y-127325000D02*
X203300000Y-127325000D01*
X203300000Y-126075000D01*
X204300000Y-126075000D01*
X204300000Y-127325000D01*
X204300000Y-127325000D01*
G37*
G36*
X202300000Y-127325000D02*
X201300000Y-127325000D01*
X201300000Y-126075000D01*
X202300000Y-126075000D01*
X202300000Y-127325000D01*
X202300000Y-127325000D01*
G37*
G36*
X200310000Y-126955000D02*
X199610000Y-126955000D01*
X199610000Y-126445000D01*
X200310000Y-126445000D01*
X200310000Y-126955000D01*
X200310000Y-126955000D01*
G37*
G36*
X197990000Y-126955000D02*
X197290000Y-126955000D01*
X197290000Y-126445000D01*
X197990000Y-126445000D01*
X197990000Y-126955000D01*
X197990000Y-126955000D01*
G37*
G36*
X195255000Y-126900000D02*
X193705000Y-126900000D01*
X193705000Y-125600000D01*
X195255000Y-125600000D01*
X195255000Y-126900000D01*
X195255000Y-126900000D01*
G37*
G36*
X187295000Y-126900000D02*
X185745000Y-126900000D01*
X185745000Y-125600000D01*
X187295000Y-125600000D01*
X187295000Y-126900000D01*
X187295000Y-126900000D01*
G37*
G36*
X165548015Y-125307234D02*
X165642268Y-125335825D01*
X165688697Y-125360643D01*
X165729129Y-125382254D01*
X165729131Y-125382255D01*
X165729130Y-125382255D01*
X165805264Y-125444736D01*
X165867745Y-125520870D01*
X165914175Y-125607732D01*
X165942766Y-125701985D01*
X165952419Y-125800000D01*
X165942766Y-125898015D01*
X165914175Y-125992268D01*
X165907369Y-126005000D01*
X165867746Y-126079129D01*
X165805264Y-126155264D01*
X165729129Y-126217746D01*
X165688697Y-126239357D01*
X165642268Y-126264175D01*
X165548015Y-126292766D01*
X165474564Y-126300000D01*
X164725436Y-126300000D01*
X164651985Y-126292766D01*
X164557732Y-126264175D01*
X164511303Y-126239357D01*
X164470871Y-126217746D01*
X164394736Y-126155264D01*
X164332254Y-126079129D01*
X164292631Y-126005000D01*
X164285825Y-125992268D01*
X164257234Y-125898015D01*
X164247581Y-125800000D01*
X164257234Y-125701985D01*
X164285825Y-125607732D01*
X164332255Y-125520870D01*
X164394736Y-125444736D01*
X164470870Y-125382255D01*
X164470869Y-125382255D01*
X164470871Y-125382254D01*
X164511303Y-125360643D01*
X164557732Y-125335825D01*
X164651985Y-125307234D01*
X164725436Y-125300000D01*
X165474564Y-125300000D01*
X165548015Y-125307234D01*
X165548015Y-125307234D01*
G37*
G36*
X197990000Y-126005000D02*
X197290000Y-126005000D01*
X197290000Y-125495000D01*
X197990000Y-125495000D01*
X197990000Y-126005000D01*
X197990000Y-126005000D01*
G37*
G36*
X200310000Y-126005000D02*
X199610000Y-126005000D01*
X199610000Y-125495000D01*
X200310000Y-125495000D01*
X200310000Y-126005000D01*
X200310000Y-126005000D01*
G37*
G36*
X165548015Y-123807234D02*
X165642268Y-123835825D01*
X165688697Y-123860643D01*
X165729129Y-123882254D01*
X165729131Y-123882255D01*
X165729130Y-123882255D01*
X165805264Y-123944736D01*
X165867745Y-124020870D01*
X165914175Y-124107732D01*
X165942766Y-124201985D01*
X165952419Y-124300000D01*
X165942766Y-124398015D01*
X165914175Y-124492268D01*
X165889357Y-124538697D01*
X165867746Y-124579129D01*
X165805264Y-124655264D01*
X165729129Y-124717746D01*
X165688697Y-124739357D01*
X165642268Y-124764175D01*
X165548015Y-124792766D01*
X165474564Y-124800000D01*
X164725436Y-124800000D01*
X164651985Y-124792766D01*
X164557732Y-124764175D01*
X164511303Y-124739357D01*
X164470871Y-124717746D01*
X164394736Y-124655264D01*
X164332254Y-124579129D01*
X164310643Y-124538697D01*
X164285825Y-124492268D01*
X164257234Y-124398015D01*
X164247581Y-124300000D01*
X164257234Y-124201985D01*
X164285825Y-124107732D01*
X164332255Y-124020870D01*
X164394736Y-123944736D01*
X164470870Y-123882255D01*
X164470869Y-123882255D01*
X164470871Y-123882254D01*
X164511303Y-123860643D01*
X164557732Y-123835825D01*
X164651985Y-123807234D01*
X164725436Y-123800000D01*
X165474564Y-123800000D01*
X165548015Y-123807234D01*
X165548015Y-123807234D01*
G37*
G36*
X200200000Y-124350000D02*
X199700000Y-124350000D01*
X199700000Y-123450000D01*
X200200000Y-123450000D01*
X200200000Y-124350000D01*
X200200000Y-124350000D01*
G37*
G36*
X198700000Y-124350000D02*
X198200000Y-124350000D01*
X198200000Y-123450000D01*
X198700000Y-123450000D01*
X198700000Y-124350000D01*
X198700000Y-124350000D01*
G37*
G36*
X165548015Y-122307234D02*
X165642268Y-122335825D01*
X165688697Y-122360643D01*
X165729129Y-122382254D01*
X165729131Y-122382255D01*
X165729130Y-122382255D01*
X165805264Y-122444736D01*
X165867745Y-122520870D01*
X165914175Y-122607732D01*
X165942766Y-122701985D01*
X165952419Y-122800000D01*
X165942766Y-122898015D01*
X165914175Y-122992268D01*
X165889357Y-123038697D01*
X165867746Y-123079129D01*
X165805264Y-123155264D01*
X165729129Y-123217746D01*
X165688697Y-123239357D01*
X165642268Y-123264175D01*
X165548015Y-123292766D01*
X165474564Y-123300000D01*
X164725436Y-123300000D01*
X164651985Y-123292766D01*
X164557732Y-123264175D01*
X164511303Y-123239357D01*
X164470871Y-123217746D01*
X164394736Y-123155264D01*
X164332254Y-123079129D01*
X164310643Y-123038697D01*
X164285825Y-122992268D01*
X164257234Y-122898015D01*
X164247581Y-122800000D01*
X164257234Y-122701985D01*
X164285825Y-122607732D01*
X164332255Y-122520870D01*
X164394736Y-122444736D01*
X164470870Y-122382255D01*
X164470869Y-122382255D01*
X164470871Y-122382254D01*
X164511303Y-122360643D01*
X164557732Y-122335825D01*
X164651985Y-122307234D01*
X164725436Y-122300000D01*
X165474564Y-122300000D01*
X165548015Y-122307234D01*
X165548015Y-122307234D01*
G37*
G36*
X195255000Y-122400000D02*
X193705000Y-122400000D01*
X193705000Y-121100000D01*
X195255000Y-121100000D01*
X195255000Y-122400000D01*
X195255000Y-122400000D01*
G37*
G36*
X187295000Y-122400000D02*
X185745000Y-122400000D01*
X185745000Y-121100000D01*
X187295000Y-121100000D01*
X187295000Y-122400000D01*
X187295000Y-122400000D01*
G37*
G36*
X165548015Y-120807234D02*
X165642268Y-120835825D01*
X165688697Y-120860643D01*
X165729129Y-120882254D01*
X165729131Y-120882255D01*
X165729130Y-120882255D01*
X165805264Y-120944736D01*
X165867745Y-121020870D01*
X165914175Y-121107732D01*
X165942766Y-121201985D01*
X165952419Y-121300000D01*
X165942766Y-121398015D01*
X165914175Y-121492268D01*
X165889357Y-121538697D01*
X165867746Y-121579129D01*
X165805264Y-121655264D01*
X165729129Y-121717746D01*
X165688697Y-121739357D01*
X165642268Y-121764175D01*
X165548015Y-121792766D01*
X165474564Y-121800000D01*
X164725436Y-121800000D01*
X164651985Y-121792766D01*
X164557732Y-121764175D01*
X164511303Y-121739357D01*
X164470871Y-121717746D01*
X164394736Y-121655264D01*
X164332254Y-121579129D01*
X164310643Y-121538697D01*
X164285825Y-121492268D01*
X164257234Y-121398015D01*
X164247581Y-121300000D01*
X164257234Y-121201985D01*
X164285825Y-121107732D01*
X164332255Y-121020870D01*
X164394736Y-120944736D01*
X164470870Y-120882255D01*
X164470869Y-120882255D01*
X164470871Y-120882254D01*
X164511303Y-120860643D01*
X164557732Y-120835825D01*
X164651985Y-120807234D01*
X164725436Y-120800000D01*
X165474564Y-120800000D01*
X165548015Y-120807234D01*
X165548015Y-120807234D01*
G37*
G36*
X165548015Y-119307234D02*
X165642268Y-119335825D01*
X165688697Y-119360643D01*
X165729129Y-119382254D01*
X165729131Y-119382255D01*
X165729130Y-119382255D01*
X165805264Y-119444736D01*
X165867745Y-119520870D01*
X165914175Y-119607732D01*
X165942766Y-119701985D01*
X165952419Y-119800000D01*
X165942766Y-119898015D01*
X165914175Y-119992268D01*
X165889357Y-120038697D01*
X165867746Y-120079129D01*
X165805264Y-120155264D01*
X165729129Y-120217746D01*
X165688697Y-120239357D01*
X165642268Y-120264175D01*
X165548015Y-120292766D01*
X165474564Y-120300000D01*
X164725436Y-120300000D01*
X164651985Y-120292766D01*
X164557732Y-120264175D01*
X164511303Y-120239357D01*
X164470871Y-120217746D01*
X164394736Y-120155264D01*
X164332254Y-120079129D01*
X164310643Y-120038697D01*
X164285825Y-119992268D01*
X164257234Y-119898015D01*
X164247581Y-119800000D01*
X164257234Y-119701985D01*
X164285825Y-119607732D01*
X164332255Y-119520870D01*
X164394736Y-119444736D01*
X164470870Y-119382255D01*
X164470869Y-119382255D01*
X164470871Y-119382254D01*
X164511303Y-119360643D01*
X164557732Y-119335825D01*
X164651985Y-119307234D01*
X164725436Y-119300000D01*
X165474564Y-119300000D01*
X165548015Y-119307234D01*
X165548015Y-119307234D01*
G37*
G36*
X156198014Y-116657234D02*
X156292267Y-116685825D01*
X156333063Y-116707631D01*
X156379129Y-116732254D01*
X156455264Y-116794736D01*
X156455265Y-116794738D01*
X156455267Y-116794739D01*
X156502125Y-116851837D01*
X156517746Y-116870871D01*
X156533316Y-116900000D01*
X156564175Y-116957732D01*
X156592766Y-117051985D01*
X156600000Y-117125436D01*
X156600000Y-117874564D01*
X156592766Y-117948015D01*
X156564175Y-118042268D01*
X156539357Y-118088697D01*
X156517746Y-118129129D01*
X156455264Y-118205264D01*
X156379129Y-118267746D01*
X156338697Y-118289357D01*
X156292268Y-118314175D01*
X156198015Y-118342766D01*
X156100000Y-118352419D01*
X156001986Y-118342766D01*
X155907733Y-118314175D01*
X155861304Y-118289357D01*
X155820872Y-118267746D01*
X155744737Y-118205264D01*
X155682255Y-118129129D01*
X155668389Y-118103188D01*
X155635824Y-118042265D01*
X155607234Y-117948015D01*
X155600000Y-117874564D01*
X155600000Y-117125437D01*
X155607234Y-117051986D01*
X155635825Y-116957733D01*
X155657631Y-116916937D01*
X155682254Y-116870871D01*
X155744736Y-116794736D01*
X155744738Y-116794735D01*
X155744739Y-116794733D01*
X155820870Y-116732255D01*
X155820869Y-116732255D01*
X155820871Y-116732254D01*
X155861303Y-116710643D01*
X155907732Y-116685825D01*
X156001985Y-116657234D01*
X156100000Y-116647581D01*
X156198014Y-116657234D01*
X156198014Y-116657234D01*
G37*
G36*
X154698014Y-116657234D02*
X154792267Y-116685825D01*
X154833063Y-116707631D01*
X154879129Y-116732254D01*
X154955264Y-116794736D01*
X154955265Y-116794738D01*
X154955267Y-116794739D01*
X155002125Y-116851837D01*
X155017746Y-116870871D01*
X155033316Y-116900000D01*
X155064175Y-116957732D01*
X155092766Y-117051985D01*
X155100000Y-117125436D01*
X155100000Y-117874564D01*
X155092766Y-117948015D01*
X155064175Y-118042268D01*
X155039357Y-118088697D01*
X155017746Y-118129129D01*
X154955264Y-118205264D01*
X154879129Y-118267746D01*
X154838697Y-118289357D01*
X154792268Y-118314175D01*
X154698015Y-118342766D01*
X154600000Y-118352419D01*
X154501986Y-118342766D01*
X154407733Y-118314175D01*
X154361304Y-118289357D01*
X154320872Y-118267746D01*
X154244737Y-118205264D01*
X154182255Y-118129129D01*
X154168389Y-118103188D01*
X154135824Y-118042265D01*
X154107234Y-117948015D01*
X154100000Y-117874564D01*
X154100000Y-117125437D01*
X154107234Y-117051986D01*
X154135825Y-116957733D01*
X154157631Y-116916937D01*
X154182254Y-116870871D01*
X154244736Y-116794736D01*
X154244738Y-116794735D01*
X154244739Y-116794733D01*
X154320870Y-116732255D01*
X154320869Y-116732255D01*
X154320871Y-116732254D01*
X154361303Y-116710643D01*
X154407732Y-116685825D01*
X154501985Y-116657234D01*
X154600000Y-116647581D01*
X154698014Y-116657234D01*
X154698014Y-116657234D01*
G37*
G36*
X157698014Y-116657234D02*
X157792267Y-116685825D01*
X157833063Y-116707631D01*
X157879129Y-116732254D01*
X157955264Y-116794736D01*
X157955265Y-116794738D01*
X157955267Y-116794739D01*
X158002125Y-116851837D01*
X158017746Y-116870871D01*
X158033316Y-116900000D01*
X158064175Y-116957732D01*
X158092766Y-117051985D01*
X158100000Y-117125436D01*
X158100000Y-117874564D01*
X158092766Y-117948015D01*
X158064175Y-118042268D01*
X158039357Y-118088697D01*
X158017746Y-118129129D01*
X157955264Y-118205264D01*
X157879129Y-118267746D01*
X157838697Y-118289357D01*
X157792268Y-118314175D01*
X157698015Y-118342766D01*
X157600000Y-118352419D01*
X157501986Y-118342766D01*
X157407733Y-118314175D01*
X157361304Y-118289357D01*
X157320872Y-118267746D01*
X157244737Y-118205264D01*
X157182255Y-118129129D01*
X157168389Y-118103188D01*
X157135824Y-118042265D01*
X157107234Y-117948015D01*
X157100000Y-117874564D01*
X157100000Y-117125437D01*
X157107234Y-117051986D01*
X157135825Y-116957733D01*
X157157631Y-116916937D01*
X157182254Y-116870871D01*
X157244736Y-116794736D01*
X157244738Y-116794735D01*
X157244739Y-116794733D01*
X157320870Y-116732255D01*
X157320869Y-116732255D01*
X157320871Y-116732254D01*
X157361303Y-116710643D01*
X157407732Y-116685825D01*
X157501985Y-116657234D01*
X157600000Y-116647581D01*
X157698014Y-116657234D01*
X157698014Y-116657234D01*
G37*
G36*
X159198014Y-116657234D02*
X159292267Y-116685825D01*
X159333063Y-116707631D01*
X159379129Y-116732254D01*
X159455264Y-116794736D01*
X159455265Y-116794738D01*
X159455267Y-116794739D01*
X159502125Y-116851837D01*
X159517746Y-116870871D01*
X159533316Y-116900000D01*
X159564175Y-116957732D01*
X159592766Y-117051985D01*
X159600000Y-117125436D01*
X159600000Y-117874564D01*
X159592766Y-117948015D01*
X159564175Y-118042268D01*
X159539357Y-118088697D01*
X159517746Y-118129129D01*
X159455264Y-118205264D01*
X159379129Y-118267746D01*
X159338697Y-118289357D01*
X159292268Y-118314175D01*
X159198015Y-118342766D01*
X159100000Y-118352419D01*
X159001986Y-118342766D01*
X158907733Y-118314175D01*
X158861304Y-118289357D01*
X158820872Y-118267746D01*
X158744737Y-118205264D01*
X158682255Y-118129129D01*
X158668389Y-118103188D01*
X158635824Y-118042265D01*
X158607234Y-117948015D01*
X158600000Y-117874564D01*
X158600000Y-117125437D01*
X158607234Y-117051986D01*
X158635825Y-116957733D01*
X158657631Y-116916937D01*
X158682254Y-116870871D01*
X158744736Y-116794736D01*
X158744738Y-116794735D01*
X158744739Y-116794733D01*
X158820870Y-116732255D01*
X158820869Y-116732255D01*
X158820871Y-116732254D01*
X158861303Y-116710643D01*
X158907732Y-116685825D01*
X159001985Y-116657234D01*
X159100000Y-116647581D01*
X159198014Y-116657234D01*
X159198014Y-116657234D01*
G37*
G36*
X160698014Y-116657234D02*
X160792267Y-116685825D01*
X160833063Y-116707631D01*
X160879129Y-116732254D01*
X160955264Y-116794736D01*
X160955265Y-116794738D01*
X160955267Y-116794739D01*
X161002125Y-116851837D01*
X161017746Y-116870871D01*
X161033316Y-116900000D01*
X161064175Y-116957732D01*
X161092766Y-117051985D01*
X161100000Y-117125436D01*
X161100000Y-117874564D01*
X161092766Y-117948015D01*
X161064175Y-118042268D01*
X161039357Y-118088697D01*
X161017746Y-118129129D01*
X160955264Y-118205264D01*
X160879129Y-118267746D01*
X160838697Y-118289357D01*
X160792268Y-118314175D01*
X160698015Y-118342766D01*
X160600000Y-118352419D01*
X160501986Y-118342766D01*
X160407733Y-118314175D01*
X160361304Y-118289357D01*
X160320872Y-118267746D01*
X160244737Y-118205264D01*
X160182255Y-118129129D01*
X160168389Y-118103188D01*
X160135824Y-118042265D01*
X160107234Y-117948015D01*
X160100000Y-117874564D01*
X160100000Y-117125437D01*
X160107234Y-117051986D01*
X160135825Y-116957733D01*
X160157631Y-116916937D01*
X160182254Y-116870871D01*
X160244736Y-116794736D01*
X160244738Y-116794735D01*
X160244739Y-116794733D01*
X160320870Y-116732255D01*
X160320869Y-116732255D01*
X160320871Y-116732254D01*
X160361303Y-116710643D01*
X160407732Y-116685825D01*
X160501985Y-116657234D01*
X160600000Y-116647581D01*
X160698014Y-116657234D01*
X160698014Y-116657234D01*
G37*
G36*
X153198014Y-116657234D02*
X153292267Y-116685825D01*
X153333063Y-116707631D01*
X153379129Y-116732254D01*
X153455264Y-116794736D01*
X153455265Y-116794738D01*
X153455267Y-116794739D01*
X153502125Y-116851837D01*
X153517746Y-116870871D01*
X153533316Y-116900000D01*
X153564175Y-116957732D01*
X153592766Y-117051985D01*
X153600000Y-117125436D01*
X153600000Y-117874564D01*
X153592766Y-117948015D01*
X153564175Y-118042268D01*
X153539357Y-118088697D01*
X153517746Y-118129129D01*
X153455264Y-118205264D01*
X153379129Y-118267746D01*
X153338697Y-118289357D01*
X153292268Y-118314175D01*
X153198015Y-118342766D01*
X153100000Y-118352419D01*
X153001986Y-118342766D01*
X152907733Y-118314175D01*
X152861304Y-118289357D01*
X152820872Y-118267746D01*
X152744737Y-118205264D01*
X152682255Y-118129129D01*
X152668389Y-118103188D01*
X152635824Y-118042265D01*
X152607234Y-117948015D01*
X152600000Y-117874564D01*
X152600000Y-117125437D01*
X152607234Y-117051986D01*
X152635825Y-116957733D01*
X152657631Y-116916937D01*
X152682254Y-116870871D01*
X152744736Y-116794736D01*
X152744738Y-116794735D01*
X152744739Y-116794733D01*
X152820870Y-116732255D01*
X152820869Y-116732255D01*
X152820871Y-116732254D01*
X152861303Y-116710643D01*
X152907732Y-116685825D01*
X153001985Y-116657234D01*
X153100000Y-116647581D01*
X153198014Y-116657234D01*
X153198014Y-116657234D01*
G37*
G36*
X163698014Y-116657234D02*
X163792267Y-116685825D01*
X163833063Y-116707631D01*
X163879129Y-116732254D01*
X163955264Y-116794736D01*
X163955265Y-116794738D01*
X163955267Y-116794739D01*
X164002125Y-116851837D01*
X164017746Y-116870871D01*
X164033316Y-116900000D01*
X164064175Y-116957732D01*
X164092766Y-117051985D01*
X164100000Y-117125436D01*
X164100000Y-117874564D01*
X164092766Y-117948015D01*
X164064175Y-118042268D01*
X164039357Y-118088697D01*
X164017746Y-118129129D01*
X163955264Y-118205264D01*
X163879129Y-118267746D01*
X163838697Y-118289357D01*
X163792268Y-118314175D01*
X163698015Y-118342766D01*
X163600000Y-118352419D01*
X163501986Y-118342766D01*
X163407733Y-118314175D01*
X163361304Y-118289357D01*
X163320872Y-118267746D01*
X163244737Y-118205264D01*
X163182255Y-118129129D01*
X163168389Y-118103188D01*
X163135824Y-118042265D01*
X163107234Y-117948015D01*
X163100000Y-117874564D01*
X163100000Y-117125437D01*
X163107234Y-117051986D01*
X163135825Y-116957733D01*
X163157631Y-116916937D01*
X163182254Y-116870871D01*
X163244736Y-116794736D01*
X163244738Y-116794735D01*
X163244739Y-116794733D01*
X163320870Y-116732255D01*
X163320869Y-116732255D01*
X163320871Y-116732254D01*
X163361303Y-116710643D01*
X163407732Y-116685825D01*
X163501985Y-116657234D01*
X163600000Y-116647581D01*
X163698014Y-116657234D01*
X163698014Y-116657234D01*
G37*
G36*
X162198014Y-116657234D02*
X162292267Y-116685825D01*
X162333063Y-116707631D01*
X162379129Y-116732254D01*
X162455264Y-116794736D01*
X162455265Y-116794738D01*
X162455267Y-116794739D01*
X162502125Y-116851837D01*
X162517746Y-116870871D01*
X162533316Y-116900000D01*
X162564175Y-116957732D01*
X162592766Y-117051985D01*
X162600000Y-117125436D01*
X162600000Y-117874564D01*
X162592766Y-117948015D01*
X162564175Y-118042268D01*
X162539357Y-118088697D01*
X162517746Y-118129129D01*
X162455264Y-118205264D01*
X162379129Y-118267746D01*
X162338697Y-118289357D01*
X162292268Y-118314175D01*
X162198015Y-118342766D01*
X162100000Y-118352419D01*
X162001986Y-118342766D01*
X161907733Y-118314175D01*
X161861304Y-118289357D01*
X161820872Y-118267746D01*
X161744737Y-118205264D01*
X161682255Y-118129129D01*
X161668389Y-118103188D01*
X161635824Y-118042265D01*
X161607234Y-117948015D01*
X161600000Y-117874564D01*
X161600000Y-117125437D01*
X161607234Y-117051986D01*
X161635825Y-116957733D01*
X161657631Y-116916937D01*
X161682254Y-116870871D01*
X161744736Y-116794736D01*
X161744738Y-116794735D01*
X161744739Y-116794733D01*
X161820870Y-116732255D01*
X161820869Y-116732255D01*
X161820871Y-116732254D01*
X161861303Y-116710643D01*
X161907732Y-116685825D01*
X162001985Y-116657234D01*
X162100000Y-116647581D01*
X162198014Y-116657234D01*
X162198014Y-116657234D01*
G37*
G36*
X206330000Y-117175000D02*
X205270000Y-117175000D01*
X205270000Y-116525000D01*
X206330000Y-116525000D01*
X206330000Y-117175000D01*
X206330000Y-117175000D01*
G37*
G36*
X204130000Y-117175000D02*
X203070000Y-117175000D01*
X203070000Y-116525000D01*
X204130000Y-116525000D01*
X204130000Y-117175000D01*
X204130000Y-117175000D01*
G37*
G36*
X187295000Y-117100000D02*
X185745000Y-117100000D01*
X185745000Y-115800000D01*
X187295000Y-115800000D01*
X187295000Y-117100000D01*
X187295000Y-117100000D01*
G37*
G36*
X195255000Y-117100000D02*
X193705000Y-117100000D01*
X193705000Y-115800000D01*
X195255000Y-115800000D01*
X195255000Y-117100000D01*
X195255000Y-117100000D01*
G37*
G36*
X200525000Y-116900000D02*
X199275000Y-116900000D01*
X199275000Y-115900000D01*
X200525000Y-115900000D01*
X200525000Y-116900000D01*
X200525000Y-116900000D01*
G37*
G36*
X202175000Y-116350000D02*
X201425000Y-116350000D01*
X201425000Y-115550000D01*
X202175000Y-115550000D01*
X202175000Y-116350000D01*
X202175000Y-116350000D01*
G37*
G36*
X204130000Y-116225000D02*
X203070000Y-116225000D01*
X203070000Y-115575000D01*
X204130000Y-115575000D01*
X204130000Y-116225000D01*
X204130000Y-116225000D01*
G37*
G36*
X206330000Y-115275000D02*
X205270000Y-115275000D01*
X205270000Y-114625000D01*
X206330000Y-114625000D01*
X206330000Y-115275000D01*
X206330000Y-115275000D01*
G37*
G36*
X204130000Y-115275000D02*
X203070000Y-115275000D01*
X203070000Y-114625000D01*
X204130000Y-114625000D01*
X204130000Y-115275000D01*
X204130000Y-115275000D01*
G37*
G36*
X200525000Y-114900000D02*
X199275000Y-114900000D01*
X199275000Y-113900000D01*
X200525000Y-113900000D01*
X200525000Y-114900000D01*
X200525000Y-114900000D01*
G37*
G36*
X202175000Y-114850000D02*
X201425000Y-114850000D01*
X201425000Y-114050000D01*
X202175000Y-114050000D01*
X202175000Y-114850000D01*
X202175000Y-114850000D01*
G37*
G36*
X154955000Y-114200000D02*
X153405000Y-114200000D01*
X153405000Y-112900000D01*
X154955000Y-112900000D01*
X154955000Y-114200000D01*
X154955000Y-114200000D01*
G37*
G36*
X146995000Y-114200000D02*
X145445000Y-114200000D01*
X145445000Y-112900000D01*
X146995000Y-112900000D01*
X146995000Y-114200000D01*
X146995000Y-114200000D01*
G37*
G36*
X204300000Y-113425000D02*
X203300000Y-113425000D01*
X203300000Y-112175000D01*
X204300000Y-112175000D01*
X204300000Y-113425000D01*
X204300000Y-113425000D01*
G37*
G36*
X206300000Y-113425000D02*
X205300000Y-113425000D01*
X205300000Y-112175000D01*
X206300000Y-112175000D01*
X206300000Y-113425000D01*
X206300000Y-113425000D01*
G37*
G36*
X187295000Y-112600000D02*
X185745000Y-112600000D01*
X185745000Y-111300000D01*
X187295000Y-111300000D01*
X187295000Y-112600000D01*
X187295000Y-112600000D01*
G37*
G36*
X195255000Y-112600000D02*
X193705000Y-112600000D01*
X193705000Y-111300000D01*
X195255000Y-111300000D01*
X195255000Y-112600000D01*
X195255000Y-112600000D01*
G37*
G36*
X167946630Y-110762299D02*
X168106855Y-110810903D01*
X168254520Y-110889831D01*
X168383949Y-110996051D01*
X168490169Y-111125480D01*
X168569097Y-111273145D01*
X168617701Y-111433370D01*
X168634112Y-111600000D01*
X168617701Y-111766630D01*
X168569097Y-111926855D01*
X168490169Y-112074520D01*
X168383949Y-112203949D01*
X168254520Y-112310169D01*
X168106855Y-112389097D01*
X167946630Y-112437701D01*
X167821752Y-112450000D01*
X167738248Y-112450000D01*
X167613370Y-112437701D01*
X167453145Y-112389097D01*
X167305480Y-112310169D01*
X167176051Y-112203949D01*
X167069831Y-112074520D01*
X166990903Y-111926855D01*
X166942299Y-111766630D01*
X166925888Y-111600000D01*
X166942299Y-111433370D01*
X166990903Y-111273145D01*
X167069831Y-111125480D01*
X167176051Y-110996051D01*
X167305480Y-110889831D01*
X167453145Y-110810903D01*
X167613370Y-110762299D01*
X167738248Y-110750000D01*
X167821752Y-110750000D01*
X167946630Y-110762299D01*
X167946630Y-110762299D01*
G37*
G36*
X178106630Y-110762299D02*
X178266855Y-110810903D01*
X178414520Y-110889831D01*
X178543949Y-110996051D01*
X178650169Y-111125480D01*
X178729097Y-111273145D01*
X178777701Y-111433370D01*
X178794112Y-111600000D01*
X178777701Y-111766630D01*
X178729097Y-111926855D01*
X178650169Y-112074520D01*
X178543949Y-112203949D01*
X178414520Y-112310169D01*
X178266855Y-112389097D01*
X178106630Y-112437701D01*
X177981752Y-112450000D01*
X177898248Y-112450000D01*
X177773370Y-112437701D01*
X177613145Y-112389097D01*
X177465480Y-112310169D01*
X177336051Y-112203949D01*
X177229831Y-112074520D01*
X177150903Y-111926855D01*
X177102299Y-111766630D01*
X177085888Y-111600000D01*
X177102299Y-111433370D01*
X177150903Y-111273145D01*
X177229831Y-111125480D01*
X177336051Y-110996051D01*
X177465480Y-110889831D01*
X177613145Y-110810903D01*
X177773370Y-110762299D01*
X177898248Y-110750000D01*
X177981752Y-110750000D01*
X178106630Y-110762299D01*
X178106630Y-110762299D01*
G37*
G36*
X165406630Y-110762299D02*
X165566855Y-110810903D01*
X165714520Y-110889831D01*
X165843949Y-110996051D01*
X165950169Y-111125480D01*
X166029097Y-111273145D01*
X166077701Y-111433370D01*
X166094112Y-111600000D01*
X166077701Y-111766630D01*
X166029097Y-111926855D01*
X165950169Y-112074520D01*
X165843949Y-112203949D01*
X165714520Y-112310169D01*
X165566855Y-112389097D01*
X165406630Y-112437701D01*
X165281752Y-112450000D01*
X165198248Y-112450000D01*
X165073370Y-112437701D01*
X164913145Y-112389097D01*
X164765480Y-112310169D01*
X164636051Y-112203949D01*
X164529831Y-112074520D01*
X164450903Y-111926855D01*
X164402299Y-111766630D01*
X164385888Y-111600000D01*
X164402299Y-111433370D01*
X164450903Y-111273145D01*
X164529831Y-111125480D01*
X164636051Y-110996051D01*
X164765480Y-110889831D01*
X164913145Y-110810903D01*
X165073370Y-110762299D01*
X165198248Y-110750000D01*
X165281752Y-110750000D01*
X165406630Y-110762299D01*
X165406630Y-110762299D01*
G37*
G36*
X163550000Y-112450000D02*
X161850000Y-112450000D01*
X161850000Y-110750000D01*
X163550000Y-110750000D01*
X163550000Y-112450000D01*
X163550000Y-112450000D01*
G37*
G36*
X175566630Y-110762299D02*
X175726855Y-110810903D01*
X175874520Y-110889831D01*
X176003949Y-110996051D01*
X176110169Y-111125480D01*
X176189097Y-111273145D01*
X176237701Y-111433370D01*
X176254112Y-111600000D01*
X176237701Y-111766630D01*
X176189097Y-111926855D01*
X176110169Y-112074520D01*
X176003949Y-112203949D01*
X175874520Y-112310169D01*
X175726855Y-112389097D01*
X175566630Y-112437701D01*
X175441752Y-112450000D01*
X175358248Y-112450000D01*
X175233370Y-112437701D01*
X175073145Y-112389097D01*
X174925480Y-112310169D01*
X174796051Y-112203949D01*
X174689831Y-112074520D01*
X174610903Y-111926855D01*
X174562299Y-111766630D01*
X174545888Y-111600000D01*
X174562299Y-111433370D01*
X174610903Y-111273145D01*
X174689831Y-111125480D01*
X174796051Y-110996051D01*
X174925480Y-110889831D01*
X175073145Y-110810903D01*
X175233370Y-110762299D01*
X175358248Y-110750000D01*
X175441752Y-110750000D01*
X175566630Y-110762299D01*
X175566630Y-110762299D01*
G37*
G36*
X173026630Y-110762299D02*
X173186855Y-110810903D01*
X173334520Y-110889831D01*
X173463949Y-110996051D01*
X173570169Y-111125480D01*
X173649097Y-111273145D01*
X173697701Y-111433370D01*
X173714112Y-111600000D01*
X173697701Y-111766630D01*
X173649097Y-111926855D01*
X173570169Y-112074520D01*
X173463949Y-112203949D01*
X173334520Y-112310169D01*
X173186855Y-112389097D01*
X173026630Y-112437701D01*
X172901752Y-112450000D01*
X172818248Y-112450000D01*
X172693370Y-112437701D01*
X172533145Y-112389097D01*
X172385480Y-112310169D01*
X172256051Y-112203949D01*
X172149831Y-112074520D01*
X172070903Y-111926855D01*
X172022299Y-111766630D01*
X172005888Y-111600000D01*
X172022299Y-111433370D01*
X172070903Y-111273145D01*
X172149831Y-111125480D01*
X172256051Y-110996051D01*
X172385480Y-110889831D01*
X172533145Y-110810903D01*
X172693370Y-110762299D01*
X172818248Y-110750000D01*
X172901752Y-110750000D01*
X173026630Y-110762299D01*
X173026630Y-110762299D01*
G37*
G36*
X170486630Y-110762299D02*
X170646855Y-110810903D01*
X170794520Y-110889831D01*
X170923949Y-110996051D01*
X171030169Y-111125480D01*
X171109097Y-111273145D01*
X171157701Y-111433370D01*
X171174112Y-111600000D01*
X171157701Y-111766630D01*
X171109097Y-111926855D01*
X171030169Y-112074520D01*
X170923949Y-112203949D01*
X170794520Y-112310169D01*
X170646855Y-112389097D01*
X170486630Y-112437701D01*
X170361752Y-112450000D01*
X170278248Y-112450000D01*
X170153370Y-112437701D01*
X169993145Y-112389097D01*
X169845480Y-112310169D01*
X169716051Y-112203949D01*
X169609831Y-112074520D01*
X169530903Y-111926855D01*
X169482299Y-111766630D01*
X169465888Y-111600000D01*
X169482299Y-111433370D01*
X169530903Y-111273145D01*
X169609831Y-111125480D01*
X169716051Y-110996051D01*
X169845480Y-110889831D01*
X169993145Y-110810903D01*
X170153370Y-110762299D01*
X170278248Y-110750000D01*
X170361752Y-110750000D01*
X170486630Y-110762299D01*
X170486630Y-110762299D01*
G37*
G36*
X146995000Y-109700000D02*
X145445000Y-109700000D01*
X145445000Y-108400000D01*
X146995000Y-108400000D01*
X146995000Y-109700000D01*
X146995000Y-109700000D01*
G37*
G36*
X154955000Y-109700000D02*
X153405000Y-109700000D01*
X153405000Y-108400000D01*
X154955000Y-108400000D01*
X154955000Y-109700000D01*
X154955000Y-109700000D01*
G37*
G36*
X186396029Y-106064469D02*
X186396032Y-106064470D01*
X186396033Y-106064470D01*
X186584534Y-106121651D01*
X186584536Y-106121652D01*
X186584539Y-106121653D01*
X186758258Y-106214507D01*
X186910528Y-106339472D01*
X187035491Y-106491740D01*
X187128348Y-106665463D01*
X187185531Y-106853970D01*
X187200000Y-107000876D01*
X187200000Y-108099124D01*
X187185531Y-108246030D01*
X187185530Y-108246033D01*
X187185530Y-108246034D01*
X187128350Y-108434533D01*
X187128348Y-108434537D01*
X187035491Y-108608260D01*
X186910528Y-108760528D01*
X186758260Y-108885491D01*
X186758258Y-108885492D01*
X186584535Y-108978349D01*
X186396034Y-109035530D01*
X186396033Y-109035530D01*
X186396030Y-109035531D01*
X186200000Y-109054838D01*
X186003971Y-109035531D01*
X186003968Y-109035530D01*
X186003967Y-109035530D01*
X185815466Y-108978349D01*
X185641743Y-108885492D01*
X185641741Y-108885491D01*
X185489473Y-108760528D01*
X185364510Y-108608260D01*
X185271651Y-108434533D01*
X185214469Y-108246035D01*
X185200000Y-108099124D01*
X185200000Y-107000877D01*
X185214469Y-106853971D01*
X185214470Y-106853967D01*
X185271651Y-106665466D01*
X185271652Y-106665464D01*
X185271653Y-106665461D01*
X185364507Y-106491742D01*
X185489472Y-106339472D01*
X185641740Y-106214509D01*
X185815463Y-106121652D01*
X185815465Y-106121651D01*
X186003966Y-106064470D01*
X186003967Y-106064470D01*
X186003970Y-106064469D01*
X186200000Y-106045162D01*
X186396029Y-106064469D01*
X186396029Y-106064469D01*
G37*
G36*
X195896029Y-105364469D02*
X195896032Y-105364470D01*
X195896033Y-105364470D01*
X196084534Y-105421651D01*
X196084536Y-105421652D01*
X196084539Y-105421653D01*
X196258258Y-105514507D01*
X196410528Y-105639472D01*
X196535491Y-105791740D01*
X196535492Y-105791742D01*
X196628349Y-105965465D01*
X196675728Y-106121653D01*
X196685531Y-106153970D01*
X196700000Y-106300876D01*
X196700000Y-107399124D01*
X196685531Y-107546030D01*
X196685530Y-107546033D01*
X196685530Y-107546034D01*
X196628350Y-107734533D01*
X196628348Y-107734537D01*
X196535491Y-107908260D01*
X196410528Y-108060528D01*
X196258260Y-108185491D01*
X196258258Y-108185492D01*
X196084535Y-108278349D01*
X195896034Y-108335530D01*
X195896033Y-108335530D01*
X195896030Y-108335531D01*
X195700000Y-108354838D01*
X195503971Y-108335531D01*
X195503968Y-108335530D01*
X195503967Y-108335530D01*
X195315466Y-108278349D01*
X195141743Y-108185492D01*
X195141741Y-108185491D01*
X194989473Y-108060528D01*
X194864510Y-107908260D01*
X194771651Y-107734533D01*
X194714469Y-107546035D01*
X194700000Y-107399124D01*
X194700000Y-106300877D01*
X194714469Y-106153971D01*
X194714470Y-106153967D01*
X194771651Y-105965466D01*
X194771652Y-105965464D01*
X194771653Y-105965461D01*
X194864507Y-105791742D01*
X194989472Y-105639472D01*
X195141740Y-105514509D01*
X195315463Y-105421652D01*
X195315465Y-105421651D01*
X195503966Y-105364470D01*
X195503967Y-105364470D01*
X195503970Y-105364469D01*
X195700000Y-105345162D01*
X195896029Y-105364469D01*
X195896029Y-105364469D01*
G37*
G36*
X169750000Y-107725000D02*
X168750000Y-107725000D01*
X168750000Y-106475000D01*
X169750000Y-106475000D01*
X169750000Y-107725000D01*
X169750000Y-107725000D01*
G37*
G36*
X167750000Y-107725000D02*
X166750000Y-107725000D01*
X166750000Y-106475000D01*
X167750000Y-106475000D01*
X167750000Y-107725000D01*
X167750000Y-107725000D01*
G37*
G36*
X178175000Y-107650000D02*
X176925000Y-107650000D01*
X176925000Y-106650000D01*
X178175000Y-106650000D01*
X178175000Y-107650000D01*
X178175000Y-107650000D01*
G37*
G36*
X176225000Y-106950000D02*
X175475000Y-106950000D01*
X175475000Y-106150000D01*
X176225000Y-106150000D01*
X176225000Y-106950000D01*
X176225000Y-106950000D01*
G37*
G36*
X168100000Y-105725000D02*
X167300000Y-105725000D01*
X167300000Y-104975000D01*
X168100000Y-104975000D01*
X168100000Y-105725000D01*
X168100000Y-105725000D01*
G37*
G36*
X169600000Y-105725000D02*
X168800000Y-105725000D01*
X168800000Y-104975000D01*
X169600000Y-104975000D01*
X169600000Y-105725000D01*
X169600000Y-105725000D01*
G37*
G36*
X185549010Y-105203617D02*
X185596131Y-105217912D01*
X185596134Y-105217913D01*
X185639564Y-105241127D01*
X185677632Y-105272368D01*
X185708873Y-105310436D01*
X185732087Y-105353866D01*
X185732088Y-105353869D01*
X185746383Y-105400990D01*
X185751209Y-105450000D01*
X185746383Y-105499010D01*
X185732088Y-105546131D01*
X185732087Y-105546134D01*
X185708873Y-105589564D01*
X185677632Y-105627632D01*
X185639564Y-105658873D01*
X185596134Y-105682087D01*
X185596131Y-105682088D01*
X185549010Y-105696383D01*
X185512280Y-105700000D01*
X184487720Y-105700000D01*
X184450990Y-105696383D01*
X184403869Y-105682088D01*
X184403866Y-105682087D01*
X184360436Y-105658873D01*
X184322368Y-105627632D01*
X184291127Y-105589564D01*
X184267913Y-105546134D01*
X184267912Y-105546131D01*
X184253617Y-105499010D01*
X184248791Y-105450000D01*
X184253617Y-105400990D01*
X184267912Y-105353869D01*
X184267913Y-105353866D01*
X184291127Y-105310436D01*
X184322368Y-105272368D01*
X184360436Y-105241127D01*
X184403866Y-105217913D01*
X184403869Y-105217912D01*
X184450990Y-105203617D01*
X184487720Y-105200000D01*
X185512280Y-105200000D01*
X185549010Y-105203617D01*
X185549010Y-105203617D01*
G37*
G36*
X178175000Y-105650000D02*
X176925000Y-105650000D01*
X176925000Y-104650000D01*
X178175000Y-104650000D01*
X178175000Y-105650000D01*
X178175000Y-105650000D01*
G37*
G36*
X176225000Y-105450000D02*
X175475000Y-105450000D01*
X175475000Y-104650000D01*
X176225000Y-104650000D01*
X176225000Y-105450000D01*
X176225000Y-105450000D01*
G37*
G36*
X185549010Y-104103617D02*
X185596131Y-104117912D01*
X185596134Y-104117913D01*
X185639564Y-104141127D01*
X185677632Y-104172368D01*
X185708873Y-104210436D01*
X185732087Y-104253866D01*
X185732088Y-104253869D01*
X185746383Y-104300990D01*
X185751209Y-104350000D01*
X185746383Y-104399010D01*
X185732088Y-104446131D01*
X185732087Y-104446134D01*
X185708873Y-104489564D01*
X185677632Y-104527632D01*
X185639564Y-104558873D01*
X185596134Y-104582087D01*
X185596131Y-104582088D01*
X185549010Y-104596383D01*
X185512280Y-104600000D01*
X184487720Y-104600000D01*
X184450990Y-104596383D01*
X184403869Y-104582088D01*
X184403866Y-104582087D01*
X184360436Y-104558873D01*
X184322368Y-104527632D01*
X184291127Y-104489564D01*
X184267913Y-104446134D01*
X184267912Y-104446131D01*
X184253617Y-104399010D01*
X184248791Y-104350000D01*
X184253617Y-104300990D01*
X184267912Y-104253869D01*
X184267913Y-104253866D01*
X184291127Y-104210436D01*
X184322368Y-104172368D01*
X184360436Y-104141127D01*
X184403866Y-104117913D01*
X184403869Y-104117912D01*
X184450990Y-104103617D01*
X184487720Y-104100000D01*
X185512280Y-104100000D01*
X185549010Y-104103617D01*
X185549010Y-104103617D01*
G37*
G36*
X196125012Y-103223057D02*
X196234207Y-103268287D01*
X196332481Y-103333952D01*
X196416048Y-103417519D01*
X196481713Y-103515793D01*
X196526943Y-103624988D01*
X196550000Y-103740904D01*
X196550000Y-103859096D01*
X196526943Y-103975012D01*
X196481713Y-104084207D01*
X196416048Y-104182481D01*
X196332481Y-104266048D01*
X196234207Y-104331713D01*
X196125012Y-104376943D01*
X196009096Y-104400000D01*
X195890904Y-104400000D01*
X195774988Y-104376943D01*
X195665793Y-104331713D01*
X195567519Y-104266048D01*
X195483952Y-104182481D01*
X195418287Y-104084207D01*
X195373057Y-103975012D01*
X195350000Y-103859096D01*
X195350000Y-103740904D01*
X195373057Y-103624988D01*
X195418287Y-103515793D01*
X195483952Y-103417519D01*
X195567519Y-103333952D01*
X195665793Y-103268287D01*
X195774988Y-103223057D01*
X195890904Y-103200000D01*
X196009096Y-103200000D01*
X196125012Y-103223057D01*
X196125012Y-103223057D01*
G37*
G36*
X175425000Y-104000000D02*
X167675000Y-104000000D01*
X167675000Y-103000000D01*
X175425000Y-103000000D01*
X175425000Y-104000000D01*
X175425000Y-104000000D01*
G37*
G36*
X151900000Y-104000000D02*
X150200000Y-104000000D01*
X150200000Y-102300000D01*
X151900000Y-102300000D01*
X151900000Y-104000000D01*
X151900000Y-104000000D01*
G37*
G36*
X185549010Y-103003617D02*
X185596131Y-103017912D01*
X185596134Y-103017913D01*
X185639564Y-103041127D01*
X185677632Y-103072368D01*
X185708873Y-103110436D01*
X185732087Y-103153866D01*
X185732088Y-103153869D01*
X185746383Y-103200990D01*
X185751209Y-103250000D01*
X185746383Y-103299010D01*
X185732088Y-103346131D01*
X185732087Y-103346134D01*
X185708873Y-103389564D01*
X185677632Y-103427632D01*
X185639564Y-103458873D01*
X185596134Y-103482087D01*
X185596131Y-103482088D01*
X185549010Y-103496383D01*
X185512280Y-103500000D01*
X184487720Y-103500000D01*
X184450990Y-103496383D01*
X184403869Y-103482088D01*
X184403866Y-103482087D01*
X184360436Y-103458873D01*
X184322368Y-103427632D01*
X184291127Y-103389564D01*
X184267913Y-103346134D01*
X184267912Y-103346131D01*
X184253617Y-103299010D01*
X184248791Y-103250000D01*
X184253617Y-103200990D01*
X184267912Y-103153869D01*
X184267913Y-103153866D01*
X184291127Y-103110436D01*
X184322368Y-103072368D01*
X184360436Y-103041127D01*
X184403866Y-103017913D01*
X184403869Y-103017912D01*
X184450990Y-103003617D01*
X184487720Y-103000000D01*
X185512280Y-103000000D01*
X185549010Y-103003617D01*
X185549010Y-103003617D01*
G37*
G36*
X185549010Y-101903617D02*
X185596131Y-101917912D01*
X185596134Y-101917913D01*
X185639564Y-101941127D01*
X185677632Y-101972368D01*
X185708873Y-102010436D01*
X185732087Y-102053866D01*
X185732088Y-102053869D01*
X185746383Y-102100990D01*
X185751209Y-102150000D01*
X185746383Y-102199010D01*
X185732088Y-102246131D01*
X185732087Y-102246134D01*
X185708873Y-102289564D01*
X185677632Y-102327632D01*
X185639564Y-102358873D01*
X185596134Y-102382087D01*
X185596131Y-102382088D01*
X185549010Y-102396383D01*
X185512280Y-102400000D01*
X184487720Y-102400000D01*
X184450990Y-102396383D01*
X184403869Y-102382088D01*
X184403866Y-102382087D01*
X184360436Y-102358873D01*
X184322368Y-102327632D01*
X184291127Y-102289564D01*
X184267913Y-102246134D01*
X184267912Y-102246131D01*
X184253617Y-102199010D01*
X184248791Y-102150000D01*
X184253617Y-102100990D01*
X184267912Y-102053869D01*
X184267913Y-102053866D01*
X184291127Y-102010436D01*
X184322368Y-101972368D01*
X184360436Y-101941127D01*
X184403866Y-101917913D01*
X184403869Y-101917912D01*
X184450990Y-101903617D01*
X184487720Y-101900000D01*
X185512280Y-101900000D01*
X185549010Y-101903617D01*
X185549010Y-101903617D01*
G37*
G36*
X161625000Y-101700000D02*
X160375000Y-101700000D01*
X160375000Y-100700000D01*
X161625000Y-100700000D01*
X161625000Y-101700000D01*
X161625000Y-101700000D01*
G37*
G36*
X166350000Y-101675000D02*
X165350000Y-101675000D01*
X165350000Y-93925000D01*
X166350000Y-93925000D01*
X166350000Y-101675000D01*
X166350000Y-101675000D01*
G37*
G36*
X177750000Y-101675000D02*
X176750000Y-101675000D01*
X176750000Y-93925000D01*
X177750000Y-93925000D01*
X177750000Y-101675000D01*
X177750000Y-101675000D01*
G37*
G36*
X151216630Y-99772299D02*
X151376855Y-99820903D01*
X151524520Y-99899831D01*
X151653949Y-100006051D01*
X151760169Y-100135480D01*
X151839097Y-100283145D01*
X151887701Y-100443370D01*
X151904112Y-100610000D01*
X151887701Y-100776630D01*
X151839097Y-100936855D01*
X151760169Y-101084520D01*
X151653949Y-101213949D01*
X151524520Y-101320169D01*
X151376855Y-101399097D01*
X151216630Y-101447701D01*
X151091752Y-101460000D01*
X151008248Y-101460000D01*
X150883370Y-101447701D01*
X150723145Y-101399097D01*
X150575480Y-101320169D01*
X150446051Y-101213949D01*
X150339831Y-101084520D01*
X150260903Y-100936855D01*
X150212299Y-100776630D01*
X150195888Y-100610000D01*
X150212299Y-100443370D01*
X150260903Y-100283145D01*
X150339831Y-100135480D01*
X150446051Y-100006051D01*
X150575480Y-99899831D01*
X150723145Y-99820903D01*
X150883370Y-99772299D01*
X151008248Y-99760000D01*
X151091752Y-99760000D01*
X151216630Y-99772299D01*
X151216630Y-99772299D01*
G37*
G36*
X185549010Y-100803617D02*
X185596131Y-100817912D01*
X185596134Y-100817913D01*
X185639564Y-100841127D01*
X185677632Y-100872368D01*
X185708873Y-100910436D01*
X185732087Y-100953866D01*
X185732088Y-100953869D01*
X185746383Y-101000990D01*
X185751209Y-101050000D01*
X185746383Y-101099010D01*
X185732088Y-101146131D01*
X185732087Y-101146134D01*
X185708873Y-101189564D01*
X185677632Y-101227632D01*
X185639564Y-101258873D01*
X185596134Y-101282087D01*
X185596131Y-101282088D01*
X185549010Y-101296383D01*
X185512280Y-101300000D01*
X184487720Y-101300000D01*
X184450990Y-101296383D01*
X184403869Y-101282088D01*
X184403866Y-101282087D01*
X184360436Y-101258873D01*
X184322368Y-101227632D01*
X184291127Y-101189564D01*
X184267913Y-101146134D01*
X184267912Y-101146131D01*
X184253617Y-101099010D01*
X184248791Y-101050000D01*
X184253617Y-101000990D01*
X184267912Y-100953869D01*
X184267913Y-100953866D01*
X184291127Y-100910436D01*
X184322368Y-100872368D01*
X184360436Y-100841127D01*
X184403866Y-100817913D01*
X184403869Y-100817912D01*
X184450990Y-100803617D01*
X184487720Y-100800000D01*
X185512280Y-100800000D01*
X185549010Y-100803617D01*
X185549010Y-100803617D01*
G37*
G36*
X163175000Y-101300000D02*
X162425000Y-101300000D01*
X162425000Y-100500000D01*
X163175000Y-100500000D01*
X163175000Y-101300000D01*
X163175000Y-101300000D01*
G37*
G36*
X182050000Y-100275000D02*
X181250000Y-100275000D01*
X181250000Y-99525000D01*
X182050000Y-99525000D01*
X182050000Y-100275000D01*
X182050000Y-100275000D01*
G37*
G36*
X183550000Y-100275000D02*
X182750000Y-100275000D01*
X182750000Y-99525000D01*
X183550000Y-99525000D01*
X183550000Y-100275000D01*
X183550000Y-100275000D01*
G37*
G36*
X185549010Y-99703617D02*
X185596131Y-99717912D01*
X185596134Y-99717913D01*
X185639564Y-99741127D01*
X185677632Y-99772368D01*
X185708873Y-99810436D01*
X185732087Y-99853866D01*
X185732088Y-99853869D01*
X185746383Y-99900990D01*
X185751209Y-99950000D01*
X185746383Y-99999010D01*
X185732088Y-100046131D01*
X185732087Y-100046134D01*
X185708873Y-100089564D01*
X185677632Y-100127632D01*
X185639564Y-100158873D01*
X185596134Y-100182087D01*
X185596131Y-100182088D01*
X185549010Y-100196383D01*
X185512280Y-100200000D01*
X184487720Y-100200000D01*
X184450990Y-100196383D01*
X184403869Y-100182088D01*
X184403866Y-100182087D01*
X184360436Y-100158873D01*
X184322368Y-100127632D01*
X184291127Y-100089564D01*
X184267913Y-100046134D01*
X184267912Y-100046131D01*
X184253617Y-99999010D01*
X184248791Y-99950000D01*
X184253617Y-99900990D01*
X184267912Y-99853869D01*
X184267913Y-99853866D01*
X184291127Y-99810436D01*
X184322368Y-99772368D01*
X184360436Y-99741127D01*
X184403866Y-99717913D01*
X184403869Y-99717912D01*
X184450990Y-99703617D01*
X184487720Y-99700000D01*
X185512280Y-99700000D01*
X185549010Y-99703617D01*
X185549010Y-99703617D01*
G37*
G36*
X163175000Y-99800000D02*
X162425000Y-99800000D01*
X162425000Y-99000000D01*
X163175000Y-99000000D01*
X163175000Y-99800000D01*
X163175000Y-99800000D01*
G37*
G36*
X161625000Y-99700000D02*
X160375000Y-99700000D01*
X160375000Y-98700000D01*
X161625000Y-98700000D01*
X161625000Y-99700000D01*
X161625000Y-99700000D01*
G37*
G36*
X185549010Y-98603617D02*
X185596131Y-98617912D01*
X185596134Y-98617913D01*
X185639564Y-98641127D01*
X185677632Y-98672368D01*
X185708873Y-98710436D01*
X185732087Y-98753866D01*
X185732088Y-98753869D01*
X185746383Y-98800990D01*
X185751209Y-98850000D01*
X185746383Y-98899010D01*
X185738498Y-98925000D01*
X185732087Y-98946134D01*
X185708873Y-98989564D01*
X185677632Y-99027632D01*
X185639564Y-99058873D01*
X185596134Y-99082087D01*
X185596131Y-99082088D01*
X185549010Y-99096383D01*
X185512280Y-99100000D01*
X184487720Y-99100000D01*
X184450990Y-99096383D01*
X184403869Y-99082088D01*
X184403866Y-99082087D01*
X184360436Y-99058873D01*
X184322368Y-99027632D01*
X184291127Y-98989564D01*
X184267913Y-98946134D01*
X184261502Y-98925000D01*
X184253617Y-98899010D01*
X184248791Y-98850000D01*
X184253617Y-98800990D01*
X184267912Y-98753869D01*
X184267913Y-98753866D01*
X184291127Y-98710436D01*
X184322368Y-98672368D01*
X184360436Y-98641127D01*
X184403866Y-98617913D01*
X184403869Y-98617912D01*
X184450990Y-98603617D01*
X184487720Y-98600000D01*
X185512280Y-98600000D01*
X185549010Y-98603617D01*
X185549010Y-98603617D01*
G37*
G36*
X151216630Y-97232299D02*
X151376855Y-97280903D01*
X151524520Y-97359831D01*
X151653949Y-97466051D01*
X151760169Y-97595480D01*
X151839097Y-97743145D01*
X151887701Y-97903370D01*
X151904112Y-98070000D01*
X151887701Y-98236630D01*
X151839097Y-98396855D01*
X151760169Y-98544520D01*
X151653949Y-98673949D01*
X151524520Y-98780169D01*
X151376855Y-98859097D01*
X151216630Y-98907701D01*
X151091752Y-98920000D01*
X151008248Y-98920000D01*
X150883370Y-98907701D01*
X150723145Y-98859097D01*
X150575480Y-98780169D01*
X150446051Y-98673949D01*
X150339831Y-98544520D01*
X150260903Y-98396855D01*
X150212299Y-98236630D01*
X150195888Y-98070000D01*
X150212299Y-97903370D01*
X150260903Y-97743145D01*
X150339831Y-97595480D01*
X150446051Y-97466051D01*
X150575480Y-97359831D01*
X150723145Y-97280903D01*
X150883370Y-97232299D01*
X151008248Y-97220000D01*
X151091752Y-97220000D01*
X151216630Y-97232299D01*
X151216630Y-97232299D01*
G37*
G36*
X162600000Y-98050000D02*
X160200000Y-98050000D01*
X160200000Y-96050000D01*
X162600000Y-96050000D01*
X162600000Y-98050000D01*
X162600000Y-98050000D01*
G37*
G36*
X185549010Y-97503617D02*
X185596131Y-97517912D01*
X185596134Y-97517913D01*
X185639564Y-97541127D01*
X185677632Y-97572368D01*
X185708873Y-97610436D01*
X185732087Y-97653866D01*
X185732088Y-97653869D01*
X185746383Y-97700990D01*
X185751209Y-97750000D01*
X185746383Y-97799010D01*
X185732088Y-97846131D01*
X185732087Y-97846134D01*
X185708873Y-97889564D01*
X185677632Y-97927632D01*
X185639564Y-97958873D01*
X185596134Y-97982087D01*
X185596131Y-97982088D01*
X185549010Y-97996383D01*
X185512280Y-98000000D01*
X184487720Y-98000000D01*
X184450990Y-97996383D01*
X184403869Y-97982088D01*
X184403866Y-97982087D01*
X184360436Y-97958873D01*
X184322368Y-97927632D01*
X184291127Y-97889564D01*
X184267913Y-97846134D01*
X184267912Y-97846131D01*
X184253617Y-97799010D01*
X184248791Y-97750000D01*
X184253617Y-97700990D01*
X184267912Y-97653869D01*
X184267913Y-97653866D01*
X184291127Y-97610436D01*
X184322368Y-97572368D01*
X184360436Y-97541127D01*
X184403866Y-97517913D01*
X184403869Y-97517912D01*
X184450990Y-97503617D01*
X184487720Y-97500000D01*
X185512280Y-97500000D01*
X185549010Y-97503617D01*
X185549010Y-97503617D01*
G37*
G36*
X157400000Y-97425000D02*
X156600000Y-97425000D01*
X156600000Y-96675000D01*
X157400000Y-96675000D01*
X157400000Y-97425000D01*
X157400000Y-97425000D01*
G37*
G36*
X158900000Y-97425000D02*
X158100000Y-97425000D01*
X158100000Y-96675000D01*
X158900000Y-96675000D01*
X158900000Y-97425000D01*
X158900000Y-97425000D01*
G37*
G36*
X179350000Y-97300000D02*
X178450000Y-97300000D01*
X178450000Y-96800000D01*
X179350000Y-96800000D01*
X179350000Y-97300000D01*
X179350000Y-97300000D01*
G37*
G36*
X185549010Y-96403617D02*
X185596131Y-96417912D01*
X185596134Y-96417913D01*
X185639564Y-96441127D01*
X185677632Y-96472368D01*
X185708873Y-96510436D01*
X185732087Y-96553866D01*
X185732088Y-96553869D01*
X185746383Y-96600990D01*
X185751209Y-96650000D01*
X185746383Y-96699010D01*
X185732088Y-96746131D01*
X185732087Y-96746134D01*
X185708873Y-96789564D01*
X185677632Y-96827632D01*
X185639564Y-96858873D01*
X185596134Y-96882087D01*
X185596131Y-96882088D01*
X185549010Y-96896383D01*
X185512280Y-96900000D01*
X184487720Y-96900000D01*
X184450990Y-96896383D01*
X184403869Y-96882088D01*
X184403866Y-96882087D01*
X184360436Y-96858873D01*
X184322368Y-96827632D01*
X184291127Y-96789564D01*
X184267913Y-96746134D01*
X184267912Y-96746131D01*
X184253617Y-96699010D01*
X184248791Y-96650000D01*
X184253617Y-96600990D01*
X184267912Y-96553869D01*
X184267913Y-96553866D01*
X184291127Y-96510436D01*
X184322368Y-96472368D01*
X184360436Y-96441127D01*
X184403866Y-96417913D01*
X184403869Y-96417912D01*
X184450990Y-96403617D01*
X184487720Y-96400000D01*
X185512280Y-96400000D01*
X185549010Y-96403617D01*
X185549010Y-96403617D01*
G37*
G36*
X196125012Y-95223057D02*
X196234207Y-95268287D01*
X196332481Y-95333952D01*
X196416048Y-95417519D01*
X196481713Y-95515793D01*
X196526943Y-95624988D01*
X196550000Y-95740904D01*
X196550000Y-95859096D01*
X196526943Y-95975012D01*
X196481713Y-96084207D01*
X196416048Y-96182481D01*
X196332481Y-96266048D01*
X196234207Y-96331713D01*
X196125012Y-96376943D01*
X196009096Y-96400000D01*
X195890904Y-96400000D01*
X195774988Y-96376943D01*
X195665793Y-96331713D01*
X195567519Y-96266048D01*
X195483952Y-96182481D01*
X195418287Y-96084207D01*
X195373057Y-95975012D01*
X195350000Y-95859096D01*
X195350000Y-95740904D01*
X195373057Y-95624988D01*
X195418287Y-95515793D01*
X195483952Y-95417519D01*
X195567519Y-95333952D01*
X195665793Y-95268287D01*
X195774988Y-95223057D01*
X195890904Y-95200000D01*
X196009096Y-95200000D01*
X196125012Y-95223057D01*
X196125012Y-95223057D01*
G37*
G36*
X151216630Y-94692299D02*
X151376855Y-94740903D01*
X151524520Y-94819831D01*
X151653949Y-94926051D01*
X151760169Y-95055480D01*
X151839097Y-95203145D01*
X151887701Y-95363370D01*
X151904112Y-95530000D01*
X151887701Y-95696630D01*
X151839097Y-95856855D01*
X151760169Y-96004520D01*
X151653949Y-96133949D01*
X151524520Y-96240169D01*
X151376855Y-96319097D01*
X151216630Y-96367701D01*
X151091752Y-96380000D01*
X151008248Y-96380000D01*
X150883370Y-96367701D01*
X150723145Y-96319097D01*
X150575480Y-96240169D01*
X150446051Y-96133949D01*
X150339831Y-96004520D01*
X150260903Y-95856855D01*
X150212299Y-95696630D01*
X150195888Y-95530000D01*
X150212299Y-95363370D01*
X150260903Y-95203145D01*
X150339831Y-95055480D01*
X150446051Y-94926051D01*
X150575480Y-94819831D01*
X150723145Y-94740903D01*
X150883370Y-94692299D01*
X151008248Y-94680000D01*
X151091752Y-94680000D01*
X151216630Y-94692299D01*
X151216630Y-94692299D01*
G37*
G36*
X179350000Y-95800000D02*
X178450000Y-95800000D01*
X178450000Y-95300000D01*
X179350000Y-95300000D01*
X179350000Y-95800000D01*
X179350000Y-95800000D01*
G37*
G36*
X162600000Y-94350000D02*
X160200000Y-94350000D01*
X160200000Y-92350000D01*
X162600000Y-92350000D01*
X162600000Y-94350000D01*
X162600000Y-94350000D01*
G37*
G36*
X179300000Y-93775000D02*
X178500000Y-93775000D01*
X178500000Y-93025000D01*
X179300000Y-93025000D01*
X179300000Y-93775000D01*
X179300000Y-93775000D01*
G37*
G36*
X180800000Y-93775000D02*
X180000000Y-93775000D01*
X180000000Y-93025000D01*
X180800000Y-93025000D01*
X180800000Y-93775000D01*
X180800000Y-93775000D01*
G37*
G36*
X158850000Y-93725000D02*
X158050000Y-93725000D01*
X158050000Y-92975000D01*
X158850000Y-92975000D01*
X158850000Y-93725000D01*
X158850000Y-93725000D01*
G37*
G36*
X157350000Y-93725000D02*
X156550000Y-93725000D01*
X156550000Y-92975000D01*
X157350000Y-92975000D01*
X157350000Y-93725000D01*
X157350000Y-93725000D01*
G37*
G36*
X186396029Y-90014469D02*
X186396032Y-90014470D01*
X186396033Y-90014470D01*
X186584534Y-90071651D01*
X186584536Y-90071652D01*
X186584539Y-90071653D01*
X186758258Y-90164507D01*
X186910528Y-90289472D01*
X187035491Y-90441740D01*
X187128348Y-90615463D01*
X187185531Y-90803970D01*
X187200000Y-90950876D01*
X187200000Y-92049124D01*
X187185531Y-92196030D01*
X187185530Y-92196033D01*
X187185530Y-92196034D01*
X187128350Y-92384533D01*
X187128348Y-92384537D01*
X187035491Y-92558260D01*
X186910528Y-92710528D01*
X186758260Y-92835491D01*
X186758258Y-92835492D01*
X186584535Y-92928349D01*
X186396034Y-92985530D01*
X186396033Y-92985530D01*
X186396030Y-92985531D01*
X186200000Y-93004838D01*
X186003971Y-92985531D01*
X186003968Y-92985530D01*
X186003967Y-92985530D01*
X185815466Y-92928349D01*
X185641743Y-92835492D01*
X185641741Y-92835491D01*
X185489473Y-92710528D01*
X185364510Y-92558260D01*
X185271651Y-92384533D01*
X185214469Y-92196035D01*
X185200000Y-92049124D01*
X185200000Y-90950877D01*
X185214469Y-90803971D01*
X185214470Y-90803967D01*
X185271651Y-90615466D01*
X185271652Y-90615464D01*
X185271653Y-90615461D01*
X185364507Y-90441742D01*
X185489472Y-90289472D01*
X185641740Y-90164509D01*
X185815463Y-90071652D01*
X185815465Y-90071651D01*
X186003966Y-90014470D01*
X186003967Y-90014470D01*
X186003970Y-90014469D01*
X186200000Y-89995162D01*
X186396029Y-90014469D01*
X186396029Y-90014469D01*
G37*
G36*
X175425000Y-92600000D02*
X167675000Y-92600000D01*
X167675000Y-91600000D01*
X175425000Y-91600000D01*
X175425000Y-92600000D01*
X175425000Y-92600000D01*
G37*
G36*
X195896029Y-89414469D02*
X195896032Y-89414470D01*
X195896033Y-89414470D01*
X196084534Y-89471651D01*
X196084536Y-89471652D01*
X196084539Y-89471653D01*
X196258258Y-89564507D01*
X196410528Y-89689472D01*
X196535491Y-89841740D01*
X196535492Y-89841742D01*
X196628349Y-90015465D01*
X196673561Y-90164509D01*
X196685531Y-90203970D01*
X196700000Y-90350876D01*
X196700000Y-91449124D01*
X196685531Y-91596030D01*
X196685530Y-91596033D01*
X196685530Y-91596034D01*
X196628350Y-91784533D01*
X196628348Y-91784537D01*
X196535491Y-91958260D01*
X196410528Y-92110528D01*
X196258260Y-92235491D01*
X196258258Y-92235492D01*
X196084535Y-92328349D01*
X195896034Y-92385530D01*
X195896033Y-92385530D01*
X195896030Y-92385531D01*
X195700000Y-92404838D01*
X195503971Y-92385531D01*
X195503968Y-92385530D01*
X195503967Y-92385530D01*
X195315466Y-92328349D01*
X195141743Y-92235492D01*
X195141741Y-92235491D01*
X194989473Y-92110528D01*
X194864510Y-91958260D01*
X194771651Y-91784533D01*
X194714469Y-91596035D01*
X194700000Y-91449124D01*
X194700000Y-90350877D01*
X194714469Y-90203971D01*
X194714470Y-90203967D01*
X194771651Y-90015466D01*
X194771652Y-90015464D01*
X194771653Y-90015461D01*
X194864507Y-89841742D01*
X194989472Y-89689472D01*
X195141740Y-89564509D01*
X195315463Y-89471652D01*
X195315465Y-89471651D01*
X195503966Y-89414470D01*
X195503967Y-89414470D01*
X195503970Y-89414469D01*
X195700000Y-89395162D01*
X195896029Y-89414469D01*
X195896029Y-89414469D01*
G37*
G36*
X179500000Y-92225000D02*
X178500000Y-92225000D01*
X178500000Y-90975000D01*
X179500000Y-90975000D01*
X179500000Y-92225000D01*
X179500000Y-92225000D01*
G37*
G36*
X181500000Y-92225000D02*
X180500000Y-92225000D01*
X180500000Y-90975000D01*
X181500000Y-90975000D01*
X181500000Y-92225000D01*
X181500000Y-92225000D01*
G37*
G36*
X168700000Y-90525000D02*
X167900000Y-90525000D01*
X167900000Y-89775000D01*
X168700000Y-89775000D01*
X168700000Y-90525000D01*
X168700000Y-90525000D01*
G37*
G36*
X167200000Y-90525000D02*
X166400000Y-90525000D01*
X166400000Y-89775000D01*
X167200000Y-89775000D01*
X167200000Y-90525000D01*
X167200000Y-90525000D01*
G37*
G36*
X169300000Y-89025000D02*
X168300000Y-89025000D01*
X168300000Y-87775000D01*
X169300000Y-87775000D01*
X169300000Y-89025000D01*
X169300000Y-89025000D01*
G37*
G36*
X167300000Y-89025000D02*
X166300000Y-89025000D01*
X166300000Y-87775000D01*
X167300000Y-87775000D01*
X167300000Y-89025000D01*
X167300000Y-89025000D01*
G37*
G36*
X150725000Y-87750000D02*
X149475000Y-87750000D01*
X149475000Y-86750000D01*
X150725000Y-86750000D01*
X150725000Y-87750000D01*
X150725000Y-87750000D01*
G37*
G36*
X160025000Y-87750000D02*
X158775000Y-87750000D01*
X158775000Y-86750000D01*
X160025000Y-86750000D01*
X160025000Y-87750000D01*
X160025000Y-87750000D01*
G37*
G36*
X156480000Y-87475000D02*
X155420000Y-87475000D01*
X155420000Y-86825000D01*
X156480000Y-86825000D01*
X156480000Y-87475000D01*
X156480000Y-87475000D01*
G37*
G36*
X154280000Y-87475000D02*
X153220000Y-87475000D01*
X153220000Y-86825000D01*
X154280000Y-86825000D01*
X154280000Y-87475000D01*
X154280000Y-87475000D01*
G37*
G36*
X152325000Y-87150000D02*
X151575000Y-87150000D01*
X151575000Y-86350000D01*
X152325000Y-86350000D01*
X152325000Y-87150000D01*
X152325000Y-87150000D01*
G37*
G36*
X157975000Y-87150000D02*
X157225000Y-87150000D01*
X157225000Y-86350000D01*
X157975000Y-86350000D01*
X157975000Y-87150000D01*
X157975000Y-87150000D01*
G37*
G36*
X154280000Y-86525000D02*
X153220000Y-86525000D01*
X153220000Y-85875000D01*
X154280000Y-85875000D01*
X154280000Y-86525000D01*
X154280000Y-86525000D01*
G37*
G36*
X184986630Y-84662299D02*
X185146855Y-84710903D01*
X185294520Y-84789831D01*
X185423949Y-84896051D01*
X185530169Y-85025480D01*
X185609097Y-85173145D01*
X185657701Y-85333370D01*
X185674112Y-85500000D01*
X185657701Y-85666630D01*
X185609097Y-85826855D01*
X185530169Y-85974520D01*
X185423949Y-86103949D01*
X185294520Y-86210169D01*
X185146855Y-86289097D01*
X184986630Y-86337701D01*
X184861752Y-86350000D01*
X184778248Y-86350000D01*
X184653370Y-86337701D01*
X184493145Y-86289097D01*
X184345480Y-86210169D01*
X184216051Y-86103949D01*
X184109831Y-85974520D01*
X184030903Y-85826855D01*
X183982299Y-85666630D01*
X183965888Y-85500000D01*
X183982299Y-85333370D01*
X184030903Y-85173145D01*
X184109831Y-85025480D01*
X184216051Y-84896051D01*
X184345480Y-84789831D01*
X184493145Y-84710903D01*
X184653370Y-84662299D01*
X184778248Y-84650000D01*
X184861752Y-84650000D01*
X184986630Y-84662299D01*
X184986630Y-84662299D01*
G37*
G36*
X182446630Y-84662299D02*
X182606855Y-84710903D01*
X182754520Y-84789831D01*
X182883949Y-84896051D01*
X182990169Y-85025480D01*
X183069097Y-85173145D01*
X183117701Y-85333370D01*
X183134112Y-85500000D01*
X183117701Y-85666630D01*
X183069097Y-85826855D01*
X182990169Y-85974520D01*
X182883949Y-86103949D01*
X182754520Y-86210169D01*
X182606855Y-86289097D01*
X182446630Y-86337701D01*
X182321752Y-86350000D01*
X182238248Y-86350000D01*
X182113370Y-86337701D01*
X181953145Y-86289097D01*
X181805480Y-86210169D01*
X181676051Y-86103949D01*
X181569831Y-85974520D01*
X181490903Y-85826855D01*
X181442299Y-85666630D01*
X181425888Y-85500000D01*
X181442299Y-85333370D01*
X181490903Y-85173145D01*
X181569831Y-85025480D01*
X181676051Y-84896051D01*
X181805480Y-84789831D01*
X181953145Y-84710903D01*
X182113370Y-84662299D01*
X182238248Y-84650000D01*
X182321752Y-84650000D01*
X182446630Y-84662299D01*
X182446630Y-84662299D01*
G37*
G36*
X187526630Y-84662299D02*
X187686855Y-84710903D01*
X187834520Y-84789831D01*
X187963949Y-84896051D01*
X188070169Y-85025480D01*
X188149097Y-85173145D01*
X188197701Y-85333370D01*
X188214112Y-85500000D01*
X188197701Y-85666630D01*
X188149097Y-85826855D01*
X188070169Y-85974520D01*
X187963949Y-86103949D01*
X187834520Y-86210169D01*
X187686855Y-86289097D01*
X187526630Y-86337701D01*
X187401752Y-86350000D01*
X187318248Y-86350000D01*
X187193370Y-86337701D01*
X187033145Y-86289097D01*
X186885480Y-86210169D01*
X186756051Y-86103949D01*
X186649831Y-85974520D01*
X186570903Y-85826855D01*
X186522299Y-85666630D01*
X186505888Y-85500000D01*
X186522299Y-85333370D01*
X186570903Y-85173145D01*
X186649831Y-85025480D01*
X186756051Y-84896051D01*
X186885480Y-84789831D01*
X187033145Y-84710903D01*
X187193370Y-84662299D01*
X187318248Y-84650000D01*
X187401752Y-84650000D01*
X187526630Y-84662299D01*
X187526630Y-84662299D01*
G37*
G36*
X190750000Y-86350000D02*
X189050000Y-86350000D01*
X189050000Y-84650000D01*
X190750000Y-84650000D01*
X190750000Y-86350000D01*
X190750000Y-86350000D01*
G37*
G36*
X202155000Y-86200000D02*
X200605000Y-86200000D01*
X200605000Y-84900000D01*
X202155000Y-84900000D01*
X202155000Y-86200000D01*
X202155000Y-86200000D01*
G37*
G36*
X194195000Y-86200000D02*
X192645000Y-86200000D01*
X192645000Y-84900000D01*
X194195000Y-84900000D01*
X194195000Y-86200000D01*
X194195000Y-86200000D01*
G37*
G36*
X160025000Y-85750000D02*
X158775000Y-85750000D01*
X158775000Y-84750000D01*
X160025000Y-84750000D01*
X160025000Y-85750000D01*
X160025000Y-85750000D01*
G37*
G36*
X150725000Y-85750000D02*
X149475000Y-85750000D01*
X149475000Y-84750000D01*
X150725000Y-84750000D01*
X150725000Y-85750000D01*
X150725000Y-85750000D01*
G37*
G36*
X152325000Y-85650000D02*
X151575000Y-85650000D01*
X151575000Y-84850000D01*
X152325000Y-84850000D01*
X152325000Y-85650000D01*
X152325000Y-85650000D01*
G37*
G36*
X157975000Y-85650000D02*
X157225000Y-85650000D01*
X157225000Y-84850000D01*
X157975000Y-84850000D01*
X157975000Y-85650000D01*
X157975000Y-85650000D01*
G37*
G36*
X156480000Y-85575000D02*
X155420000Y-85575000D01*
X155420000Y-84925000D01*
X156480000Y-84925000D01*
X156480000Y-85575000D01*
X156480000Y-85575000D01*
G37*
G36*
X154280000Y-85575000D02*
X153220000Y-85575000D01*
X153220000Y-84925000D01*
X154280000Y-84925000D01*
X154280000Y-85575000D01*
X154280000Y-85575000D01*
G37*
G36*
X165550000Y-81850000D02*
X163850000Y-81850000D01*
X163850000Y-80150000D01*
X165550000Y-80150000D01*
X165550000Y-81850000D01*
X165550000Y-81850000D01*
G37*
G36*
X175026630Y-80162299D02*
X175186855Y-80210903D01*
X175334520Y-80289831D01*
X175463949Y-80396051D01*
X175570169Y-80525480D01*
X175649097Y-80673145D01*
X175697701Y-80833370D01*
X175714112Y-81000000D01*
X175697701Y-81166630D01*
X175649097Y-81326855D01*
X175570169Y-81474520D01*
X175463949Y-81603949D01*
X175334520Y-81710169D01*
X175186855Y-81789097D01*
X175026630Y-81837701D01*
X174901752Y-81850000D01*
X174818248Y-81850000D01*
X174693370Y-81837701D01*
X174533145Y-81789097D01*
X174385480Y-81710169D01*
X174256051Y-81603949D01*
X174149831Y-81474520D01*
X174070903Y-81326855D01*
X174022299Y-81166630D01*
X174005888Y-81000000D01*
X174022299Y-80833370D01*
X174070903Y-80673145D01*
X174149831Y-80525480D01*
X174256051Y-80396051D01*
X174385480Y-80289831D01*
X174533145Y-80210903D01*
X174693370Y-80162299D01*
X174818248Y-80150000D01*
X174901752Y-80150000D01*
X175026630Y-80162299D01*
X175026630Y-80162299D01*
G37*
G36*
X167406630Y-80162299D02*
X167566855Y-80210903D01*
X167714520Y-80289831D01*
X167843949Y-80396051D01*
X167950169Y-80525480D01*
X168029097Y-80673145D01*
X168077701Y-80833370D01*
X168094112Y-81000000D01*
X168077701Y-81166630D01*
X168029097Y-81326855D01*
X167950169Y-81474520D01*
X167843949Y-81603949D01*
X167714520Y-81710169D01*
X167566855Y-81789097D01*
X167406630Y-81837701D01*
X167281752Y-81850000D01*
X167198248Y-81850000D01*
X167073370Y-81837701D01*
X166913145Y-81789097D01*
X166765480Y-81710169D01*
X166636051Y-81603949D01*
X166529831Y-81474520D01*
X166450903Y-81326855D01*
X166402299Y-81166630D01*
X166385888Y-81000000D01*
X166402299Y-80833370D01*
X166450903Y-80673145D01*
X166529831Y-80525480D01*
X166636051Y-80396051D01*
X166765480Y-80289831D01*
X166913145Y-80210903D01*
X167073370Y-80162299D01*
X167198248Y-80150000D01*
X167281752Y-80150000D01*
X167406630Y-80162299D01*
X167406630Y-80162299D01*
G37*
G36*
X172486630Y-80162299D02*
X172646855Y-80210903D01*
X172794520Y-80289831D01*
X172923949Y-80396051D01*
X173030169Y-80525480D01*
X173109097Y-80673145D01*
X173157701Y-80833370D01*
X173174112Y-81000000D01*
X173157701Y-81166630D01*
X173109097Y-81326855D01*
X173030169Y-81474520D01*
X172923949Y-81603949D01*
X172794520Y-81710169D01*
X172646855Y-81789097D01*
X172486630Y-81837701D01*
X172361752Y-81850000D01*
X172278248Y-81850000D01*
X172153370Y-81837701D01*
X171993145Y-81789097D01*
X171845480Y-81710169D01*
X171716051Y-81603949D01*
X171609831Y-81474520D01*
X171530903Y-81326855D01*
X171482299Y-81166630D01*
X171465888Y-81000000D01*
X171482299Y-80833370D01*
X171530903Y-80673145D01*
X171609831Y-80525480D01*
X171716051Y-80396051D01*
X171845480Y-80289831D01*
X171993145Y-80210903D01*
X172153370Y-80162299D01*
X172278248Y-80150000D01*
X172361752Y-80150000D01*
X172486630Y-80162299D01*
X172486630Y-80162299D01*
G37*
G36*
X177566630Y-80162299D02*
X177726855Y-80210903D01*
X177874520Y-80289831D01*
X178003949Y-80396051D01*
X178110169Y-80525480D01*
X178189097Y-80673145D01*
X178237701Y-80833370D01*
X178254112Y-81000000D01*
X178237701Y-81166630D01*
X178189097Y-81326855D01*
X178110169Y-81474520D01*
X178003949Y-81603949D01*
X177874520Y-81710169D01*
X177726855Y-81789097D01*
X177566630Y-81837701D01*
X177441752Y-81850000D01*
X177358248Y-81850000D01*
X177233370Y-81837701D01*
X177073145Y-81789097D01*
X176925480Y-81710169D01*
X176796051Y-81603949D01*
X176689831Y-81474520D01*
X176610903Y-81326855D01*
X176562299Y-81166630D01*
X176545888Y-81000000D01*
X176562299Y-80833370D01*
X176610903Y-80673145D01*
X176689831Y-80525480D01*
X176796051Y-80396051D01*
X176925480Y-80289831D01*
X177073145Y-80210903D01*
X177233370Y-80162299D01*
X177358248Y-80150000D01*
X177441752Y-80150000D01*
X177566630Y-80162299D01*
X177566630Y-80162299D01*
G37*
G36*
X169946630Y-80162299D02*
X170106855Y-80210903D01*
X170254520Y-80289831D01*
X170383949Y-80396051D01*
X170490169Y-80525480D01*
X170569097Y-80673145D01*
X170617701Y-80833370D01*
X170634112Y-81000000D01*
X170617701Y-81166630D01*
X170569097Y-81326855D01*
X170490169Y-81474520D01*
X170383949Y-81603949D01*
X170254520Y-81710169D01*
X170106855Y-81789097D01*
X169946630Y-81837701D01*
X169821752Y-81850000D01*
X169738248Y-81850000D01*
X169613370Y-81837701D01*
X169453145Y-81789097D01*
X169305480Y-81710169D01*
X169176051Y-81603949D01*
X169069831Y-81474520D01*
X168990903Y-81326855D01*
X168942299Y-81166630D01*
X168925888Y-81000000D01*
X168942299Y-80833370D01*
X168990903Y-80673145D01*
X169069831Y-80525480D01*
X169176051Y-80396051D01*
X169305480Y-80289831D01*
X169453145Y-80210903D01*
X169613370Y-80162299D01*
X169738248Y-80150000D01*
X169821752Y-80150000D01*
X169946630Y-80162299D01*
X169946630Y-80162299D01*
G37*
G36*
X202155000Y-81700000D02*
X200605000Y-81700000D01*
X200605000Y-80400000D01*
X202155000Y-80400000D01*
X202155000Y-81700000D01*
X202155000Y-81700000D01*
G37*
G36*
X194195000Y-81700000D02*
X192645000Y-81700000D01*
X192645000Y-80400000D01*
X194195000Y-80400000D01*
X194195000Y-81700000D01*
X194195000Y-81700000D01*
G37*
G36*
X158087252Y-74682096D02*
X158247477Y-74730700D01*
X158395142Y-74809628D01*
X158524571Y-74915848D01*
X158630791Y-75045277D01*
X158709719Y-75192942D01*
X158758323Y-75353167D01*
X158774734Y-75519797D01*
X158758323Y-75686427D01*
X158709719Y-75846652D01*
X158630791Y-75994317D01*
X158524571Y-76123746D01*
X158395142Y-76229966D01*
X158247477Y-76308894D01*
X158087252Y-76357498D01*
X157962374Y-76369797D01*
X157878870Y-76369797D01*
X157753992Y-76357498D01*
X157593767Y-76308894D01*
X157446102Y-76229966D01*
X157316673Y-76123746D01*
X157210453Y-75994317D01*
X157131525Y-75846652D01*
X157082921Y-75686427D01*
X157066510Y-75519797D01*
X157082921Y-75353167D01*
X157131525Y-75192942D01*
X157210453Y-75045277D01*
X157316673Y-74915848D01*
X157446102Y-74809628D01*
X157593767Y-74730700D01*
X157753992Y-74682096D01*
X157878870Y-74669797D01*
X157962374Y-74669797D01*
X158087252Y-74682096D01*
X158087252Y-74682096D01*
G37*
G36*
X189366630Y-74642299D02*
X189526855Y-74690903D01*
X189674520Y-74769831D01*
X189803949Y-74876051D01*
X189910169Y-75005480D01*
X189989097Y-75153145D01*
X190037701Y-75313370D01*
X190054112Y-75480000D01*
X190037701Y-75646630D01*
X189989097Y-75806855D01*
X189910169Y-75954520D01*
X189803949Y-76083949D01*
X189674520Y-76190169D01*
X189526855Y-76269097D01*
X189366630Y-76317701D01*
X189241752Y-76330000D01*
X189158248Y-76330000D01*
X189033370Y-76317701D01*
X188873145Y-76269097D01*
X188725480Y-76190169D01*
X188596051Y-76083949D01*
X188489831Y-75954520D01*
X188410903Y-75806855D01*
X188362299Y-75646630D01*
X188345888Y-75480000D01*
X188362299Y-75313370D01*
X188410903Y-75153145D01*
X188489831Y-75005480D01*
X188596051Y-74876051D01*
X188725480Y-74769831D01*
X188873145Y-74690903D01*
X189033370Y-74642299D01*
X189158248Y-74630000D01*
X189241752Y-74630000D01*
X189366630Y-74642299D01*
X189366630Y-74642299D01*
G37*
G36*
X158087252Y-72142096D02*
X158247477Y-72190700D01*
X158395142Y-72269628D01*
X158524571Y-72375848D01*
X158630791Y-72505277D01*
X158709719Y-72652942D01*
X158758323Y-72813167D01*
X158774734Y-72979797D01*
X158758323Y-73146427D01*
X158709719Y-73306652D01*
X158630791Y-73454317D01*
X158524571Y-73583746D01*
X158395142Y-73689966D01*
X158247477Y-73768894D01*
X158087252Y-73817498D01*
X157962374Y-73829797D01*
X157878870Y-73829797D01*
X157753992Y-73817498D01*
X157593767Y-73768894D01*
X157446102Y-73689966D01*
X157316673Y-73583746D01*
X157210453Y-73454317D01*
X157131525Y-73306652D01*
X157082921Y-73146427D01*
X157066510Y-72979797D01*
X157082921Y-72813167D01*
X157131525Y-72652942D01*
X157210453Y-72505277D01*
X157316673Y-72375848D01*
X157446102Y-72269628D01*
X157593767Y-72190700D01*
X157753992Y-72142096D01*
X157878870Y-72129797D01*
X157962374Y-72129797D01*
X158087252Y-72142096D01*
X158087252Y-72142096D01*
G37*
G36*
X189366630Y-72102299D02*
X189526855Y-72150903D01*
X189674520Y-72229831D01*
X189803949Y-72336051D01*
X189910169Y-72465480D01*
X189989097Y-72613145D01*
X190037701Y-72773370D01*
X190054112Y-72940000D01*
X190037701Y-73106630D01*
X189989097Y-73266855D01*
X189910169Y-73414520D01*
X189803949Y-73543949D01*
X189674520Y-73650169D01*
X189526855Y-73729097D01*
X189366630Y-73777701D01*
X189241752Y-73790000D01*
X189158248Y-73790000D01*
X189033370Y-73777701D01*
X188873145Y-73729097D01*
X188725480Y-73650169D01*
X188596051Y-73543949D01*
X188489831Y-73414520D01*
X188410903Y-73266855D01*
X188362299Y-73106630D01*
X188345888Y-72940000D01*
X188362299Y-72773370D01*
X188410903Y-72613145D01*
X188489831Y-72465480D01*
X188596051Y-72336051D01*
X188725480Y-72229831D01*
X188873145Y-72150903D01*
X189033370Y-72102299D01*
X189158248Y-72090000D01*
X189241752Y-72090000D01*
X189366630Y-72102299D01*
X189366630Y-72102299D01*
G37*
G36*
X150470622Y-73539797D02*
X149570622Y-73539797D01*
X149570622Y-73039797D01*
X150470622Y-73039797D01*
X150470622Y-73539797D01*
X150470622Y-73539797D01*
G37*
G36*
X181450000Y-73500000D02*
X180550000Y-73500000D01*
X180550000Y-73000000D01*
X181450000Y-73000000D01*
X181450000Y-73500000D01*
X181450000Y-73500000D01*
G37*
G36*
X153110622Y-73244797D02*
X152410622Y-73244797D01*
X152410622Y-72734797D01*
X153110622Y-72734797D01*
X153110622Y-73244797D01*
X153110622Y-73244797D01*
G37*
G36*
X155430622Y-73244797D02*
X154730622Y-73244797D01*
X154730622Y-72734797D01*
X155430622Y-72734797D01*
X155430622Y-73244797D01*
X155430622Y-73244797D01*
G37*
G36*
X184190000Y-73205000D02*
X183490000Y-73205000D01*
X183490000Y-72695000D01*
X184190000Y-72695000D01*
X184190000Y-73205000D01*
X184190000Y-73205000D01*
G37*
G36*
X186510000Y-73205000D02*
X185810000Y-73205000D01*
X185810000Y-72695000D01*
X186510000Y-72695000D01*
X186510000Y-73205000D01*
X186510000Y-73205000D01*
G37*
G36*
X153110622Y-72294797D02*
X152410622Y-72294797D01*
X152410622Y-71784797D01*
X153110622Y-71784797D01*
X153110622Y-72294797D01*
X153110622Y-72294797D01*
G37*
G36*
X155430622Y-72294797D02*
X154730622Y-72294797D01*
X154730622Y-71784797D01*
X155430622Y-71784797D01*
X155430622Y-72294797D01*
X155430622Y-72294797D01*
G37*
G36*
X184190000Y-72255000D02*
X183490000Y-72255000D01*
X183490000Y-71745000D01*
X184190000Y-71745000D01*
X184190000Y-72255000D01*
X184190000Y-72255000D01*
G37*
G36*
X186510000Y-72255000D02*
X185810000Y-72255000D01*
X185810000Y-71745000D01*
X186510000Y-71745000D01*
X186510000Y-72255000D01*
X186510000Y-72255000D01*
G37*
G36*
X150470622Y-72039797D02*
X149570622Y-72039797D01*
X149570622Y-71539797D01*
X150470622Y-71539797D01*
X150470622Y-72039797D01*
X150470622Y-72039797D01*
G37*
G36*
X181450000Y-72000000D02*
X180550000Y-72000000D01*
X180550000Y-71500000D01*
X181450000Y-71500000D01*
X181450000Y-72000000D01*
X181450000Y-72000000D01*
G37*
G36*
X208510473Y-68417193D02*
X208828963Y-68549116D01*
X209115601Y-68740641D01*
X209359359Y-68984399D01*
X209550884Y-69271037D01*
X209682807Y-69589527D01*
X209750060Y-69927633D01*
X209750060Y-70272367D01*
X209682807Y-70610473D01*
X209550884Y-70928963D01*
X209359359Y-71215601D01*
X209115601Y-71459359D01*
X208828963Y-71650884D01*
X208510473Y-71782807D01*
X208172367Y-71850060D01*
X207827633Y-71850060D01*
X207489527Y-71782807D01*
X207171037Y-71650884D01*
X206884399Y-71459359D01*
X206640641Y-71215601D01*
X206449116Y-70928963D01*
X206317193Y-70610473D01*
X206249940Y-70272367D01*
X206249940Y-69927633D01*
X206317193Y-69589527D01*
X206449116Y-69271037D01*
X206640641Y-68984399D01*
X206884399Y-68740641D01*
X207171037Y-68549116D01*
X207489527Y-68417193D01*
X207827633Y-68349940D01*
X208172367Y-68349940D01*
X208510473Y-68417193D01*
X208510473Y-68417193D01*
G37*
G36*
X144510473Y-68417193D02*
X144828963Y-68549116D01*
X145115601Y-68740641D01*
X145359359Y-68984399D01*
X145550884Y-69271037D01*
X145682807Y-69589527D01*
X145750060Y-69927633D01*
X145750060Y-70272367D01*
X145682807Y-70610473D01*
X145550884Y-70928963D01*
X145359359Y-71215601D01*
X145115601Y-71459359D01*
X144828963Y-71650884D01*
X144510473Y-71782807D01*
X144172367Y-71850060D01*
X143827633Y-71850060D01*
X143489527Y-71782807D01*
X143171037Y-71650884D01*
X142884399Y-71459359D01*
X142640641Y-71215601D01*
X142449116Y-70928963D01*
X142317193Y-70610473D01*
X142249940Y-70272367D01*
X142249940Y-69927633D01*
X142317193Y-69589527D01*
X142449116Y-69271037D01*
X142640641Y-68984399D01*
X142884399Y-68740641D01*
X143171037Y-68549116D01*
X143489527Y-68417193D01*
X143827633Y-68349940D01*
X144172367Y-68349940D01*
X144510473Y-68417193D01*
X144510473Y-68417193D01*
G37*
G36*
X153110622Y-71344797D02*
X152410622Y-71344797D01*
X152410622Y-70834797D01*
X153110622Y-70834797D01*
X153110622Y-71344797D01*
X153110622Y-71344797D01*
G37*
G36*
X155430622Y-71344797D02*
X154730622Y-71344797D01*
X154730622Y-70834797D01*
X155430622Y-70834797D01*
X155430622Y-71344797D01*
X155430622Y-71344797D01*
G37*
G36*
X186510000Y-71305000D02*
X185810000Y-71305000D01*
X185810000Y-70795000D01*
X186510000Y-70795000D01*
X186510000Y-71305000D01*
X186510000Y-71305000D01*
G37*
G36*
X184190000Y-71305000D02*
X183490000Y-71305000D01*
X183490000Y-70795000D01*
X184190000Y-70795000D01*
X184190000Y-71305000D01*
X184190000Y-71305000D01*
G37*
G36*
X158770622Y-71289797D02*
X157070622Y-71289797D01*
X157070622Y-69589797D01*
X158770622Y-69589797D01*
X158770622Y-71289797D01*
X158770622Y-71289797D01*
G37*
G36*
X190050000Y-71250000D02*
X188350000Y-71250000D01*
X188350000Y-69550000D01*
X190050000Y-69550000D01*
X190050000Y-71250000D01*
X190050000Y-71250000D01*
G37*
M02*
