M48
;DRILL file {KiCad (5.0.2)-1} date 24. 12. 2018 13:59:15
;FORMAT={-:-/ absolute / inch / decimal}
FMAT,2
INCH,TZ
T1C0.0118
T2C0.0130
T3C0.0157
T4C0.0197
T5C0.0394
T6C0.0472
T7C0.0866
%
G90
G05
T1
X6.622Y-5.3858
X6.622Y-5.4331
X6.6535Y-5.3858
X6.6535Y-5.4331
X6.685Y-5.3858
X6.685Y-5.4331
X6.7165Y-5.3858
X6.7165Y-5.4331
T2
X7.6417Y-5.7224
X7.6417Y-5.7815
X7.6417Y-5.8406
X7.7008Y-5.7224
X7.7008Y-5.7815
X7.7008Y-5.8406
T3
X5.6378Y-5.8858
X5.7839Y-2.8264
X5.8268Y-3.1772
X5.8386Y-5.7795
X5.8661Y-6.0512
X5.9252Y-5.7677
X5.9469Y-5.6831
X6.0276Y-4.5551
X6.0551Y-3.2953
X6.0551Y-3.4882
X6.0807Y-4.061
X6.0866Y-4.7205
X6.1152Y-4.1732
X6.122Y-3.5039
X6.1299Y-3.5472
X6.1811Y-5.6339
X6.1811Y-5.7362
X6.185Y-4.4055
X6.2008Y-5.5433
X6.2205Y-3.5472
X6.2874Y-3.2559
X6.3346Y-2.7323
X6.4016Y-3.0354
X6.4478Y-3.3563
X6.4646Y-3.6535
X6.4665Y-3.7283
X6.4862Y-4.2539
X6.5157Y-4.0315
X6.5394Y-3.2756
X6.5551Y-3.3268
X6.5827Y-3.6811
X6.6063Y-3.9567
X6.6102Y-4.0276
X6.6181Y-3.815
X6.622Y-3.8602
X6.622Y-3.9055
X6.622Y-4.2835
X6.626Y-3.3543
X6.6443Y-5.2348
X6.6457Y-3.7087
X6.6614Y-3.9488
X6.6732Y-4.2756
X6.6929Y-5.2323
X6.6969Y-4.0236
X6.7008Y-3.7795
X6.7008Y-3.9488
X6.7362Y-4.0197
X6.7402Y-3.9016
X6.7559Y-4.5157
X6.7717Y-3.4409
X6.7756Y-5.6142
X6.7795Y-4.002
X6.7835Y-3.7008
X6.7913Y-5.0315
X6.811Y-4.5512
X6.815Y-3.4528
X6.8189Y-3.6811
X6.8189Y-5.7835
X6.8307Y-5.6142
X6.8346Y-3.7913
X6.8504Y-3.7126
X6.8504Y-3.8701
X6.8622Y-3.2756
X6.8819Y-3.5551
X6.8819Y-3.6811
X6.8898Y-3.3228
X6.8898Y-3.8701
X6.8937Y-4.2992
X6.9055Y-3.9252
X6.9331Y-3.815
X6.9646Y-3.5748
X6.9803Y-4.0315
X6.9882Y-4.5512
X6.9961Y-4.6378
X6.9961Y-5.0315
X7.0236Y-4.0197
X7.0551Y-3.9252
X7.0591Y-3.9685
X7.0866Y-3.8583
X7.1024Y-3.2008
X7.1024Y-4.5354
X7.1181Y-4.0315
X7.1575Y-4.0669
X7.1654Y-5.752
X7.1811Y-4.126
X7.1929Y-3.1102
X7.2047Y-3.2244
X7.2165Y-2.7283
X7.2244Y-3.8071
X7.2244Y-3.8504
X7.2244Y-3.8898
X7.2283Y-3.0197
X7.2283Y-4.7874
X7.2323Y-4.0591
X7.2402Y-4.3189
X7.2559Y-5.1811
X7.3622Y-4.3189
X7.3661Y-3.
X7.374Y-4.122
X7.4094Y-3.2756
X7.4528Y-5.437
X7.4528Y-5.5512
X7.4764Y-5.9528
X7.5472Y-5.6299
X7.5472Y-6.0276
X7.5512Y-3.4724
X7.6457Y-5.9764
X7.7047Y-3.7126
X7.7047Y-5.5669
X7.7126Y-4.8386
X7.7205Y-4.8976
X7.7283Y-4.5157
X7.7362Y-2.9134
X7.7795Y-4.1299
X7.7992Y-4.5039
X7.813Y-4.7697
X7.8307Y-5.6811
X7.8346Y-4.1378
X7.9134Y-5.0429
X7.9134Y-5.1339
X7.9555Y-4.6299
X7.9685Y-4.0079
X7.9724Y-5.6457
X7.9764Y-4.2953
X7.9921Y-5.3622
X8.0276Y-3.2756
X8.0276Y-3.9528
X8.063Y-3.3268
X8.063Y-4.1024
X8.0709Y-3.0906
X8.0709Y-3.2205
X8.122Y-2.8543
X8.126Y-4.9134
X8.1732Y-3.0906
X8.1772Y-5.9252
T5
X6.2173Y-2.7732
X6.2173Y-2.8732
X6.2173Y-2.9732
X7.1516Y-5.4921
X7.1516Y-5.5921
X6.4055Y-4.3937
X6.5055Y-4.3937
X6.6055Y-4.3937
X6.7055Y-4.3937
X6.8055Y-4.3937
X6.9055Y-4.3937
X7.0055Y-4.3937
X7.3465Y-5.622
X7.3465Y-5.722
X7.3465Y-5.822
X7.3465Y-5.922
X7.1764Y-3.3661
X7.2764Y-3.3661
X7.3764Y-3.3661
X7.4764Y-3.3661
X5.9469Y-3.761
X5.9469Y-3.861
X5.9469Y-3.961
X5.9469Y-4.061
X7.4488Y-2.7717
X7.4488Y-2.8717
X7.4488Y-2.9717
X6.4843Y-3.189
X6.5843Y-3.189
X6.6843Y-3.189
X6.7843Y-3.189
X6.8843Y-3.189
X6.9843Y-3.189
T6
X7.7146Y-3.7717
X7.7146Y-4.0866
T7
X8.189Y-6.0669
X8.189Y-2.7598
X5.6693Y-2.7598
X5.6693Y-6.0669
T4
X6.6264Y-5.972G85X6.6264Y-5.9957
G05
X6.6406Y-5.7378G85X6.6406Y-5.7614
G05
X6.9657Y-5.7378G85X6.9657Y-5.7614
G05
X6.9799Y-5.972G85X6.9799Y-5.9957
G05
T0
M30
