G04 #@! TF.GenerationSoftware,KiCad,Pcbnew,(5.0.2)-1*
G04 #@! TF.CreationDate,2018-12-24T13:58:37+01:00*
G04 #@! TF.ProjectId,NeuralRobot,4e657572-616c-4526-9f62-6f742e6b6963,rev?*
G04 #@! TF.SameCoordinates,Original*
G04 #@! TF.FileFunction,Soldermask,Bot*
G04 #@! TF.FilePolarity,Negative*
%FSLAX46Y46*%
G04 Gerber Fmt 4.6, Leading zero omitted, Abs format (unit mm)*
G04 Created by KiCad (PCBNEW (5.0.2)-1) date 24. 12. 2018 13:58:37*
%MOMM*%
%LPD*%
G01*
G04 APERTURE LIST*
%ADD10C,0.050000*%
G04 APERTURE END LIST*
D10*
G36*
X208510473Y-152417193D02*
X208828963Y-152549116D01*
X209115601Y-152740641D01*
X209359359Y-152984399D01*
X209550884Y-153271037D01*
X209682807Y-153589527D01*
X209750060Y-153927633D01*
X209750060Y-154272367D01*
X209682807Y-154610473D01*
X209550884Y-154928963D01*
X209359359Y-155215601D01*
X209115601Y-155459359D01*
X208828963Y-155650884D01*
X208510473Y-155782807D01*
X208172367Y-155850060D01*
X207827633Y-155850060D01*
X207489527Y-155782807D01*
X207171037Y-155650884D01*
X206884399Y-155459359D01*
X206640641Y-155215601D01*
X206449116Y-154928963D01*
X206317193Y-154610473D01*
X206249940Y-154272367D01*
X206249940Y-153927633D01*
X206317193Y-153589527D01*
X206449116Y-153271037D01*
X206640641Y-152984399D01*
X206884399Y-152740641D01*
X207171037Y-152549116D01*
X207489527Y-152417193D01*
X207827633Y-152349940D01*
X208172367Y-152349940D01*
X208510473Y-152417193D01*
X208510473Y-152417193D01*
G37*
G36*
X144510473Y-152417193D02*
X144828963Y-152549116D01*
X145115601Y-152740641D01*
X145359359Y-152984399D01*
X145550884Y-153271037D01*
X145682807Y-153589527D01*
X145750060Y-153927633D01*
X145750060Y-154272367D01*
X145682807Y-154610473D01*
X145550884Y-154928963D01*
X145359359Y-155215601D01*
X145115601Y-155459359D01*
X144828963Y-155650884D01*
X144510473Y-155782807D01*
X144172367Y-155850060D01*
X143827633Y-155850060D01*
X143489527Y-155782807D01*
X143171037Y-155650884D01*
X142884399Y-155459359D01*
X142640641Y-155215601D01*
X142449116Y-154928963D01*
X142317193Y-154610473D01*
X142249940Y-154272367D01*
X142249940Y-153927633D01*
X142317193Y-153589527D01*
X142449116Y-153271037D01*
X142640641Y-152984399D01*
X142884399Y-152740641D01*
X143171037Y-152549116D01*
X143489527Y-152417193D01*
X143827633Y-152349940D01*
X144172367Y-152349940D01*
X144510473Y-152417193D01*
X144510473Y-152417193D01*
G37*
G36*
X177368413Y-151295788D02*
X177443813Y-151318660D01*
X177443816Y-151318662D01*
X177443817Y-151318662D01*
X177513304Y-151355803D01*
X177574211Y-151405789D01*
X177624197Y-151466697D01*
X177661340Y-151536186D01*
X177684212Y-151611586D01*
X177690000Y-151670353D01*
X177690000Y-152309647D01*
X177684212Y-152368414D01*
X177661340Y-152443814D01*
X177624197Y-152513303D01*
X177574211Y-152574211D01*
X177513303Y-152624197D01*
X177443814Y-152661340D01*
X177368414Y-152684212D01*
X177290000Y-152691935D01*
X177211587Y-152684212D01*
X177136187Y-152661340D01*
X177066698Y-152624197D01*
X177005790Y-152574211D01*
X176955804Y-152513303D01*
X176918661Y-152443814D01*
X176895789Y-152368414D01*
X176893969Y-152349940D01*
X176890000Y-152309645D01*
X176890000Y-151670354D01*
X176895788Y-151611589D01*
X176895788Y-151611587D01*
X176918660Y-151536187D01*
X176918662Y-151536183D01*
X176955803Y-151466696D01*
X177005789Y-151405789D01*
X177066695Y-151355805D01*
X177066697Y-151355803D01*
X177136186Y-151318660D01*
X177211586Y-151295788D01*
X177290000Y-151288065D01*
X177368413Y-151295788D01*
X177368413Y-151295788D01*
G37*
G36*
X168388413Y-151295788D02*
X168463813Y-151318660D01*
X168463816Y-151318662D01*
X168463817Y-151318662D01*
X168533304Y-151355803D01*
X168594211Y-151405789D01*
X168644197Y-151466697D01*
X168681340Y-151536186D01*
X168704212Y-151611586D01*
X168710000Y-151670353D01*
X168710000Y-152309647D01*
X168704212Y-152368414D01*
X168681340Y-152443814D01*
X168644197Y-152513303D01*
X168594211Y-152574211D01*
X168533303Y-152624197D01*
X168463814Y-152661340D01*
X168388414Y-152684212D01*
X168310000Y-152691935D01*
X168231587Y-152684212D01*
X168156187Y-152661340D01*
X168086698Y-152624197D01*
X168025790Y-152574211D01*
X167975804Y-152513303D01*
X167938661Y-152443814D01*
X167915789Y-152368414D01*
X167913969Y-152349940D01*
X167910000Y-152309645D01*
X167910000Y-151670354D01*
X167915788Y-151611589D01*
X167915788Y-151611587D01*
X167938660Y-151536187D01*
X167938662Y-151536183D01*
X167975803Y-151466696D01*
X168025789Y-151405789D01*
X168086695Y-151355805D01*
X168086697Y-151355803D01*
X168156186Y-151318660D01*
X168231586Y-151295788D01*
X168310000Y-151288065D01*
X168388413Y-151295788D01*
X168388413Y-151295788D01*
G37*
G36*
X186766630Y-149582299D02*
X186926855Y-149630903D01*
X187074520Y-149709831D01*
X187203949Y-149816051D01*
X187310169Y-149945480D01*
X187389097Y-150093145D01*
X187437701Y-150253370D01*
X187454112Y-150420000D01*
X187437701Y-150586630D01*
X187389097Y-150746855D01*
X187310169Y-150894520D01*
X187203949Y-151023949D01*
X187074520Y-151130169D01*
X186926855Y-151209097D01*
X186766630Y-151257701D01*
X186641752Y-151270000D01*
X186558248Y-151270000D01*
X186433370Y-151257701D01*
X186273145Y-151209097D01*
X186125480Y-151130169D01*
X185996051Y-151023949D01*
X185889831Y-150894520D01*
X185810903Y-150746855D01*
X185762299Y-150586630D01*
X185745888Y-150420000D01*
X185762299Y-150253370D01*
X185810903Y-150093145D01*
X185889831Y-149945480D01*
X185996051Y-149816051D01*
X186125480Y-149709831D01*
X186273145Y-149630903D01*
X186433370Y-149582299D01*
X186558248Y-149570000D01*
X186641752Y-149570000D01*
X186766630Y-149582299D01*
X186766630Y-149582299D01*
G37*
G36*
X186766630Y-147042299D02*
X186926855Y-147090903D01*
X187074520Y-147169831D01*
X187203949Y-147276051D01*
X187310169Y-147405480D01*
X187389097Y-147553145D01*
X187437701Y-147713370D01*
X187454112Y-147880000D01*
X187437701Y-148046630D01*
X187389097Y-148206855D01*
X187310169Y-148354520D01*
X187203949Y-148483949D01*
X187074520Y-148590169D01*
X186926855Y-148669097D01*
X186766630Y-148717701D01*
X186641752Y-148730000D01*
X186558248Y-148730000D01*
X186433370Y-148717701D01*
X186273145Y-148669097D01*
X186125480Y-148590169D01*
X185996051Y-148483949D01*
X185889831Y-148354520D01*
X185810903Y-148206855D01*
X185762299Y-148046630D01*
X185745888Y-147880000D01*
X185762299Y-147713370D01*
X185810903Y-147553145D01*
X185889831Y-147405480D01*
X185996051Y-147276051D01*
X186125480Y-147169831D01*
X186273145Y-147090903D01*
X186433370Y-147042299D01*
X186558248Y-147030000D01*
X186641752Y-147030000D01*
X186766630Y-147042299D01*
X186766630Y-147042299D01*
G37*
G36*
X194209384Y-147989411D02*
X194277629Y-148017679D01*
X194339049Y-148058719D01*
X194391281Y-148110951D01*
X194432321Y-148172371D01*
X194460589Y-148240616D01*
X194475000Y-148313065D01*
X194475000Y-148386935D01*
X194460589Y-148459384D01*
X194432321Y-148527629D01*
X194391281Y-148589049D01*
X194339049Y-148641281D01*
X194277629Y-148682321D01*
X194209384Y-148710589D01*
X194136935Y-148725000D01*
X194063065Y-148725000D01*
X193990616Y-148710589D01*
X193922371Y-148682321D01*
X193860951Y-148641281D01*
X193808719Y-148589049D01*
X193767679Y-148527629D01*
X193739411Y-148459384D01*
X193725000Y-148386935D01*
X193725000Y-148313065D01*
X193739411Y-148240616D01*
X193767679Y-148172371D01*
X193808719Y-148110951D01*
X193860951Y-148058719D01*
X193922371Y-148017679D01*
X193990616Y-147989411D01*
X194063065Y-147975000D01*
X194136935Y-147975000D01*
X194209384Y-147989411D01*
X194209384Y-147989411D01*
G37*
G36*
X195709384Y-147989411D02*
X195777629Y-148017679D01*
X195839049Y-148058719D01*
X195891281Y-148110951D01*
X195932321Y-148172371D01*
X195960589Y-148240616D01*
X195975000Y-148313065D01*
X195975000Y-148386935D01*
X195960589Y-148459384D01*
X195932321Y-148527629D01*
X195891281Y-148589049D01*
X195839049Y-148641281D01*
X195777629Y-148682321D01*
X195709384Y-148710589D01*
X195636935Y-148725000D01*
X195563065Y-148725000D01*
X195490616Y-148710589D01*
X195422371Y-148682321D01*
X195360951Y-148641281D01*
X195308719Y-148589049D01*
X195267679Y-148527629D01*
X195239411Y-148459384D01*
X195225000Y-148386935D01*
X195225000Y-148313065D01*
X195239411Y-148240616D01*
X195267679Y-148172371D01*
X195308719Y-148110951D01*
X195360951Y-148058719D01*
X195422371Y-148017679D01*
X195490616Y-147989411D01*
X195563065Y-147975000D01*
X195636935Y-147975000D01*
X195709384Y-147989411D01*
X195709384Y-147989411D01*
G37*
G36*
X194209384Y-146489411D02*
X194277629Y-146517679D01*
X194339049Y-146558719D01*
X194391281Y-146610951D01*
X194432321Y-146672371D01*
X194460589Y-146740616D01*
X194475000Y-146813065D01*
X194475000Y-146886935D01*
X194460589Y-146959384D01*
X194432321Y-147027629D01*
X194391281Y-147089049D01*
X194339049Y-147141281D01*
X194277629Y-147182321D01*
X194209384Y-147210589D01*
X194136935Y-147225000D01*
X194063065Y-147225000D01*
X193990616Y-147210589D01*
X193922371Y-147182321D01*
X193860951Y-147141281D01*
X193808719Y-147089049D01*
X193767679Y-147027629D01*
X193739411Y-146959384D01*
X193725000Y-146886935D01*
X193725000Y-146813065D01*
X193739411Y-146740616D01*
X193767679Y-146672371D01*
X193808719Y-146610951D01*
X193860951Y-146558719D01*
X193922371Y-146517679D01*
X193990616Y-146489411D01*
X194063065Y-146475000D01*
X194136935Y-146475000D01*
X194209384Y-146489411D01*
X194209384Y-146489411D01*
G37*
G36*
X195709384Y-146489411D02*
X195777629Y-146517679D01*
X195839049Y-146558719D01*
X195891281Y-146610951D01*
X195932321Y-146672371D01*
X195960589Y-146740616D01*
X195975000Y-146813065D01*
X195975000Y-146886935D01*
X195960589Y-146959384D01*
X195932321Y-147027629D01*
X195891281Y-147089049D01*
X195839049Y-147141281D01*
X195777629Y-147182321D01*
X195709384Y-147210589D01*
X195636935Y-147225000D01*
X195563065Y-147225000D01*
X195490616Y-147210589D01*
X195422371Y-147182321D01*
X195360951Y-147141281D01*
X195308719Y-147089049D01*
X195267679Y-147027629D01*
X195239411Y-146959384D01*
X195225000Y-146886935D01*
X195225000Y-146813065D01*
X195239411Y-146740616D01*
X195267679Y-146672371D01*
X195308719Y-146610951D01*
X195360951Y-146558719D01*
X195422371Y-146517679D01*
X195490616Y-146489411D01*
X195563065Y-146475000D01*
X195636935Y-146475000D01*
X195709384Y-146489411D01*
X195709384Y-146489411D01*
G37*
G36*
X168748413Y-145345788D02*
X168823813Y-145368660D01*
X168823816Y-145368662D01*
X168823817Y-145368662D01*
X168893304Y-145405803D01*
X168954211Y-145455789D01*
X169004197Y-145516697D01*
X169041340Y-145586186D01*
X169064212Y-145661586D01*
X169070000Y-145720353D01*
X169070000Y-146359647D01*
X169064212Y-146418414D01*
X169041340Y-146493814D01*
X169004197Y-146563303D01*
X168954211Y-146624211D01*
X168893303Y-146674197D01*
X168823814Y-146711340D01*
X168748414Y-146734212D01*
X168670000Y-146741935D01*
X168591587Y-146734212D01*
X168516187Y-146711340D01*
X168446698Y-146674197D01*
X168385790Y-146624211D01*
X168335804Y-146563303D01*
X168298661Y-146493814D01*
X168275789Y-146418414D01*
X168274649Y-146406836D01*
X168270000Y-146359645D01*
X168270000Y-145720354D01*
X168275788Y-145661589D01*
X168275788Y-145661587D01*
X168298660Y-145586187D01*
X168298662Y-145586183D01*
X168335803Y-145516696D01*
X168385789Y-145455789D01*
X168446695Y-145405805D01*
X168446697Y-145405803D01*
X168516186Y-145368660D01*
X168591586Y-145345788D01*
X168670000Y-145338065D01*
X168748413Y-145345788D01*
X168748413Y-145345788D01*
G37*
G36*
X177008413Y-145345788D02*
X177083813Y-145368660D01*
X177083816Y-145368662D01*
X177083817Y-145368662D01*
X177153304Y-145405803D01*
X177214211Y-145455789D01*
X177264197Y-145516697D01*
X177301340Y-145586186D01*
X177324212Y-145661586D01*
X177330000Y-145720353D01*
X177330000Y-146359647D01*
X177324212Y-146418414D01*
X177301340Y-146493814D01*
X177264197Y-146563303D01*
X177214211Y-146624211D01*
X177153303Y-146674197D01*
X177083814Y-146711340D01*
X177008414Y-146734212D01*
X176930000Y-146741935D01*
X176851587Y-146734212D01*
X176776187Y-146711340D01*
X176706698Y-146674197D01*
X176645790Y-146624211D01*
X176595804Y-146563303D01*
X176558661Y-146493814D01*
X176535789Y-146418414D01*
X176534649Y-146406836D01*
X176530000Y-146359645D01*
X176530000Y-145720354D01*
X176535788Y-145661589D01*
X176535788Y-145661587D01*
X176558660Y-145586187D01*
X176558662Y-145586183D01*
X176595803Y-145516696D01*
X176645789Y-145455789D01*
X176706695Y-145405805D01*
X176706697Y-145405803D01*
X176776186Y-145368660D01*
X176851586Y-145345788D01*
X176930000Y-145338065D01*
X177008413Y-145345788D01*
X177008413Y-145345788D01*
G37*
G36*
X186766630Y-144502299D02*
X186926855Y-144550903D01*
X187074520Y-144629831D01*
X187203949Y-144736051D01*
X187310169Y-144865480D01*
X187389097Y-145013145D01*
X187437701Y-145173370D01*
X187454112Y-145340000D01*
X187437701Y-145506630D01*
X187389097Y-145666855D01*
X187310169Y-145814520D01*
X187203949Y-145943949D01*
X187074520Y-146050169D01*
X186926855Y-146129097D01*
X186766630Y-146177701D01*
X186641752Y-146190000D01*
X186558248Y-146190000D01*
X186433370Y-146177701D01*
X186273145Y-146129097D01*
X186125480Y-146050169D01*
X185996051Y-145943949D01*
X185889831Y-145814520D01*
X185810903Y-145666855D01*
X185762299Y-145506630D01*
X185745888Y-145340000D01*
X185762299Y-145173370D01*
X185810903Y-145013145D01*
X185889831Y-144865480D01*
X185996051Y-144736051D01*
X186125480Y-144629831D01*
X186273145Y-144550903D01*
X186433370Y-144502299D01*
X186558248Y-144490000D01*
X186641752Y-144490000D01*
X186766630Y-144502299D01*
X186766630Y-144502299D01*
G37*
G36*
X194209384Y-144989411D02*
X194277629Y-145017679D01*
X194339049Y-145058719D01*
X194391281Y-145110951D01*
X194432321Y-145172371D01*
X194460589Y-145240616D01*
X194475000Y-145313065D01*
X194475000Y-145386935D01*
X194460589Y-145459384D01*
X194432321Y-145527629D01*
X194391281Y-145589049D01*
X194339049Y-145641281D01*
X194277629Y-145682321D01*
X194209384Y-145710589D01*
X194136935Y-145725000D01*
X194063065Y-145725000D01*
X193990616Y-145710589D01*
X193922371Y-145682321D01*
X193860951Y-145641281D01*
X193808719Y-145589049D01*
X193767679Y-145527629D01*
X193739411Y-145459384D01*
X193725000Y-145386935D01*
X193725000Y-145313065D01*
X193739411Y-145240616D01*
X193767679Y-145172371D01*
X193808719Y-145110951D01*
X193860951Y-145058719D01*
X193922371Y-145017679D01*
X193990616Y-144989411D01*
X194063065Y-144975000D01*
X194136935Y-144975000D01*
X194209384Y-144989411D01*
X194209384Y-144989411D01*
G37*
G36*
X195709384Y-144989411D02*
X195777629Y-145017679D01*
X195839049Y-145058719D01*
X195891281Y-145110951D01*
X195932321Y-145172371D01*
X195960589Y-145240616D01*
X195975000Y-145313065D01*
X195975000Y-145386935D01*
X195960589Y-145459384D01*
X195932321Y-145527629D01*
X195891281Y-145589049D01*
X195839049Y-145641281D01*
X195777629Y-145682321D01*
X195709384Y-145710589D01*
X195636935Y-145725000D01*
X195563065Y-145725000D01*
X195490616Y-145710589D01*
X195422371Y-145682321D01*
X195360951Y-145641281D01*
X195308719Y-145589049D01*
X195267679Y-145527629D01*
X195239411Y-145459384D01*
X195225000Y-145386935D01*
X195225000Y-145313065D01*
X195239411Y-145240616D01*
X195267679Y-145172371D01*
X195308719Y-145110951D01*
X195360951Y-145058719D01*
X195422371Y-145017679D01*
X195490616Y-144989411D01*
X195563065Y-144975000D01*
X195636935Y-144975000D01*
X195709384Y-144989411D01*
X195709384Y-144989411D01*
G37*
G36*
X176613712Y-144469702D02*
X176674972Y-144488285D01*
X176701191Y-144502300D01*
X176731434Y-144518465D01*
X176780921Y-144559079D01*
X176800409Y-144582824D01*
X176821534Y-144608565D01*
X176851715Y-144665028D01*
X176870298Y-144726288D01*
X176876572Y-144790000D01*
X176870298Y-144853712D01*
X176851715Y-144914972D01*
X176836230Y-144943941D01*
X176821535Y-144971434D01*
X176780921Y-145020921D01*
X176731434Y-145061535D01*
X176712614Y-145071594D01*
X176674972Y-145091715D01*
X176613712Y-145110298D01*
X176565965Y-145115000D01*
X176234035Y-145115000D01*
X176186288Y-145110298D01*
X176125028Y-145091715D01*
X176087386Y-145071594D01*
X176068566Y-145061535D01*
X176019079Y-145020921D01*
X175978465Y-144971434D01*
X175963770Y-144943941D01*
X175948285Y-144914972D01*
X175929702Y-144853712D01*
X175923428Y-144790000D01*
X175929702Y-144726288D01*
X175948285Y-144665028D01*
X175978466Y-144608565D01*
X175999592Y-144582824D01*
X176019079Y-144559079D01*
X176068566Y-144518465D01*
X176098809Y-144502300D01*
X176125028Y-144488285D01*
X176186288Y-144469702D01*
X176234035Y-144465000D01*
X176565965Y-144465000D01*
X176613712Y-144469702D01*
X176613712Y-144469702D01*
G37*
G36*
X169294799Y-144477489D02*
X169340543Y-144496437D01*
X169353941Y-144501986D01*
X169353942Y-144501987D01*
X169353945Y-144501988D01*
X169407176Y-144537556D01*
X169452444Y-144582824D01*
X169488012Y-144636055D01*
X169512511Y-144695201D01*
X169525000Y-144757990D01*
X169525000Y-144822010D01*
X169512511Y-144884799D01*
X169488012Y-144943945D01*
X169452444Y-144997176D01*
X169407176Y-145042444D01*
X169353945Y-145078012D01*
X169353942Y-145078013D01*
X169353941Y-145078014D01*
X169340543Y-145083563D01*
X169294799Y-145102511D01*
X169232010Y-145115000D01*
X169167990Y-145115000D01*
X169105201Y-145102511D01*
X169059457Y-145083563D01*
X169046059Y-145078014D01*
X169046058Y-145078013D01*
X169046055Y-145078012D01*
X168992824Y-145042444D01*
X168947556Y-144997176D01*
X168911988Y-144943945D01*
X168887489Y-144884799D01*
X168875000Y-144822010D01*
X168875000Y-144757990D01*
X168887489Y-144695201D01*
X168911988Y-144636055D01*
X168947556Y-144582824D01*
X168992824Y-144537556D01*
X169046055Y-144501988D01*
X169046058Y-144501987D01*
X169046059Y-144501986D01*
X169059457Y-144496437D01*
X169105201Y-144477489D01*
X169167990Y-144465000D01*
X169232010Y-144465000D01*
X169294799Y-144477489D01*
X169294799Y-144477489D01*
G37*
G36*
X187450000Y-143650000D02*
X185750000Y-143650000D01*
X185750000Y-141950000D01*
X187450000Y-141950000D01*
X187450000Y-143650000D01*
X187450000Y-143650000D01*
G37*
G36*
X181816630Y-141202299D02*
X181976855Y-141250903D01*
X182124520Y-141329831D01*
X182253949Y-141436051D01*
X182360169Y-141565480D01*
X182439097Y-141713145D01*
X182487701Y-141873370D01*
X182504112Y-142040000D01*
X182487701Y-142206630D01*
X182439097Y-142366855D01*
X182360169Y-142514520D01*
X182253949Y-142643949D01*
X182124520Y-142750169D01*
X181976855Y-142829097D01*
X181816630Y-142877701D01*
X181691752Y-142890000D01*
X181608248Y-142890000D01*
X181483370Y-142877701D01*
X181323145Y-142829097D01*
X181175480Y-142750169D01*
X181046051Y-142643949D01*
X180939831Y-142514520D01*
X180860903Y-142366855D01*
X180812299Y-142206630D01*
X180795888Y-142040000D01*
X180812299Y-141873370D01*
X180860903Y-141713145D01*
X180939831Y-141565480D01*
X181046051Y-141436051D01*
X181175480Y-141329831D01*
X181323145Y-141250903D01*
X181483370Y-141202299D01*
X181608248Y-141190000D01*
X181691752Y-141190000D01*
X181816630Y-141202299D01*
X181816630Y-141202299D01*
G37*
G36*
X182500000Y-140350000D02*
X180800000Y-140350000D01*
X180800000Y-138650000D01*
X182500000Y-138650000D01*
X182500000Y-140350000D01*
X182500000Y-140350000D01*
G37*
G36*
X165406630Y-110762299D02*
X165566855Y-110810903D01*
X165714520Y-110889831D01*
X165843949Y-110996051D01*
X165950169Y-111125480D01*
X166029097Y-111273145D01*
X166077701Y-111433370D01*
X166094112Y-111600000D01*
X166077701Y-111766630D01*
X166029097Y-111926855D01*
X165950169Y-112074520D01*
X165843949Y-112203949D01*
X165714520Y-112310169D01*
X165566855Y-112389097D01*
X165406630Y-112437701D01*
X165281752Y-112450000D01*
X165198248Y-112450000D01*
X165073370Y-112437701D01*
X164913145Y-112389097D01*
X164765480Y-112310169D01*
X164636051Y-112203949D01*
X164529831Y-112074520D01*
X164450903Y-111926855D01*
X164402299Y-111766630D01*
X164385888Y-111600000D01*
X164402299Y-111433370D01*
X164450903Y-111273145D01*
X164529831Y-111125480D01*
X164636051Y-110996051D01*
X164765480Y-110889831D01*
X164913145Y-110810903D01*
X165073370Y-110762299D01*
X165198248Y-110750000D01*
X165281752Y-110750000D01*
X165406630Y-110762299D01*
X165406630Y-110762299D01*
G37*
G36*
X163550000Y-112450000D02*
X161850000Y-112450000D01*
X161850000Y-110750000D01*
X163550000Y-110750000D01*
X163550000Y-112450000D01*
X163550000Y-112450000D01*
G37*
G36*
X170486630Y-110762299D02*
X170646855Y-110810903D01*
X170794520Y-110889831D01*
X170923949Y-110996051D01*
X171030169Y-111125480D01*
X171109097Y-111273145D01*
X171157701Y-111433370D01*
X171174112Y-111600000D01*
X171157701Y-111766630D01*
X171109097Y-111926855D01*
X171030169Y-112074520D01*
X170923949Y-112203949D01*
X170794520Y-112310169D01*
X170646855Y-112389097D01*
X170486630Y-112437701D01*
X170361752Y-112450000D01*
X170278248Y-112450000D01*
X170153370Y-112437701D01*
X169993145Y-112389097D01*
X169845480Y-112310169D01*
X169716051Y-112203949D01*
X169609831Y-112074520D01*
X169530903Y-111926855D01*
X169482299Y-111766630D01*
X169465888Y-111600000D01*
X169482299Y-111433370D01*
X169530903Y-111273145D01*
X169609831Y-111125480D01*
X169716051Y-110996051D01*
X169845480Y-110889831D01*
X169993145Y-110810903D01*
X170153370Y-110762299D01*
X170278248Y-110750000D01*
X170361752Y-110750000D01*
X170486630Y-110762299D01*
X170486630Y-110762299D01*
G37*
G36*
X167946630Y-110762299D02*
X168106855Y-110810903D01*
X168254520Y-110889831D01*
X168383949Y-110996051D01*
X168490169Y-111125480D01*
X168569097Y-111273145D01*
X168617701Y-111433370D01*
X168634112Y-111600000D01*
X168617701Y-111766630D01*
X168569097Y-111926855D01*
X168490169Y-112074520D01*
X168383949Y-112203949D01*
X168254520Y-112310169D01*
X168106855Y-112389097D01*
X167946630Y-112437701D01*
X167821752Y-112450000D01*
X167738248Y-112450000D01*
X167613370Y-112437701D01*
X167453145Y-112389097D01*
X167305480Y-112310169D01*
X167176051Y-112203949D01*
X167069831Y-112074520D01*
X166990903Y-111926855D01*
X166942299Y-111766630D01*
X166925888Y-111600000D01*
X166942299Y-111433370D01*
X166990903Y-111273145D01*
X167069831Y-111125480D01*
X167176051Y-110996051D01*
X167305480Y-110889831D01*
X167453145Y-110810903D01*
X167613370Y-110762299D01*
X167738248Y-110750000D01*
X167821752Y-110750000D01*
X167946630Y-110762299D01*
X167946630Y-110762299D01*
G37*
G36*
X175566630Y-110762299D02*
X175726855Y-110810903D01*
X175874520Y-110889831D01*
X176003949Y-110996051D01*
X176110169Y-111125480D01*
X176189097Y-111273145D01*
X176237701Y-111433370D01*
X176254112Y-111600000D01*
X176237701Y-111766630D01*
X176189097Y-111926855D01*
X176110169Y-112074520D01*
X176003949Y-112203949D01*
X175874520Y-112310169D01*
X175726855Y-112389097D01*
X175566630Y-112437701D01*
X175441752Y-112450000D01*
X175358248Y-112450000D01*
X175233370Y-112437701D01*
X175073145Y-112389097D01*
X174925480Y-112310169D01*
X174796051Y-112203949D01*
X174689831Y-112074520D01*
X174610903Y-111926855D01*
X174562299Y-111766630D01*
X174545888Y-111600000D01*
X174562299Y-111433370D01*
X174610903Y-111273145D01*
X174689831Y-111125480D01*
X174796051Y-110996051D01*
X174925480Y-110889831D01*
X175073145Y-110810903D01*
X175233370Y-110762299D01*
X175358248Y-110750000D01*
X175441752Y-110750000D01*
X175566630Y-110762299D01*
X175566630Y-110762299D01*
G37*
G36*
X178106630Y-110762299D02*
X178266855Y-110810903D01*
X178414520Y-110889831D01*
X178543949Y-110996051D01*
X178650169Y-111125480D01*
X178729097Y-111273145D01*
X178777701Y-111433370D01*
X178794112Y-111600000D01*
X178777701Y-111766630D01*
X178729097Y-111926855D01*
X178650169Y-112074520D01*
X178543949Y-112203949D01*
X178414520Y-112310169D01*
X178266855Y-112389097D01*
X178106630Y-112437701D01*
X177981752Y-112450000D01*
X177898248Y-112450000D01*
X177773370Y-112437701D01*
X177613145Y-112389097D01*
X177465480Y-112310169D01*
X177336051Y-112203949D01*
X177229831Y-112074520D01*
X177150903Y-111926855D01*
X177102299Y-111766630D01*
X177085888Y-111600000D01*
X177102299Y-111433370D01*
X177150903Y-111273145D01*
X177229831Y-111125480D01*
X177336051Y-110996051D01*
X177465480Y-110889831D01*
X177613145Y-110810903D01*
X177773370Y-110762299D01*
X177898248Y-110750000D01*
X177981752Y-110750000D01*
X178106630Y-110762299D01*
X178106630Y-110762299D01*
G37*
G36*
X173026630Y-110762299D02*
X173186855Y-110810903D01*
X173334520Y-110889831D01*
X173463949Y-110996051D01*
X173570169Y-111125480D01*
X173649097Y-111273145D01*
X173697701Y-111433370D01*
X173714112Y-111600000D01*
X173697701Y-111766630D01*
X173649097Y-111926855D01*
X173570169Y-112074520D01*
X173463949Y-112203949D01*
X173334520Y-112310169D01*
X173186855Y-112389097D01*
X173026630Y-112437701D01*
X172901752Y-112450000D01*
X172818248Y-112450000D01*
X172693370Y-112437701D01*
X172533145Y-112389097D01*
X172385480Y-112310169D01*
X172256051Y-112203949D01*
X172149831Y-112074520D01*
X172070903Y-111926855D01*
X172022299Y-111766630D01*
X172005888Y-111600000D01*
X172022299Y-111433370D01*
X172070903Y-111273145D01*
X172149831Y-111125480D01*
X172256051Y-110996051D01*
X172385480Y-110889831D01*
X172533145Y-110810903D01*
X172693370Y-110762299D01*
X172818248Y-110750000D01*
X172901752Y-110750000D01*
X173026630Y-110762299D01*
X173026630Y-110762299D01*
G37*
G36*
X196125012Y-103223057D02*
X196234207Y-103268287D01*
X196332481Y-103333952D01*
X196416048Y-103417519D01*
X196481713Y-103515793D01*
X196526943Y-103624988D01*
X196550000Y-103740904D01*
X196550000Y-103859096D01*
X196526943Y-103975012D01*
X196481713Y-104084207D01*
X196416048Y-104182481D01*
X196332481Y-104266048D01*
X196234207Y-104331713D01*
X196125012Y-104376943D01*
X196009096Y-104400000D01*
X195890904Y-104400000D01*
X195774988Y-104376943D01*
X195665793Y-104331713D01*
X195567519Y-104266048D01*
X195483952Y-104182481D01*
X195418287Y-104084207D01*
X195373057Y-103975012D01*
X195350000Y-103859096D01*
X195350000Y-103740904D01*
X195373057Y-103624988D01*
X195418287Y-103515793D01*
X195483952Y-103417519D01*
X195567519Y-103333952D01*
X195665793Y-103268287D01*
X195774988Y-103223057D01*
X195890904Y-103200000D01*
X196009096Y-103200000D01*
X196125012Y-103223057D01*
X196125012Y-103223057D01*
G37*
G36*
X151900000Y-104000000D02*
X150200000Y-104000000D01*
X150200000Y-102300000D01*
X151900000Y-102300000D01*
X151900000Y-104000000D01*
X151900000Y-104000000D01*
G37*
G36*
X151216630Y-99772299D02*
X151376855Y-99820903D01*
X151524520Y-99899831D01*
X151653949Y-100006051D01*
X151760169Y-100135480D01*
X151839097Y-100283145D01*
X151887701Y-100443370D01*
X151904112Y-100610000D01*
X151887701Y-100776630D01*
X151839097Y-100936855D01*
X151760169Y-101084520D01*
X151653949Y-101213949D01*
X151524520Y-101320169D01*
X151376855Y-101399097D01*
X151216630Y-101447701D01*
X151091752Y-101460000D01*
X151008248Y-101460000D01*
X150883370Y-101447701D01*
X150723145Y-101399097D01*
X150575480Y-101320169D01*
X150446051Y-101213949D01*
X150339831Y-101084520D01*
X150260903Y-100936855D01*
X150212299Y-100776630D01*
X150195888Y-100610000D01*
X150212299Y-100443370D01*
X150260903Y-100283145D01*
X150339831Y-100135480D01*
X150446051Y-100006051D01*
X150575480Y-99899831D01*
X150723145Y-99820903D01*
X150883370Y-99772299D01*
X151008248Y-99760000D01*
X151091752Y-99760000D01*
X151216630Y-99772299D01*
X151216630Y-99772299D01*
G37*
G36*
X151216630Y-97232299D02*
X151376855Y-97280903D01*
X151524520Y-97359831D01*
X151653949Y-97466051D01*
X151760169Y-97595480D01*
X151839097Y-97743145D01*
X151887701Y-97903370D01*
X151904112Y-98070000D01*
X151887701Y-98236630D01*
X151839097Y-98396855D01*
X151760169Y-98544520D01*
X151653949Y-98673949D01*
X151524520Y-98780169D01*
X151376855Y-98859097D01*
X151216630Y-98907701D01*
X151091752Y-98920000D01*
X151008248Y-98920000D01*
X150883370Y-98907701D01*
X150723145Y-98859097D01*
X150575480Y-98780169D01*
X150446051Y-98673949D01*
X150339831Y-98544520D01*
X150260903Y-98396855D01*
X150212299Y-98236630D01*
X150195888Y-98070000D01*
X150212299Y-97903370D01*
X150260903Y-97743145D01*
X150339831Y-97595480D01*
X150446051Y-97466051D01*
X150575480Y-97359831D01*
X150723145Y-97280903D01*
X150883370Y-97232299D01*
X151008248Y-97220000D01*
X151091752Y-97220000D01*
X151216630Y-97232299D01*
X151216630Y-97232299D01*
G37*
G36*
X196125012Y-95223057D02*
X196234207Y-95268287D01*
X196332481Y-95333952D01*
X196416048Y-95417519D01*
X196481713Y-95515793D01*
X196526943Y-95624988D01*
X196550000Y-95740904D01*
X196550000Y-95859096D01*
X196526943Y-95975012D01*
X196481713Y-96084207D01*
X196416048Y-96182481D01*
X196332481Y-96266048D01*
X196234207Y-96331713D01*
X196125012Y-96376943D01*
X196009096Y-96400000D01*
X195890904Y-96400000D01*
X195774988Y-96376943D01*
X195665793Y-96331713D01*
X195567519Y-96266048D01*
X195483952Y-96182481D01*
X195418287Y-96084207D01*
X195373057Y-95975012D01*
X195350000Y-95859096D01*
X195350000Y-95740904D01*
X195373057Y-95624988D01*
X195418287Y-95515793D01*
X195483952Y-95417519D01*
X195567519Y-95333952D01*
X195665793Y-95268287D01*
X195774988Y-95223057D01*
X195890904Y-95200000D01*
X196009096Y-95200000D01*
X196125012Y-95223057D01*
X196125012Y-95223057D01*
G37*
G36*
X151216630Y-94692299D02*
X151376855Y-94740903D01*
X151524520Y-94819831D01*
X151653949Y-94926051D01*
X151760169Y-95055480D01*
X151839097Y-95203145D01*
X151887701Y-95363370D01*
X151904112Y-95530000D01*
X151887701Y-95696630D01*
X151839097Y-95856855D01*
X151760169Y-96004520D01*
X151653949Y-96133949D01*
X151524520Y-96240169D01*
X151376855Y-96319097D01*
X151216630Y-96367701D01*
X151091752Y-96380000D01*
X151008248Y-96380000D01*
X150883370Y-96367701D01*
X150723145Y-96319097D01*
X150575480Y-96240169D01*
X150446051Y-96133949D01*
X150339831Y-96004520D01*
X150260903Y-95856855D01*
X150212299Y-95696630D01*
X150195888Y-95530000D01*
X150212299Y-95363370D01*
X150260903Y-95203145D01*
X150339831Y-95055480D01*
X150446051Y-94926051D01*
X150575480Y-94819831D01*
X150723145Y-94740903D01*
X150883370Y-94692299D01*
X151008248Y-94680000D01*
X151091752Y-94680000D01*
X151216630Y-94692299D01*
X151216630Y-94692299D01*
G37*
G36*
X187526630Y-84662299D02*
X187686855Y-84710903D01*
X187834520Y-84789831D01*
X187963949Y-84896051D01*
X188070169Y-85025480D01*
X188149097Y-85173145D01*
X188197701Y-85333370D01*
X188214112Y-85500000D01*
X188197701Y-85666630D01*
X188149097Y-85826855D01*
X188070169Y-85974520D01*
X187963949Y-86103949D01*
X187834520Y-86210169D01*
X187686855Y-86289097D01*
X187526630Y-86337701D01*
X187401752Y-86350000D01*
X187318248Y-86350000D01*
X187193370Y-86337701D01*
X187033145Y-86289097D01*
X186885480Y-86210169D01*
X186756051Y-86103949D01*
X186649831Y-85974520D01*
X186570903Y-85826855D01*
X186522299Y-85666630D01*
X186505888Y-85500000D01*
X186522299Y-85333370D01*
X186570903Y-85173145D01*
X186649831Y-85025480D01*
X186756051Y-84896051D01*
X186885480Y-84789831D01*
X187033145Y-84710903D01*
X187193370Y-84662299D01*
X187318248Y-84650000D01*
X187401752Y-84650000D01*
X187526630Y-84662299D01*
X187526630Y-84662299D01*
G37*
G36*
X190750000Y-86350000D02*
X189050000Y-86350000D01*
X189050000Y-84650000D01*
X190750000Y-84650000D01*
X190750000Y-86350000D01*
X190750000Y-86350000D01*
G37*
G36*
X182446630Y-84662299D02*
X182606855Y-84710903D01*
X182754520Y-84789831D01*
X182883949Y-84896051D01*
X182990169Y-85025480D01*
X183069097Y-85173145D01*
X183117701Y-85333370D01*
X183134112Y-85500000D01*
X183117701Y-85666630D01*
X183069097Y-85826855D01*
X182990169Y-85974520D01*
X182883949Y-86103949D01*
X182754520Y-86210169D01*
X182606855Y-86289097D01*
X182446630Y-86337701D01*
X182321752Y-86350000D01*
X182238248Y-86350000D01*
X182113370Y-86337701D01*
X181953145Y-86289097D01*
X181805480Y-86210169D01*
X181676051Y-86103949D01*
X181569831Y-85974520D01*
X181490903Y-85826855D01*
X181442299Y-85666630D01*
X181425888Y-85500000D01*
X181442299Y-85333370D01*
X181490903Y-85173145D01*
X181569831Y-85025480D01*
X181676051Y-84896051D01*
X181805480Y-84789831D01*
X181953145Y-84710903D01*
X182113370Y-84662299D01*
X182238248Y-84650000D01*
X182321752Y-84650000D01*
X182446630Y-84662299D01*
X182446630Y-84662299D01*
G37*
G36*
X184986630Y-84662299D02*
X185146855Y-84710903D01*
X185294520Y-84789831D01*
X185423949Y-84896051D01*
X185530169Y-85025480D01*
X185609097Y-85173145D01*
X185657701Y-85333370D01*
X185674112Y-85500000D01*
X185657701Y-85666630D01*
X185609097Y-85826855D01*
X185530169Y-85974520D01*
X185423949Y-86103949D01*
X185294520Y-86210169D01*
X185146855Y-86289097D01*
X184986630Y-86337701D01*
X184861752Y-86350000D01*
X184778248Y-86350000D01*
X184653370Y-86337701D01*
X184493145Y-86289097D01*
X184345480Y-86210169D01*
X184216051Y-86103949D01*
X184109831Y-85974520D01*
X184030903Y-85826855D01*
X183982299Y-85666630D01*
X183965888Y-85500000D01*
X183982299Y-85333370D01*
X184030903Y-85173145D01*
X184109831Y-85025480D01*
X184216051Y-84896051D01*
X184345480Y-84789831D01*
X184493145Y-84710903D01*
X184653370Y-84662299D01*
X184778248Y-84650000D01*
X184861752Y-84650000D01*
X184986630Y-84662299D01*
X184986630Y-84662299D01*
G37*
G36*
X177566630Y-80162299D02*
X177726855Y-80210903D01*
X177874520Y-80289831D01*
X178003949Y-80396051D01*
X178110169Y-80525480D01*
X178189097Y-80673145D01*
X178237701Y-80833370D01*
X178254112Y-81000000D01*
X178237701Y-81166630D01*
X178189097Y-81326855D01*
X178110169Y-81474520D01*
X178003949Y-81603949D01*
X177874520Y-81710169D01*
X177726855Y-81789097D01*
X177566630Y-81837701D01*
X177441752Y-81850000D01*
X177358248Y-81850000D01*
X177233370Y-81837701D01*
X177073145Y-81789097D01*
X176925480Y-81710169D01*
X176796051Y-81603949D01*
X176689831Y-81474520D01*
X176610903Y-81326855D01*
X176562299Y-81166630D01*
X176545888Y-81000000D01*
X176562299Y-80833370D01*
X176610903Y-80673145D01*
X176689831Y-80525480D01*
X176796051Y-80396051D01*
X176925480Y-80289831D01*
X177073145Y-80210903D01*
X177233370Y-80162299D01*
X177358248Y-80150000D01*
X177441752Y-80150000D01*
X177566630Y-80162299D01*
X177566630Y-80162299D01*
G37*
G36*
X165550000Y-81850000D02*
X163850000Y-81850000D01*
X163850000Y-80150000D01*
X165550000Y-80150000D01*
X165550000Y-81850000D01*
X165550000Y-81850000D01*
G37*
G36*
X167406630Y-80162299D02*
X167566855Y-80210903D01*
X167714520Y-80289831D01*
X167843949Y-80396051D01*
X167950169Y-80525480D01*
X168029097Y-80673145D01*
X168077701Y-80833370D01*
X168094112Y-81000000D01*
X168077701Y-81166630D01*
X168029097Y-81326855D01*
X167950169Y-81474520D01*
X167843949Y-81603949D01*
X167714520Y-81710169D01*
X167566855Y-81789097D01*
X167406630Y-81837701D01*
X167281752Y-81850000D01*
X167198248Y-81850000D01*
X167073370Y-81837701D01*
X166913145Y-81789097D01*
X166765480Y-81710169D01*
X166636051Y-81603949D01*
X166529831Y-81474520D01*
X166450903Y-81326855D01*
X166402299Y-81166630D01*
X166385888Y-81000000D01*
X166402299Y-80833370D01*
X166450903Y-80673145D01*
X166529831Y-80525480D01*
X166636051Y-80396051D01*
X166765480Y-80289831D01*
X166913145Y-80210903D01*
X167073370Y-80162299D01*
X167198248Y-80150000D01*
X167281752Y-80150000D01*
X167406630Y-80162299D01*
X167406630Y-80162299D01*
G37*
G36*
X169946630Y-80162299D02*
X170106855Y-80210903D01*
X170254520Y-80289831D01*
X170383949Y-80396051D01*
X170490169Y-80525480D01*
X170569097Y-80673145D01*
X170617701Y-80833370D01*
X170634112Y-81000000D01*
X170617701Y-81166630D01*
X170569097Y-81326855D01*
X170490169Y-81474520D01*
X170383949Y-81603949D01*
X170254520Y-81710169D01*
X170106855Y-81789097D01*
X169946630Y-81837701D01*
X169821752Y-81850000D01*
X169738248Y-81850000D01*
X169613370Y-81837701D01*
X169453145Y-81789097D01*
X169305480Y-81710169D01*
X169176051Y-81603949D01*
X169069831Y-81474520D01*
X168990903Y-81326855D01*
X168942299Y-81166630D01*
X168925888Y-81000000D01*
X168942299Y-80833370D01*
X168990903Y-80673145D01*
X169069831Y-80525480D01*
X169176051Y-80396051D01*
X169305480Y-80289831D01*
X169453145Y-80210903D01*
X169613370Y-80162299D01*
X169738248Y-80150000D01*
X169821752Y-80150000D01*
X169946630Y-80162299D01*
X169946630Y-80162299D01*
G37*
G36*
X172486630Y-80162299D02*
X172646855Y-80210903D01*
X172794520Y-80289831D01*
X172923949Y-80396051D01*
X173030169Y-80525480D01*
X173109097Y-80673145D01*
X173157701Y-80833370D01*
X173174112Y-81000000D01*
X173157701Y-81166630D01*
X173109097Y-81326855D01*
X173030169Y-81474520D01*
X172923949Y-81603949D01*
X172794520Y-81710169D01*
X172646855Y-81789097D01*
X172486630Y-81837701D01*
X172361752Y-81850000D01*
X172278248Y-81850000D01*
X172153370Y-81837701D01*
X171993145Y-81789097D01*
X171845480Y-81710169D01*
X171716051Y-81603949D01*
X171609831Y-81474520D01*
X171530903Y-81326855D01*
X171482299Y-81166630D01*
X171465888Y-81000000D01*
X171482299Y-80833370D01*
X171530903Y-80673145D01*
X171609831Y-80525480D01*
X171716051Y-80396051D01*
X171845480Y-80289831D01*
X171993145Y-80210903D01*
X172153370Y-80162299D01*
X172278248Y-80150000D01*
X172361752Y-80150000D01*
X172486630Y-80162299D01*
X172486630Y-80162299D01*
G37*
G36*
X175026630Y-80162299D02*
X175186855Y-80210903D01*
X175334520Y-80289831D01*
X175463949Y-80396051D01*
X175570169Y-80525480D01*
X175649097Y-80673145D01*
X175697701Y-80833370D01*
X175714112Y-81000000D01*
X175697701Y-81166630D01*
X175649097Y-81326855D01*
X175570169Y-81474520D01*
X175463949Y-81603949D01*
X175334520Y-81710169D01*
X175186855Y-81789097D01*
X175026630Y-81837701D01*
X174901752Y-81850000D01*
X174818248Y-81850000D01*
X174693370Y-81837701D01*
X174533145Y-81789097D01*
X174385480Y-81710169D01*
X174256051Y-81603949D01*
X174149831Y-81474520D01*
X174070903Y-81326855D01*
X174022299Y-81166630D01*
X174005888Y-81000000D01*
X174022299Y-80833370D01*
X174070903Y-80673145D01*
X174149831Y-80525480D01*
X174256051Y-80396051D01*
X174385480Y-80289831D01*
X174533145Y-80210903D01*
X174693370Y-80162299D01*
X174818248Y-80150000D01*
X174901752Y-80150000D01*
X175026630Y-80162299D01*
X175026630Y-80162299D01*
G37*
G36*
X158087252Y-74682096D02*
X158247477Y-74730700D01*
X158395142Y-74809628D01*
X158524571Y-74915848D01*
X158630791Y-75045277D01*
X158709719Y-75192942D01*
X158758323Y-75353167D01*
X158774734Y-75519797D01*
X158758323Y-75686427D01*
X158709719Y-75846652D01*
X158630791Y-75994317D01*
X158524571Y-76123746D01*
X158395142Y-76229966D01*
X158247477Y-76308894D01*
X158087252Y-76357498D01*
X157962374Y-76369797D01*
X157878870Y-76369797D01*
X157753992Y-76357498D01*
X157593767Y-76308894D01*
X157446102Y-76229966D01*
X157316673Y-76123746D01*
X157210453Y-75994317D01*
X157131525Y-75846652D01*
X157082921Y-75686427D01*
X157066510Y-75519797D01*
X157082921Y-75353167D01*
X157131525Y-75192942D01*
X157210453Y-75045277D01*
X157316673Y-74915848D01*
X157446102Y-74809628D01*
X157593767Y-74730700D01*
X157753992Y-74682096D01*
X157878870Y-74669797D01*
X157962374Y-74669797D01*
X158087252Y-74682096D01*
X158087252Y-74682096D01*
G37*
G36*
X189366630Y-74642299D02*
X189526855Y-74690903D01*
X189674520Y-74769831D01*
X189803949Y-74876051D01*
X189910169Y-75005480D01*
X189989097Y-75153145D01*
X190037701Y-75313370D01*
X190054112Y-75480000D01*
X190037701Y-75646630D01*
X189989097Y-75806855D01*
X189910169Y-75954520D01*
X189803949Y-76083949D01*
X189674520Y-76190169D01*
X189526855Y-76269097D01*
X189366630Y-76317701D01*
X189241752Y-76330000D01*
X189158248Y-76330000D01*
X189033370Y-76317701D01*
X188873145Y-76269097D01*
X188725480Y-76190169D01*
X188596051Y-76083949D01*
X188489831Y-75954520D01*
X188410903Y-75806855D01*
X188362299Y-75646630D01*
X188345888Y-75480000D01*
X188362299Y-75313370D01*
X188410903Y-75153145D01*
X188489831Y-75005480D01*
X188596051Y-74876051D01*
X188725480Y-74769831D01*
X188873145Y-74690903D01*
X189033370Y-74642299D01*
X189158248Y-74630000D01*
X189241752Y-74630000D01*
X189366630Y-74642299D01*
X189366630Y-74642299D01*
G37*
G36*
X158087252Y-72142096D02*
X158247477Y-72190700D01*
X158395142Y-72269628D01*
X158524571Y-72375848D01*
X158630791Y-72505277D01*
X158709719Y-72652942D01*
X158758323Y-72813167D01*
X158774734Y-72979797D01*
X158758323Y-73146427D01*
X158709719Y-73306652D01*
X158630791Y-73454317D01*
X158524571Y-73583746D01*
X158395142Y-73689966D01*
X158247477Y-73768894D01*
X158087252Y-73817498D01*
X157962374Y-73829797D01*
X157878870Y-73829797D01*
X157753992Y-73817498D01*
X157593767Y-73768894D01*
X157446102Y-73689966D01*
X157316673Y-73583746D01*
X157210453Y-73454317D01*
X157131525Y-73306652D01*
X157082921Y-73146427D01*
X157066510Y-72979797D01*
X157082921Y-72813167D01*
X157131525Y-72652942D01*
X157210453Y-72505277D01*
X157316673Y-72375848D01*
X157446102Y-72269628D01*
X157593767Y-72190700D01*
X157753992Y-72142096D01*
X157878870Y-72129797D01*
X157962374Y-72129797D01*
X158087252Y-72142096D01*
X158087252Y-72142096D01*
G37*
G36*
X189366630Y-72102299D02*
X189526855Y-72150903D01*
X189674520Y-72229831D01*
X189803949Y-72336051D01*
X189910169Y-72465480D01*
X189989097Y-72613145D01*
X190037701Y-72773370D01*
X190054112Y-72940000D01*
X190037701Y-73106630D01*
X189989097Y-73266855D01*
X189910169Y-73414520D01*
X189803949Y-73543949D01*
X189674520Y-73650169D01*
X189526855Y-73729097D01*
X189366630Y-73777701D01*
X189241752Y-73790000D01*
X189158248Y-73790000D01*
X189033370Y-73777701D01*
X188873145Y-73729097D01*
X188725480Y-73650169D01*
X188596051Y-73543949D01*
X188489831Y-73414520D01*
X188410903Y-73266855D01*
X188362299Y-73106630D01*
X188345888Y-72940000D01*
X188362299Y-72773370D01*
X188410903Y-72613145D01*
X188489831Y-72465480D01*
X188596051Y-72336051D01*
X188725480Y-72229831D01*
X188873145Y-72150903D01*
X189033370Y-72102299D01*
X189158248Y-72090000D01*
X189241752Y-72090000D01*
X189366630Y-72102299D01*
X189366630Y-72102299D01*
G37*
G36*
X208510473Y-68417193D02*
X208828963Y-68549116D01*
X209115601Y-68740641D01*
X209359359Y-68984399D01*
X209550884Y-69271037D01*
X209682807Y-69589527D01*
X209750060Y-69927633D01*
X209750060Y-70272367D01*
X209682807Y-70610473D01*
X209550884Y-70928963D01*
X209359359Y-71215601D01*
X209115601Y-71459359D01*
X208828963Y-71650884D01*
X208510473Y-71782807D01*
X208172367Y-71850060D01*
X207827633Y-71850060D01*
X207489527Y-71782807D01*
X207171037Y-71650884D01*
X206884399Y-71459359D01*
X206640641Y-71215601D01*
X206449116Y-70928963D01*
X206317193Y-70610473D01*
X206249940Y-70272367D01*
X206249940Y-69927633D01*
X206317193Y-69589527D01*
X206449116Y-69271037D01*
X206640641Y-68984399D01*
X206884399Y-68740641D01*
X207171037Y-68549116D01*
X207489527Y-68417193D01*
X207827633Y-68349940D01*
X208172367Y-68349940D01*
X208510473Y-68417193D01*
X208510473Y-68417193D01*
G37*
G36*
X144510473Y-68417193D02*
X144828963Y-68549116D01*
X145115601Y-68740641D01*
X145359359Y-68984399D01*
X145550884Y-69271037D01*
X145682807Y-69589527D01*
X145750060Y-69927633D01*
X145750060Y-70272367D01*
X145682807Y-70610473D01*
X145550884Y-70928963D01*
X145359359Y-71215601D01*
X145115601Y-71459359D01*
X144828963Y-71650884D01*
X144510473Y-71782807D01*
X144172367Y-71850060D01*
X143827633Y-71850060D01*
X143489527Y-71782807D01*
X143171037Y-71650884D01*
X142884399Y-71459359D01*
X142640641Y-71215601D01*
X142449116Y-70928963D01*
X142317193Y-70610473D01*
X142249940Y-70272367D01*
X142249940Y-69927633D01*
X142317193Y-69589527D01*
X142449116Y-69271037D01*
X142640641Y-68984399D01*
X142884399Y-68740641D01*
X143171037Y-68549116D01*
X143489527Y-68417193D01*
X143827633Y-68349940D01*
X144172367Y-68349940D01*
X144510473Y-68417193D01*
X144510473Y-68417193D01*
G37*
G36*
X158770622Y-71289797D02*
X157070622Y-71289797D01*
X157070622Y-69589797D01*
X158770622Y-69589797D01*
X158770622Y-71289797D01*
X158770622Y-71289797D01*
G37*
G36*
X190050000Y-71250000D02*
X188350000Y-71250000D01*
X188350000Y-69550000D01*
X190050000Y-69550000D01*
X190050000Y-71250000D01*
X190050000Y-71250000D01*
G37*
M02*
